<?xml version="1.0" encoding="utf-8" standalone="no"?>
<!DOCTYPE svg PUBLIC "-//W3C//DTD SVG 1.1//EN"
  "http://www.w3.org/Graphics/SVG/1.1/DTD/svg11.dtd">
<svg xmlns:xlink="http://www.w3.org/1999/xlink" width="1728pt" height="1440pt" viewBox="0 0 1728 1440" xmlns="http://www.w3.org/2000/svg" version="1.1">
 <metadata>
  <rdf:RDF xmlns:dc="http://purl.org/dc/elements/1.1/" xmlns:cc="http://creativecommons.org/ns#" xmlns:rdf="http://www.w3.org/1999/02/22-rdf-syntax-ns#">
   <cc:Work>
    <dc:type rdf:resource="http://purl.org/dc/dcmitype/StillImage"/>
    <dc:date>2022-08-04T15:55:07.254177</dc:date>
    <dc:format>image/svg+xml</dc:format>
    <dc:creator>
     <cc:Agent>
      <dc:title>Matplotlib v3.5.1, https://matplotlib.org/</dc:title>
     </cc:Agent>
    </dc:creator>
   </cc:Work>
  </rdf:RDF>
 </metadata>
 <defs>
  <style type="text/css">*{stroke-linejoin: round; stroke-linecap: butt}</style>
 </defs>
 <g id="figure_1">
  <g id="patch_1">
   <path d="M 0 1440 
L 1728 1440 
L 1728 0 
L 0 0 
L 0 1440 
z
" style="fill: none"/>
  </g>
  <g id="axes_1">
   <g id="patch_2">
    <path d="M 1533.090909 144.242424 
Q 1533.090909 168.484848 1533.090909 168.484848 
" clip-path="url(#peb58ba27e8)" style="fill: none; stroke: #000000; stroke-linejoin: miter"/>
   </g>
   <g id="patch_3">
    <path d="M 1533.090909 192.727273 
Q 1533.090909 362.424242 1533.090909 362.424242 
" clip-path="url(#peb58ba27e8)" style="fill: none; stroke: #000000; stroke-linejoin: miter"/>
   </g>
   <g id="patch_4">
    <path d="M 1300.363636 241.212121 
Q 1300.363636 265.454545 1300.363636 265.454545 
" clip-path="url(#peb58ba27e8)" style="fill: none; stroke: #000000; stroke-linejoin: miter"/>
   </g>
   <g id="patch_5">
    <path d="M 1300.363636 289.69697 
Q 1300.363636 362.424242 1300.363636 362.424242 
" clip-path="url(#peb58ba27e8)" style="fill: none; stroke: #000000; stroke-linejoin: miter"/>
   </g>
   <g id="patch_6">
    <path d="M 1067.636364 338.181818 
Q 1067.636364 362.424242 1067.636364 362.424242 
" clip-path="url(#peb58ba27e8)" style="fill: none; stroke: #000000; stroke-linejoin: miter"/>
   </g>
   <g id="patch_7">
    <path d="M 1300.363636 386.666667 
Q 1300.363636 459.393939 1300.363636 459.393939 
" clip-path="url(#peb58ba27e8)" style="fill: none; stroke: #000000; stroke-linejoin: miter"/>
   </g>
   <g id="patch_8">
    <path d="M 1067.636364 435.151515 
Q 1067.636364 459.393939 1067.636364 459.393939 
" clip-path="url(#peb58ba27e8)" style="fill: none; stroke: #000000; stroke-linejoin: miter"/>
   </g>
   <g id="patch_9">
    <path d="M 1184 483.636364 
Q 1184 1089.69697 1184 1089.69697 
" clip-path="url(#peb58ba27e8)" style="fill: none; stroke: #000000; stroke-linejoin: miter"/>
   </g>
   <g id="patch_10">
    <path d="M 951.272727 532.121212 
Q 951.272727 556.363636 951.272727 556.363636 
" clip-path="url(#peb58ba27e8)" style="fill: none; stroke: #000000; stroke-linejoin: miter"/>
   </g>
   <g id="patch_11">
    <path d="M 951.272727 580.606061 
Q 951.272727 653.333333 951.272727 653.333333 
" clip-path="url(#peb58ba27e8)" style="fill: none; stroke: #000000; stroke-linejoin: miter"/>
   </g>
   <g id="patch_12">
    <path d="M 718.545455 629.090909 
Q 718.545455 653.333333 718.545455 653.333333 
" clip-path="url(#peb58ba27e8)" style="fill: none; stroke: #000000; stroke-linejoin: miter"/>
   </g>
   <g id="patch_13">
    <path d="M 834.909091 677.575758 
Q 834.909091 1089.69697 834.909091 1089.69697 
" clip-path="url(#peb58ba27e8)" style="fill: none; stroke: #000000; stroke-linejoin: miter"/>
   </g>
   <g id="patch_14">
    <path d="M 602.181818 726.060606 
Q 602.181818 750.30303 602.181818 750.30303 
" clip-path="url(#peb58ba27e8)" style="fill: none; stroke: #000000; stroke-linejoin: miter"/>
   </g>
   <g id="patch_15">
    <path d="M 602.181818 774.545455 
Q 602.181818 798.787879 602.181818 798.787879 
" clip-path="url(#peb58ba27e8)" style="fill: none; stroke: #000000; stroke-linejoin: miter"/>
   </g>
   <g id="patch_16">
    <path d="M 602.181818 823.030303 
Q 602.181818 1041.212121 602.181818 1041.212121 
" clip-path="url(#peb58ba27e8)" style="fill: none; stroke: #000000; stroke-linejoin: miter"/>
   </g>
   <g id="patch_17">
    <path d="M 369.454545 871.515152 
Q 369.454545 895.757576 369.454545 895.757576 
" clip-path="url(#peb58ba27e8)" style="fill: none; stroke: #000000; stroke-linejoin: miter"/>
   </g>
   <g id="patch_18">
    <path d="M 369.454545 920 
Q 369.454545 944.242424 369.454545 944.242424 
" clip-path="url(#peb58ba27e8)" style="fill: none; stroke: #000000; stroke-linejoin: miter"/>
   </g>
   <g id="patch_19">
    <path d="M 369.454545 968.484848 
Q 369.454545 1041.212121 369.454545 1041.212121 
" clip-path="url(#peb58ba27e8)" style="fill: none; stroke: #000000; stroke-linejoin: miter"/>
   </g>
   <g id="patch_20">
    <path d="M 136.727273 1016.969697 
Q 136.727273 1041.212121 136.727273 1041.212121 
" clip-path="url(#peb58ba27e8)" style="fill: none; stroke: #000000; stroke-linejoin: miter"/>
   </g>
   <g id="patch_21">
    <path d="M 369.454545 1065.454545 
Q 369.454545 1089.69697 369.454545 1089.69697 
" clip-path="url(#peb58ba27e8)" style="fill: none; stroke: #000000; stroke-linejoin: miter"/>
   </g>
   <g id="patch_22">
    <path d="M 776.727273 1113.939394 
Q 776.727273 1138.181818 776.727273 1138.181818 
" clip-path="url(#peb58ba27e8)" style="fill: none; stroke: #000000; stroke-linejoin: miter"/>
   </g>
   <g id="patch_23">
    <path d="M 776.727273 1162.424242 
Q 776.727273 1186.666667 776.727273 1186.666667 
" clip-path="url(#peb58ba27e8)" style="fill: none; stroke: #000000; stroke-linejoin: miter"/>
   </g>
   <g id="patch_24">
    <path d="M 776.727273 1210.909091 
Q 776.727273 1235.151515 776.727273 1235.151515 
" clip-path="url(#peb58ba27e8)" style="fill: none; stroke: #000000; stroke-linejoin: miter"/>
   </g>
   <g id="patch_25">
    <path d="M 776.727273 1259.393939 
Q 776.727273 1283.636364 776.727273 1283.636364 
" clip-path="url(#peb58ba27e8)" style="fill: none; stroke: #000000; stroke-linejoin: miter"/>
   </g>
   <g id="patch_26">
    <path d="M 776.727273 1307.878788 
Q 776.727273 1320 776.727273 1320 
" clip-path="url(#peb58ba27e8)" style="fill: none; stroke: #000000; stroke-linejoin: miter"/>
   </g>
   <g id="patch_27">
    <path d="M 1474.909091 144.242424 
L 1649.454545 144.242424 
L 1591.272727 120 
L 1474.909091 120 
z
" clip-path="url(#peb58ba27e8)" style="fill: #ffffff; stroke: #000000; stroke-linejoin: miter"/>
   </g>
   <g id="patch_28">
    <path d="M 1474.909091 192.727273 
L 1649.454545 192.727273 
L 1591.272727 168.484848 
L 1474.909091 168.484848 
z
" clip-path="url(#peb58ba27e8)" style="fill: #ffffff; stroke: #000000; stroke-linejoin: miter"/>
   </g>
   <g id="patch_29">
    <path d="M 1242.181818 241.212121 
L 1416.727273 241.212121 
L 1358.545455 216.969697 
L 1242.181818 216.969697 
z
" clip-path="url(#peb58ba27e8)" style="fill: #ffffff; stroke: #000000; stroke-linejoin: miter"/>
   </g>
   <g id="patch_30">
    <path d="M 1242.181818 289.69697 
L 1416.727273 289.69697 
L 1358.545455 265.454545 
L 1242.181818 265.454545 
z
" clip-path="url(#peb58ba27e8)" style="fill: #ffffff; stroke: #000000; stroke-linejoin: miter"/>
   </g>
   <g id="patch_31">
    <path d="M 1009.454545 338.181818 
L 1184 338.181818 
L 1125.818182 313.939394 
L 1009.454545 313.939394 
z
" clip-path="url(#peb58ba27e8)" style="fill: #ffffff; stroke: #000000; stroke-linejoin: miter"/>
   </g>
   <g id="patch_32">
    <path d="M 1009.454545 386.666667 
L 1649.454545 386.666667 
L 1591.272727 362.424242 
L 1009.454545 362.424242 
z
" clip-path="url(#peb58ba27e8)" style="fill: #ffffff; stroke: #000000; stroke-linejoin: miter"/>
   </g>
   <g id="patch_33">
    <path d="M 1009.454545 435.151515 
L 1184 435.151515 
L 1125.818182 410.909091 
L 1009.454545 410.909091 
z
" clip-path="url(#peb58ba27e8)" style="fill: #ffffff; stroke: #000000; stroke-linejoin: miter"/>
   </g>
   <g id="patch_34">
    <path d="M 1009.454545 483.636364 
L 1416.727273 483.636364 
L 1358.545455 459.393939 
L 1009.454545 459.393939 
z
" clip-path="url(#peb58ba27e8)" style="fill: #ffffff; stroke: #000000; stroke-linejoin: miter"/>
   </g>
   <g id="patch_35">
    <path d="M 893.090909 532.121212 
L 1067.636364 532.121212 
L 1009.454545 507.878788 
L 893.090909 507.878788 
z
" clip-path="url(#peb58ba27e8)" style="fill: #ffffff; stroke: #000000; stroke-linejoin: miter"/>
   </g>
   <g id="patch_36">
    <path d="M 893.090909 580.606061 
L 1067.636364 580.606061 
L 1009.454545 556.363636 
L 893.090909 556.363636 
z
" clip-path="url(#peb58ba27e8)" style="fill: #ffffff; stroke: #000000; stroke-linejoin: miter"/>
   </g>
   <g id="patch_37">
    <path d="M 660.363636 629.090909 
L 834.909091 629.090909 
L 776.727273 604.848485 
L 660.363636 604.848485 
z
" clip-path="url(#peb58ba27e8)" style="fill: #ffffff; stroke: #000000; stroke-linejoin: miter"/>
   </g>
   <g id="patch_38">
    <path d="M 660.363636 677.575758 
L 1067.636364 677.575758 
L 1009.454545 653.333333 
L 660.363636 653.333333 
z
" clip-path="url(#peb58ba27e8)" style="fill: #ffffff; stroke: #000000; stroke-linejoin: miter"/>
   </g>
   <g id="patch_39">
    <path d="M 544 726.060606 
L 718.545455 726.060606 
L 660.363636 701.818182 
L 544 701.818182 
z
" clip-path="url(#peb58ba27e8)" style="fill: #ffffff; stroke: #000000; stroke-linejoin: miter"/>
   </g>
   <g id="patch_40">
    <path d="M 544 774.545455 
L 718.545455 774.545455 
L 660.363636 750.30303 
L 544 750.30303 
z
" clip-path="url(#peb58ba27e8)" style="fill: #ffffff; stroke: #000000; stroke-linejoin: miter"/>
   </g>
   <g id="patch_41">
    <path d="M 544 823.030303 
L 718.545455 823.030303 
L 660.363636 798.787879 
L 544 798.787879 
z
" clip-path="url(#peb58ba27e8)" style="fill: #ffffff; stroke: #000000; stroke-linejoin: miter"/>
   </g>
   <g id="patch_42">
    <path d="M 311.272727 871.515152 
L 485.818182 871.515152 
L 427.636364 847.272727 
L 311.272727 847.272727 
z
" clip-path="url(#peb58ba27e8)" style="fill: #ffffff; stroke: #000000; stroke-linejoin: miter"/>
   </g>
   <g id="patch_43">
    <path d="M 311.272727 920 
L 485.818182 920 
L 427.636364 895.757576 
L 311.272727 895.757576 
z
" clip-path="url(#peb58ba27e8)" style="fill: #ffffff; stroke: #000000; stroke-linejoin: miter"/>
   </g>
   <g id="patch_44">
    <path d="M 311.272727 968.484848 
L 485.818182 968.484848 
L 427.636364 944.242424 
L 311.272727 944.242424 
z
" clip-path="url(#peb58ba27e8)" style="fill: #ffffff; stroke: #000000; stroke-linejoin: miter"/>
   </g>
   <g id="patch_45">
    <path d="M 78.545455 1016.969697 
L 253.090909 1016.969697 
L 194.909091 992.727273 
L 78.545455 992.727273 
z
" clip-path="url(#peb58ba27e8)" style="fill: #ffffff; stroke: #000000; stroke-linejoin: miter"/>
   </g>
   <g id="patch_46">
    <path d="M 78.545455 1065.454545 
L 718.545455 1065.454545 
L 660.363636 1041.212121 
L 78.545455 1041.212121 
z
" clip-path="url(#peb58ba27e8)" style="fill: #ffffff; stroke: #000000; stroke-linejoin: miter"/>
   </g>
   <g id="patch_47">
    <path d="M 311.272727 1113.939394 
L 1300.363636 1113.939394 
L 1242.181818 1089.69697 
L 311.272727 1089.69697 
z
" clip-path="url(#peb58ba27e8)" style="fill: #ffffff; stroke: #000000; stroke-linejoin: miter"/>
   </g>
   <g id="patch_48">
    <path d="M 718.545455 1162.424242 
L 893.090909 1162.424242 
L 834.909091 1138.181818 
L 718.545455 1138.181818 
z
" clip-path="url(#peb58ba27e8)" style="fill: #ffffff; stroke: #000000; stroke-linejoin: miter"/>
   </g>
   <g id="patch_49">
    <path d="M 718.545455 1210.909091 
L 893.090909 1210.909091 
L 834.909091 1186.666667 
L 718.545455 1186.666667 
z
" clip-path="url(#peb58ba27e8)" style="fill: #ffffff; stroke: #000000; stroke-linejoin: miter"/>
   </g>
   <g id="patch_50">
    <path d="M 718.545455 1259.393939 
L 893.090909 1259.393939 
L 834.909091 1235.151515 
L 718.545455 1235.151515 
z
" clip-path="url(#peb58ba27e8)" style="fill: #ffffff; stroke: #000000; stroke-linejoin: miter"/>
   </g>
   <g id="patch_51">
    <path d="M 718.545455 1307.878788 
L 893.090909 1307.878788 
L 834.909091 1283.636364 
L 718.545455 1283.636364 
z
" clip-path="url(#peb58ba27e8)" style="fill: #ffffff; stroke: #000000; stroke-linejoin: miter"/>
   </g>
   <g id="text_1">
    <!-- literal_value -->
    <g transform="translate(1556.363636 162.008253)scale(0.17 -0.17)">
     <defs>
      <path id="DejaVuSans-6c" d="M 603 4863 
L 1178 4863 
L 1178 0 
L 603 0 
L 603 4863 
z
" transform="scale(0.015625)"/>
      <path id="DejaVuSans-69" d="M 603 3500 
L 1178 3500 
L 1178 0 
L 603 0 
L 603 3500 
z
M 603 4863 
L 1178 4863 
L 1178 4134 
L 603 4134 
L 603 4863 
z
" transform="scale(0.015625)"/>
      <path id="DejaVuSans-74" d="M 1172 4494 
L 1172 3500 
L 2356 3500 
L 2356 3053 
L 1172 3053 
L 1172 1153 
Q 1172 725 1289 603 
Q 1406 481 1766 481 
L 2356 481 
L 2356 0 
L 1766 0 
Q 1100 0 847 248 
Q 594 497 594 1153 
L 594 3053 
L 172 3053 
L 172 3500 
L 594 3500 
L 594 4494 
L 1172 4494 
z
" transform="scale(0.015625)"/>
      <path id="DejaVuSans-65" d="M 3597 1894 
L 3597 1613 
L 953 1613 
Q 991 1019 1311 708 
Q 1631 397 2203 397 
Q 2534 397 2845 478 
Q 3156 559 3463 722 
L 3463 178 
Q 3153 47 2828 -22 
Q 2503 -91 2169 -91 
Q 1331 -91 842 396 
Q 353 884 353 1716 
Q 353 2575 817 3079 
Q 1281 3584 2069 3584 
Q 2775 3584 3186 3129 
Q 3597 2675 3597 1894 
z
M 3022 2063 
Q 3016 2534 2758 2815 
Q 2500 3097 2075 3097 
Q 1594 3097 1305 2825 
Q 1016 2553 972 2059 
L 3022 2063 
z
" transform="scale(0.015625)"/>
      <path id="DejaVuSans-72" d="M 2631 2963 
Q 2534 3019 2420 3045 
Q 2306 3072 2169 3072 
Q 1681 3072 1420 2755 
Q 1159 2438 1159 1844 
L 1159 0 
L 581 0 
L 581 3500 
L 1159 3500 
L 1159 2956 
Q 1341 3275 1631 3429 
Q 1922 3584 2338 3584 
Q 2397 3584 2469 3576 
Q 2541 3569 2628 3553 
L 2631 2963 
z
" transform="scale(0.015625)"/>
      <path id="DejaVuSans-61" d="M 2194 1759 
Q 1497 1759 1228 1600 
Q 959 1441 959 1056 
Q 959 750 1161 570 
Q 1363 391 1709 391 
Q 2188 391 2477 730 
Q 2766 1069 2766 1631 
L 2766 1759 
L 2194 1759 
z
M 3341 1997 
L 3341 0 
L 2766 0 
L 2766 531 
Q 2569 213 2275 61 
Q 1981 -91 1556 -91 
Q 1019 -91 701 211 
Q 384 513 384 1019 
Q 384 1609 779 1909 
Q 1175 2209 1959 2209 
L 2766 2209 
L 2766 2266 
Q 2766 2663 2505 2880 
Q 2244 3097 1772 3097 
Q 1472 3097 1187 3025 
Q 903 2953 641 2809 
L 641 3341 
Q 956 3463 1253 3523 
Q 1550 3584 1831 3584 
Q 2591 3584 2966 3190 
Q 3341 2797 3341 1997 
z
" transform="scale(0.015625)"/>
      <path id="DejaVuSans-5f" d="M 3263 -1063 
L 3263 -1509 
L -63 -1509 
L -63 -1063 
L 3263 -1063 
z
" transform="scale(0.015625)"/>
      <path id="DejaVuSans-76" d="M 191 3500 
L 800 3500 
L 1894 563 
L 2988 3500 
L 3597 3500 
L 2284 0 
L 1503 0 
L 191 3500 
z
" transform="scale(0.015625)"/>
      <path id="DejaVuSans-75" d="M 544 1381 
L 544 3500 
L 1119 3500 
L 1119 1403 
Q 1119 906 1312 657 
Q 1506 409 1894 409 
Q 2359 409 2629 706 
Q 2900 1003 2900 1516 
L 2900 3500 
L 3475 3500 
L 3475 0 
L 2900 0 
L 2900 538 
Q 2691 219 2414 64 
Q 2138 -91 1772 -91 
Q 1169 -91 856 284 
Q 544 659 544 1381 
z
M 1991 3584 
L 1991 3584 
z
" transform="scale(0.015625)"/>
     </defs>
     <use xlink:href="#DejaVuSans-6c"/>
     <use xlink:href="#DejaVuSans-69" x="27.783203"/>
     <use xlink:href="#DejaVuSans-74" x="55.566406"/>
     <use xlink:href="#DejaVuSans-65" x="94.775391"/>
     <use xlink:href="#DejaVuSans-72" x="156.298828"/>
     <use xlink:href="#DejaVuSans-61" x="197.412109"/>
     <use xlink:href="#DejaVuSans-6c" x="258.691406"/>
     <use xlink:href="#DejaVuSans-5f" x="286.474609"/>
     <use xlink:href="#DejaVuSans-76" x="336.474609"/>
     <use xlink:href="#DejaVuSans-61" x="395.654297"/>
     <use xlink:href="#DejaVuSans-6c" x="456.933594"/>
     <use xlink:href="#DejaVuSans-75" x="484.716797"/>
     <use xlink:href="#DejaVuSans-65" x="548.095703"/>
    </g>
   </g>
   <g id="text_2">
    <!-- expr -->
    <g transform="translate(1556.363636 210.493101)scale(0.17 -0.17)">
     <defs>
      <path id="DejaVuSans-78" d="M 3513 3500 
L 2247 1797 
L 3578 0 
L 2900 0 
L 1881 1375 
L 863 0 
L 184 0 
L 1544 1831 
L 300 3500 
L 978 3500 
L 1906 2253 
L 2834 3500 
L 3513 3500 
z
" transform="scale(0.015625)"/>
      <path id="DejaVuSans-70" d="M 1159 525 
L 1159 -1331 
L 581 -1331 
L 581 3500 
L 1159 3500 
L 1159 2969 
Q 1341 3281 1617 3432 
Q 1894 3584 2278 3584 
Q 2916 3584 3314 3078 
Q 3713 2572 3713 1747 
Q 3713 922 3314 415 
Q 2916 -91 2278 -91 
Q 1894 -91 1617 61 
Q 1341 213 1159 525 
z
M 3116 1747 
Q 3116 2381 2855 2742 
Q 2594 3103 2138 3103 
Q 1681 3103 1420 2742 
Q 1159 2381 1159 1747 
Q 1159 1113 1420 752 
Q 1681 391 2138 391 
Q 2594 391 2855 752 
Q 3116 1113 3116 1747 
z
" transform="scale(0.015625)"/>
     </defs>
     <use xlink:href="#DejaVuSans-65"/>
     <use xlink:href="#DejaVuSans-78" x="59.773438"/>
     <use xlink:href="#DejaVuSans-70" x="118.953125"/>
     <use xlink:href="#DejaVuSans-72" x="182.429688"/>
    </g>
   </g>
   <g id="text_3">
    <!-- column_name -->
    <g transform="translate(1323.636364 258.97795)scale(0.17 -0.17)">
     <defs>
      <path id="DejaVuSans-63" d="M 3122 3366 
L 3122 2828 
Q 2878 2963 2633 3030 
Q 2388 3097 2138 3097 
Q 1578 3097 1268 2742 
Q 959 2388 959 1747 
Q 959 1106 1268 751 
Q 1578 397 2138 397 
Q 2388 397 2633 464 
Q 2878 531 3122 666 
L 3122 134 
Q 2881 22 2623 -34 
Q 2366 -91 2075 -91 
Q 1284 -91 818 406 
Q 353 903 353 1747 
Q 353 2603 823 3093 
Q 1294 3584 2113 3584 
Q 2378 3584 2631 3529 
Q 2884 3475 3122 3366 
z
" transform="scale(0.015625)"/>
      <path id="DejaVuSans-6f" d="M 1959 3097 
Q 1497 3097 1228 2736 
Q 959 2375 959 1747 
Q 959 1119 1226 758 
Q 1494 397 1959 397 
Q 2419 397 2687 759 
Q 2956 1122 2956 1747 
Q 2956 2369 2687 2733 
Q 2419 3097 1959 3097 
z
M 1959 3584 
Q 2709 3584 3137 3096 
Q 3566 2609 3566 1747 
Q 3566 888 3137 398 
Q 2709 -91 1959 -91 
Q 1206 -91 779 398 
Q 353 888 353 1747 
Q 353 2609 779 3096 
Q 1206 3584 1959 3584 
z
" transform="scale(0.015625)"/>
      <path id="DejaVuSans-6d" d="M 3328 2828 
Q 3544 3216 3844 3400 
Q 4144 3584 4550 3584 
Q 5097 3584 5394 3201 
Q 5691 2819 5691 2113 
L 5691 0 
L 5113 0 
L 5113 2094 
Q 5113 2597 4934 2840 
Q 4756 3084 4391 3084 
Q 3944 3084 3684 2787 
Q 3425 2491 3425 1978 
L 3425 0 
L 2847 0 
L 2847 2094 
Q 2847 2600 2669 2842 
Q 2491 3084 2119 3084 
Q 1678 3084 1418 2786 
Q 1159 2488 1159 1978 
L 1159 0 
L 581 0 
L 581 3500 
L 1159 3500 
L 1159 2956 
Q 1356 3278 1631 3431 
Q 1906 3584 2284 3584 
Q 2666 3584 2933 3390 
Q 3200 3197 3328 2828 
z
" transform="scale(0.015625)"/>
      <path id="DejaVuSans-6e" d="M 3513 2113 
L 3513 0 
L 2938 0 
L 2938 2094 
Q 2938 2591 2744 2837 
Q 2550 3084 2163 3084 
Q 1697 3084 1428 2787 
Q 1159 2491 1159 1978 
L 1159 0 
L 581 0 
L 581 3500 
L 1159 3500 
L 1159 2956 
Q 1366 3272 1645 3428 
Q 1925 3584 2291 3584 
Q 2894 3584 3203 3211 
Q 3513 2838 3513 2113 
z
" transform="scale(0.015625)"/>
     </defs>
     <use xlink:href="#DejaVuSans-63"/>
     <use xlink:href="#DejaVuSans-6f" x="54.980469"/>
     <use xlink:href="#DejaVuSans-6c" x="116.162109"/>
     <use xlink:href="#DejaVuSans-75" x="143.945312"/>
     <use xlink:href="#DejaVuSans-6d" x="207.324219"/>
     <use xlink:href="#DejaVuSans-6e" x="304.736328"/>
     <use xlink:href="#DejaVuSans-5f" x="368.115234"/>
     <use xlink:href="#DejaVuSans-6e" x="418.115234"/>
     <use xlink:href="#DejaVuSans-61" x="481.494141"/>
     <use xlink:href="#DejaVuSans-6d" x="542.773438"/>
     <use xlink:href="#DejaVuSans-65" x="640.185547"/>
    </g>
   </g>
   <g id="text_4">
    <!-- column_expr -->
    <g transform="translate(1323.636364 307.462798)scale(0.17 -0.17)">
     <use xlink:href="#DejaVuSans-63"/>
     <use xlink:href="#DejaVuSans-6f" x="54.980469"/>
     <use xlink:href="#DejaVuSans-6c" x="116.162109"/>
     <use xlink:href="#DejaVuSans-75" x="143.945312"/>
     <use xlink:href="#DejaVuSans-6d" x="207.324219"/>
     <use xlink:href="#DejaVuSans-6e" x="304.736328"/>
     <use xlink:href="#DejaVuSans-5f" x="368.115234"/>
     <use xlink:href="#DejaVuSans-65" x="418.115234"/>
     <use xlink:href="#DejaVuSans-78" x="477.888672"/>
     <use xlink:href="#DejaVuSans-70" x="537.068359"/>
     <use xlink:href="#DejaVuSans-72" x="600.544922"/>
    </g>
   </g>
   <g id="text_5">
    <!-- binary_operator -->
    <g transform="translate(1090.909091 355.947647)scale(0.17 -0.17)">
     <defs>
      <path id="DejaVuSans-62" d="M 3116 1747 
Q 3116 2381 2855 2742 
Q 2594 3103 2138 3103 
Q 1681 3103 1420 2742 
Q 1159 2381 1159 1747 
Q 1159 1113 1420 752 
Q 1681 391 2138 391 
Q 2594 391 2855 752 
Q 3116 1113 3116 1747 
z
M 1159 2969 
Q 1341 3281 1617 3432 
Q 1894 3584 2278 3584 
Q 2916 3584 3314 3078 
Q 3713 2572 3713 1747 
Q 3713 922 3314 415 
Q 2916 -91 2278 -91 
Q 1894 -91 1617 61 
Q 1341 213 1159 525 
L 1159 0 
L 581 0 
L 581 4863 
L 1159 4863 
L 1159 2969 
z
" transform="scale(0.015625)"/>
      <path id="DejaVuSans-79" d="M 2059 -325 
Q 1816 -950 1584 -1140 
Q 1353 -1331 966 -1331 
L 506 -1331 
L 506 -850 
L 844 -850 
Q 1081 -850 1212 -737 
Q 1344 -625 1503 -206 
L 1606 56 
L 191 3500 
L 800 3500 
L 1894 763 
L 2988 3500 
L 3597 3500 
L 2059 -325 
z
" transform="scale(0.015625)"/>
     </defs>
     <use xlink:href="#DejaVuSans-62"/>
     <use xlink:href="#DejaVuSans-69" x="63.476562"/>
     <use xlink:href="#DejaVuSans-6e" x="91.259766"/>
     <use xlink:href="#DejaVuSans-61" x="154.638672"/>
     <use xlink:href="#DejaVuSans-72" x="215.917969"/>
     <use xlink:href="#DejaVuSans-79" x="257.03125"/>
     <use xlink:href="#DejaVuSans-5f" x="316.210938"/>
     <use xlink:href="#DejaVuSans-6f" x="366.210938"/>
     <use xlink:href="#DejaVuSans-70" x="427.392578"/>
     <use xlink:href="#DejaVuSans-65" x="490.869141"/>
     <use xlink:href="#DejaVuSans-72" x="552.392578"/>
     <use xlink:href="#DejaVuSans-61" x="593.505859"/>
     <use xlink:href="#DejaVuSans-74" x="654.785156"/>
     <use xlink:href="#DejaVuSans-6f" x="693.994141"/>
     <use xlink:href="#DejaVuSans-72" x="755.175781"/>
    </g>
   </g>
   <g id="text_6">
    <!-- expr -->
    <g transform="translate(1323.636364 404.432495)scale(0.17 -0.17)">
     <use xlink:href="#DejaVuSans-65"/>
     <use xlink:href="#DejaVuSans-78" x="59.773438"/>
     <use xlink:href="#DejaVuSans-70" x="118.953125"/>
     <use xlink:href="#DejaVuSans-72" x="182.429688"/>
    </g>
   </g>
   <g id="text_7">
    <!-- where_keyword -->
    <g transform="translate(1090.909091 452.917344)scale(0.17 -0.17)">
     <defs>
      <path id="DejaVuSans-77" d="M 269 3500 
L 844 3500 
L 1563 769 
L 2278 3500 
L 2956 3500 
L 3675 769 
L 4391 3500 
L 4966 3500 
L 4050 0 
L 3372 0 
L 2619 2869 
L 1863 0 
L 1184 0 
L 269 3500 
z
" transform="scale(0.015625)"/>
      <path id="DejaVuSans-68" d="M 3513 2113 
L 3513 0 
L 2938 0 
L 2938 2094 
Q 2938 2591 2744 2837 
Q 2550 3084 2163 3084 
Q 1697 3084 1428 2787 
Q 1159 2491 1159 1978 
L 1159 0 
L 581 0 
L 581 4863 
L 1159 4863 
L 1159 2956 
Q 1366 3272 1645 3428 
Q 1925 3584 2291 3584 
Q 2894 3584 3203 3211 
Q 3513 2838 3513 2113 
z
" transform="scale(0.015625)"/>
      <path id="DejaVuSans-6b" d="M 581 4863 
L 1159 4863 
L 1159 1991 
L 2875 3500 
L 3609 3500 
L 1753 1863 
L 3688 0 
L 2938 0 
L 1159 1709 
L 1159 0 
L 581 0 
L 581 4863 
z
" transform="scale(0.015625)"/>
      <path id="DejaVuSans-64" d="M 2906 2969 
L 2906 4863 
L 3481 4863 
L 3481 0 
L 2906 0 
L 2906 525 
Q 2725 213 2448 61 
Q 2172 -91 1784 -91 
Q 1150 -91 751 415 
Q 353 922 353 1747 
Q 353 2572 751 3078 
Q 1150 3584 1784 3584 
Q 2172 3584 2448 3432 
Q 2725 3281 2906 2969 
z
M 947 1747 
Q 947 1113 1208 752 
Q 1469 391 1925 391 
Q 2381 391 2643 752 
Q 2906 1113 2906 1747 
Q 2906 2381 2643 2742 
Q 2381 3103 1925 3103 
Q 1469 3103 1208 2742 
Q 947 2381 947 1747 
z
" transform="scale(0.015625)"/>
     </defs>
     <use xlink:href="#DejaVuSans-77"/>
     <use xlink:href="#DejaVuSans-68" x="81.787109"/>
     <use xlink:href="#DejaVuSans-65" x="145.166016"/>
     <use xlink:href="#DejaVuSans-72" x="206.689453"/>
     <use xlink:href="#DejaVuSans-65" x="245.552734"/>
     <use xlink:href="#DejaVuSans-5f" x="307.076172"/>
     <use xlink:href="#DejaVuSans-6b" x="357.076172"/>
     <use xlink:href="#DejaVuSans-65" x="411.361328"/>
     <use xlink:href="#DejaVuSans-79" x="472.884766"/>
     <use xlink:href="#DejaVuSans-77" x="532.064453"/>
     <use xlink:href="#DejaVuSans-6f" x="613.851562"/>
     <use xlink:href="#DejaVuSans-72" x="675.033203"/>
     <use xlink:href="#DejaVuSans-64" x="714.396484"/>
    </g>
   </g>
   <g id="text_8">
    <!-- where_clause -->
    <g transform="translate(1207.272727 501.402192)scale(0.17 -0.17)">
     <defs>
      <path id="DejaVuSans-73" d="M 2834 3397 
L 2834 2853 
Q 2591 2978 2328 3040 
Q 2066 3103 1784 3103 
Q 1356 3103 1142 2972 
Q 928 2841 928 2578 
Q 928 2378 1081 2264 
Q 1234 2150 1697 2047 
L 1894 2003 
Q 2506 1872 2764 1633 
Q 3022 1394 3022 966 
Q 3022 478 2636 193 
Q 2250 -91 1575 -91 
Q 1294 -91 989 -36 
Q 684 19 347 128 
L 347 722 
Q 666 556 975 473 
Q 1284 391 1588 391 
Q 1994 391 2212 530 
Q 2431 669 2431 922 
Q 2431 1156 2273 1281 
Q 2116 1406 1581 1522 
L 1381 1569 
Q 847 1681 609 1914 
Q 372 2147 372 2553 
Q 372 3047 722 3315 
Q 1072 3584 1716 3584 
Q 2034 3584 2315 3537 
Q 2597 3491 2834 3397 
z
" transform="scale(0.015625)"/>
     </defs>
     <use xlink:href="#DejaVuSans-77"/>
     <use xlink:href="#DejaVuSans-68" x="81.787109"/>
     <use xlink:href="#DejaVuSans-65" x="145.166016"/>
     <use xlink:href="#DejaVuSans-72" x="206.689453"/>
     <use xlink:href="#DejaVuSans-65" x="245.552734"/>
     <use xlink:href="#DejaVuSans-5f" x="307.076172"/>
     <use xlink:href="#DejaVuSans-63" x="357.076172"/>
     <use xlink:href="#DejaVuSans-6c" x="412.056641"/>
     <use xlink:href="#DejaVuSans-61" x="439.839844"/>
     <use xlink:href="#DejaVuSans-75" x="501.119141"/>
     <use xlink:href="#DejaVuSans-73" x="564.498047"/>
     <use xlink:href="#DejaVuSans-65" x="616.597656"/>
    </g>
   </g>
   <g id="text_9">
    <!-- table_name -->
    <g transform="translate(974.545455 549.887041)scale(0.17 -0.17)">
     <use xlink:href="#DejaVuSans-74"/>
     <use xlink:href="#DejaVuSans-61" x="39.208984"/>
     <use xlink:href="#DejaVuSans-62" x="100.488281"/>
     <use xlink:href="#DejaVuSans-6c" x="163.964844"/>
     <use xlink:href="#DejaVuSans-65" x="191.748047"/>
     <use xlink:href="#DejaVuSans-5f" x="253.271484"/>
     <use xlink:href="#DejaVuSans-6e" x="303.271484"/>
     <use xlink:href="#DejaVuSans-61" x="366.650391"/>
     <use xlink:href="#DejaVuSans-6d" x="427.929688"/>
     <use xlink:href="#DejaVuSans-65" x="525.341797"/>
    </g>
   </g>
   <g id="text_10">
    <!-- table -->
    <g transform="translate(974.545455 598.371889)scale(0.17 -0.17)">
     <use xlink:href="#DejaVuSans-74"/>
     <use xlink:href="#DejaVuSans-61" x="39.208984"/>
     <use xlink:href="#DejaVuSans-62" x="100.488281"/>
     <use xlink:href="#DejaVuSans-6c" x="163.964844"/>
     <use xlink:href="#DejaVuSans-65" x="191.748047"/>
    </g>
   </g>
   <g id="text_11">
    <!-- from_keyword -->
    <g transform="translate(741.818182 646.856738)scale(0.17 -0.17)">
     <defs>
      <path id="DejaVuSans-66" d="M 2375 4863 
L 2375 4384 
L 1825 4384 
Q 1516 4384 1395 4259 
Q 1275 4134 1275 3809 
L 1275 3500 
L 2222 3500 
L 2222 3053 
L 1275 3053 
L 1275 0 
L 697 0 
L 697 3053 
L 147 3053 
L 147 3500 
L 697 3500 
L 697 3744 
Q 697 4328 969 4595 
Q 1241 4863 1831 4863 
L 2375 4863 
z
" transform="scale(0.015625)"/>
     </defs>
     <use xlink:href="#DejaVuSans-66"/>
     <use xlink:href="#DejaVuSans-72" x="35.205078"/>
     <use xlink:href="#DejaVuSans-6f" x="74.068359"/>
     <use xlink:href="#DejaVuSans-6d" x="135.25"/>
     <use xlink:href="#DejaVuSans-5f" x="232.662109"/>
     <use xlink:href="#DejaVuSans-6b" x="282.662109"/>
     <use xlink:href="#DejaVuSans-65" x="336.947266"/>
     <use xlink:href="#DejaVuSans-79" x="398.470703"/>
     <use xlink:href="#DejaVuSans-77" x="457.650391"/>
     <use xlink:href="#DejaVuSans-6f" x="539.4375"/>
     <use xlink:href="#DejaVuSans-72" x="600.619141"/>
     <use xlink:href="#DejaVuSans-64" x="639.982422"/>
    </g>
   </g>
   <g id="text_12">
    <!-- from_clause -->
    <g transform="translate(858.181818 695.341586)scale(0.17 -0.17)">
     <use xlink:href="#DejaVuSans-66"/>
     <use xlink:href="#DejaVuSans-72" x="35.205078"/>
     <use xlink:href="#DejaVuSans-6f" x="74.068359"/>
     <use xlink:href="#DejaVuSans-6d" x="135.25"/>
     <use xlink:href="#DejaVuSans-5f" x="232.662109"/>
     <use xlink:href="#DejaVuSans-63" x="282.662109"/>
     <use xlink:href="#DejaVuSans-6c" x="337.642578"/>
     <use xlink:href="#DejaVuSans-61" x="365.425781"/>
     <use xlink:href="#DejaVuSans-75" x="426.705078"/>
     <use xlink:href="#DejaVuSans-73" x="490.083984"/>
     <use xlink:href="#DejaVuSans-65" x="542.183594"/>
    </g>
   </g>
   <g id="text_13">
    <!-- column_name -->
    <g transform="translate(625.454545 743.826435)scale(0.17 -0.17)">
     <use xlink:href="#DejaVuSans-63"/>
     <use xlink:href="#DejaVuSans-6f" x="54.980469"/>
     <use xlink:href="#DejaVuSans-6c" x="116.162109"/>
     <use xlink:href="#DejaVuSans-75" x="143.945312"/>
     <use xlink:href="#DejaVuSans-6d" x="207.324219"/>
     <use xlink:href="#DejaVuSans-6e" x="304.736328"/>
     <use xlink:href="#DejaVuSans-5f" x="368.115234"/>
     <use xlink:href="#DejaVuSans-6e" x="418.115234"/>
     <use xlink:href="#DejaVuSans-61" x="481.494141"/>
     <use xlink:href="#DejaVuSans-6d" x="542.773438"/>
     <use xlink:href="#DejaVuSans-65" x="640.185547"/>
    </g>
   </g>
   <g id="text_14">
    <!-- column_expr -->
    <g transform="translate(625.454545 792.311283)scale(0.17 -0.17)">
     <use xlink:href="#DejaVuSans-63"/>
     <use xlink:href="#DejaVuSans-6f" x="54.980469"/>
     <use xlink:href="#DejaVuSans-6c" x="116.162109"/>
     <use xlink:href="#DejaVuSans-75" x="143.945312"/>
     <use xlink:href="#DejaVuSans-6d" x="207.324219"/>
     <use xlink:href="#DejaVuSans-6e" x="304.736328"/>
     <use xlink:href="#DejaVuSans-5f" x="368.115234"/>
     <use xlink:href="#DejaVuSans-65" x="418.115234"/>
     <use xlink:href="#DejaVuSans-78" x="477.888672"/>
     <use xlink:href="#DejaVuSans-70" x="537.068359"/>
     <use xlink:href="#DejaVuSans-72" x="600.544922"/>
    </g>
   </g>
   <g id="text_15">
    <!-- result_column -->
    <g transform="translate(625.454545 840.796132)scale(0.17 -0.17)">
     <use xlink:href="#DejaVuSans-72"/>
     <use xlink:href="#DejaVuSans-65" x="38.863281"/>
     <use xlink:href="#DejaVuSans-73" x="100.386719"/>
     <use xlink:href="#DejaVuSans-75" x="152.486328"/>
     <use xlink:href="#DejaVuSans-6c" x="215.865234"/>
     <use xlink:href="#DejaVuSans-74" x="243.648438"/>
     <use xlink:href="#DejaVuSans-5f" x="282.857422"/>
     <use xlink:href="#DejaVuSans-63" x="332.857422"/>
     <use xlink:href="#DejaVuSans-6f" x="387.837891"/>
     <use xlink:href="#DejaVuSans-6c" x="449.019531"/>
     <use xlink:href="#DejaVuSans-75" x="476.802734"/>
     <use xlink:href="#DejaVuSans-6d" x="540.181641"/>
     <use xlink:href="#DejaVuSans-6e" x="637.59375"/>
    </g>
   </g>
   <g id="text_16">
    <!-- column_name -->
    <g transform="translate(392.727273 889.28098)scale(0.17 -0.17)">
     <use xlink:href="#DejaVuSans-63"/>
     <use xlink:href="#DejaVuSans-6f" x="54.980469"/>
     <use xlink:href="#DejaVuSans-6c" x="116.162109"/>
     <use xlink:href="#DejaVuSans-75" x="143.945312"/>
     <use xlink:href="#DejaVuSans-6d" x="207.324219"/>
     <use xlink:href="#DejaVuSans-6e" x="304.736328"/>
     <use xlink:href="#DejaVuSans-5f" x="368.115234"/>
     <use xlink:href="#DejaVuSans-6e" x="418.115234"/>
     <use xlink:href="#DejaVuSans-61" x="481.494141"/>
     <use xlink:href="#DejaVuSans-6d" x="542.773438"/>
     <use xlink:href="#DejaVuSans-65" x="640.185547"/>
    </g>
   </g>
   <g id="text_17">
    <!-- column_expr -->
    <g transform="translate(392.727273 937.765829)scale(0.17 -0.17)">
     <use xlink:href="#DejaVuSans-63"/>
     <use xlink:href="#DejaVuSans-6f" x="54.980469"/>
     <use xlink:href="#DejaVuSans-6c" x="116.162109"/>
     <use xlink:href="#DejaVuSans-75" x="143.945312"/>
     <use xlink:href="#DejaVuSans-6d" x="207.324219"/>
     <use xlink:href="#DejaVuSans-6e" x="304.736328"/>
     <use xlink:href="#DejaVuSans-5f" x="368.115234"/>
     <use xlink:href="#DejaVuSans-65" x="418.115234"/>
     <use xlink:href="#DejaVuSans-78" x="477.888672"/>
     <use xlink:href="#DejaVuSans-70" x="537.068359"/>
     <use xlink:href="#DejaVuSans-72" x="600.544922"/>
    </g>
   </g>
   <g id="text_18">
    <!-- result_column -->
    <g transform="translate(392.727273 986.250677)scale(0.17 -0.17)">
     <use xlink:href="#DejaVuSans-72"/>
     <use xlink:href="#DejaVuSans-65" x="38.863281"/>
     <use xlink:href="#DejaVuSans-73" x="100.386719"/>
     <use xlink:href="#DejaVuSans-75" x="152.486328"/>
     <use xlink:href="#DejaVuSans-6c" x="215.865234"/>
     <use xlink:href="#DejaVuSans-74" x="243.648438"/>
     <use xlink:href="#DejaVuSans-5f" x="282.857422"/>
     <use xlink:href="#DejaVuSans-63" x="332.857422"/>
     <use xlink:href="#DejaVuSans-6f" x="387.837891"/>
     <use xlink:href="#DejaVuSans-6c" x="449.019531"/>
     <use xlink:href="#DejaVuSans-75" x="476.802734"/>
     <use xlink:href="#DejaVuSans-6d" x="540.181641"/>
     <use xlink:href="#DejaVuSans-6e" x="637.59375"/>
    </g>
   </g>
   <g id="text_19">
    <!-- select_keyword -->
    <g transform="translate(160 1034.735526)scale(0.17 -0.17)">
     <use xlink:href="#DejaVuSans-73"/>
     <use xlink:href="#DejaVuSans-65" x="52.099609"/>
     <use xlink:href="#DejaVuSans-6c" x="113.623047"/>
     <use xlink:href="#DejaVuSans-65" x="141.40625"/>
     <use xlink:href="#DejaVuSans-63" x="202.929688"/>
     <use xlink:href="#DejaVuSans-74" x="257.910156"/>
     <use xlink:href="#DejaVuSans-5f" x="297.119141"/>
     <use xlink:href="#DejaVuSans-6b" x="347.119141"/>
     <use xlink:href="#DejaVuSans-65" x="401.404297"/>
     <use xlink:href="#DejaVuSans-79" x="462.927734"/>
     <use xlink:href="#DejaVuSans-77" x="522.107422"/>
     <use xlink:href="#DejaVuSans-6f" x="603.894531"/>
     <use xlink:href="#DejaVuSans-72" x="665.076172"/>
     <use xlink:href="#DejaVuSans-64" x="704.439453"/>
    </g>
   </g>
   <g id="text_20">
    <!-- select_clause -->
    <g transform="translate(392.727273 1083.220374)scale(0.17 -0.17)">
     <use xlink:href="#DejaVuSans-73"/>
     <use xlink:href="#DejaVuSans-65" x="52.099609"/>
     <use xlink:href="#DejaVuSans-6c" x="113.623047"/>
     <use xlink:href="#DejaVuSans-65" x="141.40625"/>
     <use xlink:href="#DejaVuSans-63" x="202.929688"/>
     <use xlink:href="#DejaVuSans-74" x="257.910156"/>
     <use xlink:href="#DejaVuSans-5f" x="297.119141"/>
     <use xlink:href="#DejaVuSans-63" x="347.119141"/>
     <use xlink:href="#DejaVuSans-6c" x="402.099609"/>
     <use xlink:href="#DejaVuSans-61" x="429.882812"/>
     <use xlink:href="#DejaVuSans-75" x="491.162109"/>
     <use xlink:href="#DejaVuSans-73" x="554.541016"/>
     <use xlink:href="#DejaVuSans-65" x="606.640625"/>
    </g>
   </g>
   <g id="text_21">
    <!-- statement -->
    <g transform="translate(800 1131.705223)scale(0.17 -0.17)">
     <use xlink:href="#DejaVuSans-73"/>
     <use xlink:href="#DejaVuSans-74" x="52.099609"/>
     <use xlink:href="#DejaVuSans-61" x="91.308594"/>
     <use xlink:href="#DejaVuSans-74" x="152.587891"/>
     <use xlink:href="#DejaVuSans-65" x="191.796875"/>
     <use xlink:href="#DejaVuSans-6d" x="253.320312"/>
     <use xlink:href="#DejaVuSans-65" x="350.732422"/>
     <use xlink:href="#DejaVuSans-6e" x="412.255859"/>
     <use xlink:href="#DejaVuSans-74" x="475.634766"/>
    </g>
   </g>
   <g id="text_22">
    <!-- statement -->
    <g transform="translate(800 1180.190071)scale(0.17 -0.17)">
     <use xlink:href="#DejaVuSans-73"/>
     <use xlink:href="#DejaVuSans-74" x="52.099609"/>
     <use xlink:href="#DejaVuSans-61" x="91.308594"/>
     <use xlink:href="#DejaVuSans-74" x="152.587891"/>
     <use xlink:href="#DejaVuSans-65" x="191.796875"/>
     <use xlink:href="#DejaVuSans-6d" x="253.320312"/>
     <use xlink:href="#DejaVuSans-65" x="350.732422"/>
     <use xlink:href="#DejaVuSans-6e" x="412.255859"/>
     <use xlink:href="#DejaVuSans-74" x="475.634766"/>
    </g>
   </g>
   <g id="text_23">
    <!-- statement -->
    <g transform="translate(800 1228.67492)scale(0.17 -0.17)">
     <use xlink:href="#DejaVuSans-73"/>
     <use xlink:href="#DejaVuSans-74" x="52.099609"/>
     <use xlink:href="#DejaVuSans-61" x="91.308594"/>
     <use xlink:href="#DejaVuSans-74" x="152.587891"/>
     <use xlink:href="#DejaVuSans-65" x="191.796875"/>
     <use xlink:href="#DejaVuSans-6d" x="253.320312"/>
     <use xlink:href="#DejaVuSans-65" x="350.732422"/>
     <use xlink:href="#DejaVuSans-6e" x="412.255859"/>
     <use xlink:href="#DejaVuSans-74" x="475.634766"/>
    </g>
   </g>
   <g id="text_24">
    <!-- list -->
    <g transform="translate(800 1277.159768)scale(0.17 -0.17)">
     <use xlink:href="#DejaVuSans-6c"/>
     <use xlink:href="#DejaVuSans-69" x="27.783203"/>
     <use xlink:href="#DejaVuSans-73" x="55.566406"/>
     <use xlink:href="#DejaVuSans-74" x="107.666016"/>
    </g>
   </g>
   <g id="text_25">
    <!-- query -->
    <g transform="translate(800 1325.644616)scale(0.17 -0.17)">
     <defs>
      <path id="DejaVuSans-71" d="M 947 1747 
Q 947 1113 1208 752 
Q 1469 391 1925 391 
Q 2381 391 2643 752 
Q 2906 1113 2906 1747 
Q 2906 2381 2643 2742 
Q 2381 3103 1925 3103 
Q 1469 3103 1208 2742 
Q 947 2381 947 1747 
z
M 2906 525 
Q 2725 213 2448 61 
Q 2172 -91 1784 -91 
Q 1150 -91 751 415 
Q 353 922 353 1747 
Q 353 2572 751 3078 
Q 1150 3584 1784 3584 
Q 2172 3584 2448 3432 
Q 2725 3281 2906 2969 
L 2906 3500 
L 3481 3500 
L 3481 -1331 
L 2906 -1331 
L 2906 525 
z
" transform="scale(0.015625)"/>
     </defs>
     <use xlink:href="#DejaVuSans-71"/>
     <use xlink:href="#DejaVuSans-75" x="63.476562"/>
     <use xlink:href="#DejaVuSans-65" x="126.855469"/>
     <use xlink:href="#DejaVuSans-72" x="188.378906"/>
     <use xlink:href="#DejaVuSans-79" x="229.492188"/>
    </g>
   </g>
   <g id="text_26">
    <!-- '2nd Street' -->
    <g transform="translate(1483.701925 136.81215)scale(0.17 -0.17)">
     <defs>
      <path id="DejaVuSans-27" d="M 1147 4666 
L 1147 2931 
L 616 2931 
L 616 4666 
L 1147 4666 
z
" transform="scale(0.015625)"/>
      <path id="DejaVuSans-32" d="M 1228 531 
L 3431 531 
L 3431 0 
L 469 0 
L 469 531 
Q 828 903 1448 1529 
Q 2069 2156 2228 2338 
Q 2531 2678 2651 2914 
Q 2772 3150 2772 3378 
Q 2772 3750 2511 3984 
Q 2250 4219 1831 4219 
Q 1534 4219 1204 4116 
Q 875 4013 500 3803 
L 500 4441 
Q 881 4594 1212 4672 
Q 1544 4750 1819 4750 
Q 2544 4750 2975 4387 
Q 3406 4025 3406 3419 
Q 3406 3131 3298 2873 
Q 3191 2616 2906 2266 
Q 2828 2175 2409 1742 
Q 1991 1309 1228 531 
z
" transform="scale(0.015625)"/>
      <path id="DejaVuSans-20" transform="scale(0.015625)"/>
      <path id="DejaVuSans-53" d="M 3425 4513 
L 3425 3897 
Q 3066 4069 2747 4153 
Q 2428 4238 2131 4238 
Q 1616 4238 1336 4038 
Q 1056 3838 1056 3469 
Q 1056 3159 1242 3001 
Q 1428 2844 1947 2747 
L 2328 2669 
Q 3034 2534 3370 2195 
Q 3706 1856 3706 1288 
Q 3706 609 3251 259 
Q 2797 -91 1919 -91 
Q 1588 -91 1214 -16 
Q 841 59 441 206 
L 441 856 
Q 825 641 1194 531 
Q 1563 422 1919 422 
Q 2459 422 2753 634 
Q 3047 847 3047 1241 
Q 3047 1584 2836 1778 
Q 2625 1972 2144 2069 
L 1759 2144 
Q 1053 2284 737 2584 
Q 422 2884 422 3419 
Q 422 4038 858 4394 
Q 1294 4750 2059 4750 
Q 2388 4750 2728 4690 
Q 3069 4631 3425 4513 
z
" transform="scale(0.015625)"/>
     </defs>
     <use xlink:href="#DejaVuSans-27"/>
     <use xlink:href="#DejaVuSans-32" x="27.490234"/>
     <use xlink:href="#DejaVuSans-6e" x="91.113281"/>
     <use xlink:href="#DejaVuSans-64" x="154.492188"/>
     <use xlink:href="#DejaVuSans-20" x="217.96875"/>
     <use xlink:href="#DejaVuSans-53" x="249.755859"/>
     <use xlink:href="#DejaVuSans-74" x="313.232422"/>
     <use xlink:href="#DejaVuSans-72" x="352.441406"/>
     <use xlink:href="#DejaVuSans-65" x="391.304688"/>
     <use xlink:href="#DejaVuSans-65" x="452.828125"/>
     <use xlink:href="#DejaVuSans-74" x="514.351562"/>
     <use xlink:href="#DejaVuSans-27" x="553.560547"/>
    </g>
   </g>
   <g id="text_27">
    <!-- literal-expr -->
    <g transform="translate(1486.671612 185.296998)scale(0.17 -0.17)">
     <defs>
      <path id="DejaVuSans-2d" d="M 313 2009 
L 1997 2009 
L 1997 1497 
L 313 1497 
L 313 2009 
z
" transform="scale(0.015625)"/>
     </defs>
     <use xlink:href="#DejaVuSans-6c"/>
     <use xlink:href="#DejaVuSans-69" x="27.783203"/>
     <use xlink:href="#DejaVuSans-74" x="55.566406"/>
     <use xlink:href="#DejaVuSans-65" x="94.775391"/>
     <use xlink:href="#DejaVuSans-72" x="156.298828"/>
     <use xlink:href="#DejaVuSans-61" x="197.412109"/>
     <use xlink:href="#DejaVuSans-6c" x="258.691406"/>
     <use xlink:href="#DejaVuSans-2d" x="286.474609"/>
     <use xlink:href="#DejaVuSans-65" x="322.558594"/>
     <use xlink:href="#DejaVuSans-78" x="382.332031"/>
     <use xlink:href="#DejaVuSans-70" x="441.511719"/>
     <use xlink:href="#DejaVuSans-72" x="504.988281"/>
    </g>
   </g>
   <g id="text_28">
    <!-- billingAddress -->
    <g transform="translate(1240.891527 233.781847)scale(0.17 -0.17)">
     <defs>
      <path id="DejaVuSans-67" d="M 2906 1791 
Q 2906 2416 2648 2759 
Q 2391 3103 1925 3103 
Q 1463 3103 1205 2759 
Q 947 2416 947 1791 
Q 947 1169 1205 825 
Q 1463 481 1925 481 
Q 2391 481 2648 825 
Q 2906 1169 2906 1791 
z
M 3481 434 
Q 3481 -459 3084 -895 
Q 2688 -1331 1869 -1331 
Q 1566 -1331 1297 -1286 
Q 1028 -1241 775 -1147 
L 775 -588 
Q 1028 -725 1275 -790 
Q 1522 -856 1778 -856 
Q 2344 -856 2625 -561 
Q 2906 -266 2906 331 
L 2906 616 
Q 2728 306 2450 153 
Q 2172 0 1784 0 
Q 1141 0 747 490 
Q 353 981 353 1791 
Q 353 2603 747 3093 
Q 1141 3584 1784 3584 
Q 2172 3584 2450 3431 
Q 2728 3278 2906 2969 
L 2906 3500 
L 3481 3500 
L 3481 434 
z
" transform="scale(0.015625)"/>
      <path id="DejaVuSans-41" d="M 2188 4044 
L 1331 1722 
L 3047 1722 
L 2188 4044 
z
M 1831 4666 
L 2547 4666 
L 4325 0 
L 3669 0 
L 3244 1197 
L 1141 1197 
L 716 0 
L 50 0 
L 1831 4666 
z
" transform="scale(0.015625)"/>
     </defs>
     <use xlink:href="#DejaVuSans-62"/>
     <use xlink:href="#DejaVuSans-69" x="63.476562"/>
     <use xlink:href="#DejaVuSans-6c" x="91.259766"/>
     <use xlink:href="#DejaVuSans-6c" x="119.042969"/>
     <use xlink:href="#DejaVuSans-69" x="146.826172"/>
     <use xlink:href="#DejaVuSans-6e" x="174.609375"/>
     <use xlink:href="#DejaVuSans-67" x="237.988281"/>
     <use xlink:href="#DejaVuSans-41" x="301.464844"/>
     <use xlink:href="#DejaVuSans-64" x="368.123047"/>
     <use xlink:href="#DejaVuSans-64" x="431.599609"/>
     <use xlink:href="#DejaVuSans-72" x="495.076172"/>
     <use xlink:href="#DejaVuSans-65" x="533.939453"/>
     <use xlink:href="#DejaVuSans-73" x="595.462891"/>
     <use xlink:href="#DejaVuSans-73" x="647.5625"/>
    </g>
   </g>
   <g id="text_29">
    <!-- column-expr -->
    <g transform="translate(1247.004886 282.266695)scale(0.17 -0.17)">
     <use xlink:href="#DejaVuSans-63"/>
     <use xlink:href="#DejaVuSans-6f" x="54.980469"/>
     <use xlink:href="#DejaVuSans-6c" x="116.162109"/>
     <use xlink:href="#DejaVuSans-75" x="143.945312"/>
     <use xlink:href="#DejaVuSans-6d" x="207.324219"/>
     <use xlink:href="#DejaVuSans-6e" x="304.736328"/>
     <use xlink:href="#DejaVuSans-2d" x="368.115234"/>
     <use xlink:href="#DejaVuSans-65" x="404.199219"/>
     <use xlink:href="#DejaVuSans-78" x="463.972656"/>
     <use xlink:href="#DejaVuSans-70" x="523.152344"/>
     <use xlink:href="#DejaVuSans-72" x="586.628906"/>
    </g>
   </g>
   <g id="text_30">
    <!-- = -->
    <g transform="translate(1060.513629 330.751544)scale(0.17 -0.17)">
     <defs>
      <path id="DejaVuSans-3d" d="M 678 2906 
L 4684 2906 
L 4684 2381 
L 678 2381 
L 678 2906 
z
M 678 1631 
L 4684 1631 
L 4684 1100 
L 678 1100 
L 678 1631 
z
" transform="scale(0.015625)"/>
     </defs>
     <use xlink:href="#DejaVuSans-3d"/>
    </g>
   </g>
   <g id="text_31">
    <!-- bin-expr -->
    <g transform="translate(1265.14973 379.236392)scale(0.17 -0.17)">
     <use xlink:href="#DejaVuSans-62"/>
     <use xlink:href="#DejaVuSans-69" x="63.476562"/>
     <use xlink:href="#DejaVuSans-6e" x="91.259766"/>
     <use xlink:href="#DejaVuSans-2d" x="154.638672"/>
     <use xlink:href="#DejaVuSans-65" x="190.722656"/>
     <use xlink:href="#DejaVuSans-78" x="250.496094"/>
     <use xlink:href="#DejaVuSans-70" x="309.675781"/>
     <use xlink:href="#DejaVuSans-72" x="373.152344"/>
    </g>
   </g>
   <g id="text_32">
    <!-- WHERE -->
    <g transform="translate(1036.191676 427.721241)scale(0.17 -0.17)">
     <defs>
      <path id="DejaVuSans-57" d="M 213 4666 
L 850 4666 
L 1831 722 
L 2809 4666 
L 3519 4666 
L 4500 722 
L 5478 4666 
L 6119 4666 
L 4947 0 
L 4153 0 
L 3169 4050 
L 2175 0 
L 1381 0 
L 213 4666 
z
" transform="scale(0.015625)"/>
      <path id="DejaVuSans-48" d="M 628 4666 
L 1259 4666 
L 1259 2753 
L 3553 2753 
L 3553 4666 
L 4184 4666 
L 4184 0 
L 3553 0 
L 3553 2222 
L 1259 2222 
L 1259 0 
L 628 0 
L 628 4666 
z
" transform="scale(0.015625)"/>
      <path id="DejaVuSans-45" d="M 628 4666 
L 3578 4666 
L 3578 4134 
L 1259 4134 
L 1259 2753 
L 3481 2753 
L 3481 2222 
L 1259 2222 
L 1259 531 
L 3634 531 
L 3634 0 
L 628 0 
L 628 4666 
z
" transform="scale(0.015625)"/>
      <path id="DejaVuSans-52" d="M 2841 2188 
Q 3044 2119 3236 1894 
Q 3428 1669 3622 1275 
L 4263 0 
L 3584 0 
L 2988 1197 
Q 2756 1666 2539 1819 
Q 2322 1972 1947 1972 
L 1259 1972 
L 1259 0 
L 628 0 
L 628 4666 
L 2053 4666 
Q 2853 4666 3247 4331 
Q 3641 3997 3641 3322 
Q 3641 2881 3436 2590 
Q 3231 2300 2841 2188 
z
M 1259 4147 
L 1259 2491 
L 2053 2491 
Q 2509 2491 2742 2702 
Q 2975 2913 2975 3322 
Q 2975 3731 2742 3939 
Q 2509 4147 2053 4147 
L 1259 4147 
z
" transform="scale(0.015625)"/>
     </defs>
     <use xlink:href="#DejaVuSans-57"/>
     <use xlink:href="#DejaVuSans-48" x="98.876953"/>
     <use xlink:href="#DejaVuSans-45" x="174.072266"/>
     <use xlink:href="#DejaVuSans-52" x="237.255859"/>
     <use xlink:href="#DejaVuSans-45" x="306.738281"/>
    </g>
   </g>
   <g id="text_33">
    <!-- where-clause -->
    <g transform="translate(1127.542734 476.206089)scale(0.17 -0.17)">
     <use xlink:href="#DejaVuSans-77"/>
     <use xlink:href="#DejaVuSans-68" x="81.787109"/>
     <use xlink:href="#DejaVuSans-65" x="145.166016"/>
     <use xlink:href="#DejaVuSans-72" x="206.689453"/>
     <use xlink:href="#DejaVuSans-65" x="245.552734"/>
     <use xlink:href="#DejaVuSans-2d" x="307.076172"/>
     <use xlink:href="#DejaVuSans-63" x="343.160156"/>
     <use xlink:href="#DejaVuSans-6c" x="398.140625"/>
     <use xlink:href="#DejaVuSans-61" x="425.923828"/>
     <use xlink:href="#DejaVuSans-75" x="487.203125"/>
     <use xlink:href="#DejaVuSans-73" x="550.582031"/>
     <use xlink:href="#DejaVuSans-65" x="602.681641"/>
    </g>
   </g>
   <g id="text_34">
    <!-- invoices -->
    <g transform="translate(916.599368 524.690938)scale(0.17 -0.17)">
     <use xlink:href="#DejaVuSans-69"/>
     <use xlink:href="#DejaVuSans-6e" x="27.783203"/>
     <use xlink:href="#DejaVuSans-76" x="91.162109"/>
     <use xlink:href="#DejaVuSans-6f" x="150.341797"/>
     <use xlink:href="#DejaVuSans-69" x="211.523438"/>
     <use xlink:href="#DejaVuSans-63" x="239.306641"/>
     <use xlink:href="#DejaVuSans-65" x="294.287109"/>
     <use xlink:href="#DejaVuSans-73" x="355.810547"/>
    </g>
   </g>
   <g id="text_35">
    <!-- table -->
    <g transform="translate(929.743821 573.175786)scale(0.17 -0.17)">
     <use xlink:href="#DejaVuSans-74"/>
     <use xlink:href="#DejaVuSans-61" x="39.208984"/>
     <use xlink:href="#DejaVuSans-62" x="100.488281"/>
     <use xlink:href="#DejaVuSans-6c" x="163.964844"/>
     <use xlink:href="#DejaVuSans-65" x="191.748047"/>
    </g>
   </g>
   <g id="text_36">
    <!-- FROM -->
    <g transform="translate(693.725455 621.660634)scale(0.17 -0.17)">
     <defs>
      <path id="DejaVuSans-46" d="M 628 4666 
L 3309 4666 
L 3309 4134 
L 1259 4134 
L 1259 2759 
L 3109 2759 
L 3109 2228 
L 1259 2228 
L 1259 0 
L 628 0 
L 628 4666 
z
" transform="scale(0.015625)"/>
      <path id="DejaVuSans-4f" d="M 2522 4238 
Q 1834 4238 1429 3725 
Q 1025 3213 1025 2328 
Q 1025 1447 1429 934 
Q 1834 422 2522 422 
Q 3209 422 3611 934 
Q 4013 1447 4013 2328 
Q 4013 3213 3611 3725 
Q 3209 4238 2522 4238 
z
M 2522 4750 
Q 3503 4750 4090 4092 
Q 4678 3434 4678 2328 
Q 4678 1225 4090 567 
Q 3503 -91 2522 -91 
Q 1538 -91 948 565 
Q 359 1222 359 2328 
Q 359 3434 948 4092 
Q 1538 4750 2522 4750 
z
" transform="scale(0.015625)"/>
      <path id="DejaVuSans-4d" d="M 628 4666 
L 1569 4666 
L 2759 1491 
L 3956 4666 
L 4897 4666 
L 4897 0 
L 4281 0 
L 4281 4097 
L 3078 897 
L 2444 897 
L 1241 4097 
L 1241 0 
L 628 0 
L 628 4666 
z
" transform="scale(0.015625)"/>
     </defs>
     <use xlink:href="#DejaVuSans-46"/>
     <use xlink:href="#DejaVuSans-52" x="57.519531"/>
     <use xlink:href="#DejaVuSans-4f" x="127.001953"/>
     <use xlink:href="#DejaVuSans-4d" x="205.712891"/>
    </g>
   </g>
   <g id="text_37">
    <!-- from-clause -->
    <g transform="translate(784.777685 670.145483)scale(0.17 -0.17)">
     <use xlink:href="#DejaVuSans-66"/>
     <use xlink:href="#DejaVuSans-72" x="35.205078"/>
     <use xlink:href="#DejaVuSans-6f" x="74.068359"/>
     <use xlink:href="#DejaVuSans-6d" x="135.25"/>
     <use xlink:href="#DejaVuSans-2d" x="232.662109"/>
     <use xlink:href="#DejaVuSans-63" x="268.746094"/>
     <use xlink:href="#DejaVuSans-6c" x="323.726562"/>
     <use xlink:href="#DejaVuSans-61" x="351.509766"/>
     <use xlink:href="#DejaVuSans-75" x="412.789062"/>
     <use xlink:href="#DejaVuSans-73" x="476.167969"/>
     <use xlink:href="#DejaVuSans-65" x="528.267578"/>
    </g>
   </g>
   <g id="text_38">
    <!-- billingAddress -->
    <g transform="translate(542.709709 718.630331)scale(0.17 -0.17)">
     <use xlink:href="#DejaVuSans-62"/>
     <use xlink:href="#DejaVuSans-69" x="63.476562"/>
     <use xlink:href="#DejaVuSans-6c" x="91.259766"/>
     <use xlink:href="#DejaVuSans-6c" x="119.042969"/>
     <use xlink:href="#DejaVuSans-69" x="146.826172"/>
     <use xlink:href="#DejaVuSans-6e" x="174.609375"/>
     <use xlink:href="#DejaVuSans-67" x="237.988281"/>
     <use xlink:href="#DejaVuSans-41" x="301.464844"/>
     <use xlink:href="#DejaVuSans-64" x="368.123047"/>
     <use xlink:href="#DejaVuSans-64" x="431.599609"/>
     <use xlink:href="#DejaVuSans-72" x="495.076172"/>
     <use xlink:href="#DejaVuSans-65" x="533.939453"/>
     <use xlink:href="#DejaVuSans-73" x="595.462891"/>
     <use xlink:href="#DejaVuSans-73" x="647.5625"/>
    </g>
   </g>
   <g id="text_39">
    <!-- column-expr -->
    <g transform="translate(548.823068 767.11518)scale(0.17 -0.17)">
     <use xlink:href="#DejaVuSans-63"/>
     <use xlink:href="#DejaVuSans-6f" x="54.980469"/>
     <use xlink:href="#DejaVuSans-6c" x="116.162109"/>
     <use xlink:href="#DejaVuSans-75" x="143.945312"/>
     <use xlink:href="#DejaVuSans-6d" x="207.324219"/>
     <use xlink:href="#DejaVuSans-6e" x="304.736328"/>
     <use xlink:href="#DejaVuSans-2d" x="368.115234"/>
     <use xlink:href="#DejaVuSans-65" x="404.199219"/>
     <use xlink:href="#DejaVuSans-78" x="463.972656"/>
     <use xlink:href="#DejaVuSans-70" x="523.152344"/>
     <use xlink:href="#DejaVuSans-72" x="586.628906"/>
    </g>
   </g>
   <g id="text_40">
    <!-- result-column -->
    <g transform="translate(543.784162 815.600028)scale(0.17 -0.17)">
     <use xlink:href="#DejaVuSans-72"/>
     <use xlink:href="#DejaVuSans-65" x="38.863281"/>
     <use xlink:href="#DejaVuSans-73" x="100.386719"/>
     <use xlink:href="#DejaVuSans-75" x="152.486328"/>
     <use xlink:href="#DejaVuSans-6c" x="215.865234"/>
     <use xlink:href="#DejaVuSans-74" x="243.648438"/>
     <use xlink:href="#DejaVuSans-2d" x="282.857422"/>
     <use xlink:href="#DejaVuSans-63" x="318.941406"/>
     <use xlink:href="#DejaVuSans-6f" x="373.921875"/>
     <use xlink:href="#DejaVuSans-6c" x="435.103516"/>
     <use xlink:href="#DejaVuSans-75" x="462.886719"/>
     <use xlink:href="#DejaVuSans-6d" x="526.265625"/>
     <use xlink:href="#DejaVuSans-6e" x="623.677734"/>
    </g>
   </g>
   <g id="text_41">
    <!-- invoiceId -->
    <g transform="translate(331.305483 864.084877)scale(0.17 -0.17)">
     <defs>
      <path id="DejaVuSans-49" d="M 628 4666 
L 1259 4666 
L 1259 0 
L 628 0 
L 628 4666 
z
" transform="scale(0.015625)"/>
     </defs>
     <use xlink:href="#DejaVuSans-69"/>
     <use xlink:href="#DejaVuSans-6e" x="27.783203"/>
     <use xlink:href="#DejaVuSans-76" x="91.162109"/>
     <use xlink:href="#DejaVuSans-6f" x="150.341797"/>
     <use xlink:href="#DejaVuSans-69" x="211.523438"/>
     <use xlink:href="#DejaVuSans-63" x="239.306641"/>
     <use xlink:href="#DejaVuSans-65" x="294.287109"/>
     <use xlink:href="#DejaVuSans-49" x="355.810547"/>
     <use xlink:href="#DejaVuSans-64" x="385.302734"/>
    </g>
   </g>
   <g id="text_42">
    <!-- column-expr -->
    <g transform="translate(316.095795 912.569725)scale(0.17 -0.17)">
     <use xlink:href="#DejaVuSans-63"/>
     <use xlink:href="#DejaVuSans-6f" x="54.980469"/>
     <use xlink:href="#DejaVuSans-6c" x="116.162109"/>
     <use xlink:href="#DejaVuSans-75" x="143.945312"/>
     <use xlink:href="#DejaVuSans-6d" x="207.324219"/>
     <use xlink:href="#DejaVuSans-6e" x="304.736328"/>
     <use xlink:href="#DejaVuSans-2d" x="368.115234"/>
     <use xlink:href="#DejaVuSans-65" x="404.199219"/>
     <use xlink:href="#DejaVuSans-78" x="463.972656"/>
     <use xlink:href="#DejaVuSans-70" x="523.152344"/>
     <use xlink:href="#DejaVuSans-72" x="586.628906"/>
    </g>
   </g>
   <g id="text_43">
    <!-- result-column -->
    <g transform="translate(311.056889 961.054574)scale(0.17 -0.17)">
     <use xlink:href="#DejaVuSans-72"/>
     <use xlink:href="#DejaVuSans-65" x="38.863281"/>
     <use xlink:href="#DejaVuSans-73" x="100.386719"/>
     <use xlink:href="#DejaVuSans-75" x="152.486328"/>
     <use xlink:href="#DejaVuSans-6c" x="215.865234"/>
     <use xlink:href="#DejaVuSans-74" x="243.648438"/>
     <use xlink:href="#DejaVuSans-2d" x="282.857422"/>
     <use xlink:href="#DejaVuSans-63" x="318.941406"/>
     <use xlink:href="#DejaVuSans-6f" x="373.921875"/>
     <use xlink:href="#DejaVuSans-6c" x="435.103516"/>
     <use xlink:href="#DejaVuSans-75" x="462.886719"/>
     <use xlink:href="#DejaVuSans-6d" x="526.265625"/>
     <use xlink:href="#DejaVuSans-6e" x="623.677734"/>
    </g>
   </g>
   <g id="text_44">
    <!-- SELECT -->
    <g transform="translate(104.726101 1009.539422)scale(0.17 -0.17)">
     <defs>
      <path id="DejaVuSans-4c" d="M 628 4666 
L 1259 4666 
L 1259 531 
L 3531 531 
L 3531 0 
L 628 0 
L 628 4666 
z
" transform="scale(0.015625)"/>
      <path id="DejaVuSans-43" d="M 4122 4306 
L 4122 3641 
Q 3803 3938 3442 4084 
Q 3081 4231 2675 4231 
Q 1875 4231 1450 3742 
Q 1025 3253 1025 2328 
Q 1025 1406 1450 917 
Q 1875 428 2675 428 
Q 3081 428 3442 575 
Q 3803 722 4122 1019 
L 4122 359 
Q 3791 134 3420 21 
Q 3050 -91 2638 -91 
Q 1578 -91 968 557 
Q 359 1206 359 2328 
Q 359 3453 968 4101 
Q 1578 4750 2638 4750 
Q 3056 4750 3426 4639 
Q 3797 4528 4122 4306 
z
" transform="scale(0.015625)"/>
      <path id="DejaVuSans-54" d="M -19 4666 
L 3928 4666 
L 3928 4134 
L 2272 4134 
L 2272 0 
L 1638 0 
L 1638 4134 
L -19 4134 
L -19 4666 
z
" transform="scale(0.015625)"/>
     </defs>
     <use xlink:href="#DejaVuSans-53"/>
     <use xlink:href="#DejaVuSans-45" x="63.476562"/>
     <use xlink:href="#DejaVuSans-4c" x="126.660156"/>
     <use xlink:href="#DejaVuSans-45" x="182.373047"/>
     <use xlink:href="#DejaVuSans-43" x="245.556641"/>
     <use xlink:href="#DejaVuSans-54" x="315.380859"/>
    </g>
   </g>
   <g id="text_45">
    <!-- select-clause -->
    <g transform="translate(313.843295 1058.024271)scale(0.17 -0.17)">
     <use xlink:href="#DejaVuSans-73"/>
     <use xlink:href="#DejaVuSans-65" x="52.099609"/>
     <use xlink:href="#DejaVuSans-6c" x="113.623047"/>
     <use xlink:href="#DejaVuSans-65" x="141.40625"/>
     <use xlink:href="#DejaVuSans-63" x="202.929688"/>
     <use xlink:href="#DejaVuSans-74" x="257.910156"/>
     <use xlink:href="#DejaVuSans-2d" x="297.119141"/>
     <use xlink:href="#DejaVuSans-63" x="333.203125"/>
     <use xlink:href="#DejaVuSans-6c" x="388.183594"/>
     <use xlink:href="#DejaVuSans-61" x="415.966797"/>
     <use xlink:href="#DejaVuSans-75" x="477.246094"/>
     <use xlink:href="#DejaVuSans-73" x="540.625"/>
     <use xlink:href="#DejaVuSans-65" x="592.724609"/>
    </g>
   </g>
   <g id="text_46">
    <!-- select-core -->
    <g transform="translate(729.997195 1106.509119)scale(0.17 -0.17)">
     <use xlink:href="#DejaVuSans-73"/>
     <use xlink:href="#DejaVuSans-65" x="52.099609"/>
     <use xlink:href="#DejaVuSans-6c" x="113.623047"/>
     <use xlink:href="#DejaVuSans-65" x="141.40625"/>
     <use xlink:href="#DejaVuSans-63" x="202.929688"/>
     <use xlink:href="#DejaVuSans-74" x="257.910156"/>
     <use xlink:href="#DejaVuSans-2d" x="297.119141"/>
     <use xlink:href="#DejaVuSans-63" x="333.203125"/>
     <use xlink:href="#DejaVuSans-6f" x="388.183594"/>
     <use xlink:href="#DejaVuSans-72" x="449.365234"/>
     <use xlink:href="#DejaVuSans-65" x="488.228516"/>
    </g>
   </g>
   <g id="text_47">
    <!-- select_stmt -->
    <g transform="translate(727.849616 1154.757562)scale(0.17 -0.17)">
     <use xlink:href="#DejaVuSans-73"/>
     <use xlink:href="#DejaVuSans-65" x="52.099609"/>
     <use xlink:href="#DejaVuSans-6c" x="113.623047"/>
     <use xlink:href="#DejaVuSans-65" x="141.40625"/>
     <use xlink:href="#DejaVuSans-63" x="202.929688"/>
     <use xlink:href="#DejaVuSans-74" x="257.910156"/>
     <use xlink:href="#DejaVuSans-5f" x="297.119141"/>
     <use xlink:href="#DejaVuSans-73" x="347.119141"/>
     <use xlink:href="#DejaVuSans-74" x="399.21875"/>
     <use xlink:href="#DejaVuSans-6d" x="438.427734"/>
     <use xlink:href="#DejaVuSans-74" x="535.839844"/>
    </g>
   </g>
   <g id="text_48">
    <!-- sql_stmt -->
    <g transform="translate(740.919695 1203.24241)scale(0.17 -0.17)">
     <use xlink:href="#DejaVuSans-73"/>
     <use xlink:href="#DejaVuSans-71" x="52.099609"/>
     <use xlink:href="#DejaVuSans-6c" x="115.576172"/>
     <use xlink:href="#DejaVuSans-5f" x="143.359375"/>
     <use xlink:href="#DejaVuSans-73" x="193.359375"/>
     <use xlink:href="#DejaVuSans-74" x="245.458984"/>
     <use xlink:href="#DejaVuSans-6d" x="284.667969"/>
     <use xlink:href="#DejaVuSans-74" x="382.080078"/>
    </g>
   </g>
   <g id="text_49">
    <!-- sql_stmt_list -->
    <g transform="translate(724.186648 1251.727259)scale(0.17 -0.17)">
     <use xlink:href="#DejaVuSans-73"/>
     <use xlink:href="#DejaVuSans-71" x="52.099609"/>
     <use xlink:href="#DejaVuSans-6c" x="115.576172"/>
     <use xlink:href="#DejaVuSans-5f" x="143.359375"/>
     <use xlink:href="#DejaVuSans-73" x="193.359375"/>
     <use xlink:href="#DejaVuSans-74" x="245.458984"/>
     <use xlink:href="#DejaVuSans-6d" x="284.667969"/>
     <use xlink:href="#DejaVuSans-74" x="382.080078"/>
     <use xlink:href="#DejaVuSans-5f" x="421.289062"/>
     <use xlink:href="#DejaVuSans-6c" x="471.289062"/>
     <use xlink:href="#DejaVuSans-69" x="499.072266"/>
     <use xlink:href="#DejaVuSans-73" x="526.855469"/>
     <use xlink:href="#DejaVuSans-74" x="578.955078"/>
    </g>
   </g>
   <g id="text_50">
    <!-- parse -->
    <g transform="translate(752.969773 1300.448513)scale(0.17 -0.17)">
     <use xlink:href="#DejaVuSans-70"/>
     <use xlink:href="#DejaVuSans-61" x="63.476562"/>
     <use xlink:href="#DejaVuSans-72" x="124.755859"/>
     <use xlink:href="#DejaVuSans-73" x="165.869141"/>
     <use xlink:href="#DejaVuSans-65" x="217.96875"/>
    </g>
   </g>
  </g>
 </g>
 <defs>
  <clipPath id="peb58ba27e8">
   <rect x="0" y="0" width="1728" height="1440"/>
  </clipPath>
 </defs>
</svg>
