<?xml version="1.0" encoding="utf-8" standalone="no"?>
<!DOCTYPE svg PUBLIC "-//W3C//DTD SVG 1.1//EN"
  "http://www.w3.org/Graphics/SVG/1.1/DTD/svg11.dtd">
<svg xmlns:xlink="http://www.w3.org/1999/xlink" width="1080pt" height="1440pt" viewBox="0 0 1080 1440" xmlns="http://www.w3.org/2000/svg" version="1.1">
 <metadata>
  <rdf:RDF xmlns:dc="http://purl.org/dc/elements/1.1/" xmlns:cc="http://creativecommons.org/ns#" xmlns:rdf="http://www.w3.org/1999/02/22-rdf-syntax-ns#">
   <cc:Work>
    <dc:type rdf:resource="http://purl.org/dc/dcmitype/StillImage"/>
    <dc:date>2022-10-21T15:13:32.716054</dc:date>
    <dc:format>image/svg+xml</dc:format>
    <dc:creator>
     <cc:Agent>
      <dc:title>Matplotlib v3.5.1, https://matplotlib.org/</dc:title>
     </cc:Agent>
    </dc:creator>
   </cc:Work>
  </rdf:RDF>
 </metadata>
 <defs>
  <style type="text/css">*{stroke-linejoin: round; stroke-linecap: butt}</style>
 </defs>
 <g id="figure_1">
  <g id="patch_1">
   <path d="M 0 1440 
L 1080 1440 
L 1080 0 
L 0 0 
z
" style="fill: #ffffff"/>
  </g>
  <g id="axes_1">
   <g id="patch_2">
    <path d="M 193.475936 120 
Q 193.475936 479.493671 193.475936 479.493671 
" clip-path="url(#p3f5d0b688c)" style="fill: none; stroke: #000000; stroke-linejoin: miter"/>
   </g>
   <g id="patch_3">
    <path d="M 540 150.379747 
Q 540 160.506329 540 160.506329 
" clip-path="url(#p3f5d0b688c)" style="fill: none; stroke: #000000; stroke-linejoin: miter"/>
   </g>
   <g id="patch_4">
    <path d="M 540 185.822785 
Q 540 266.835443 540 266.835443 
" clip-path="url(#p3f5d0b688c)" style="fill: none; stroke: #000000; stroke-linejoin: miter"/>
   </g>
   <g id="patch_5">
    <path d="M 886.524064 221.265823 
Q 886.524064 231.392405 886.524064 231.392405 
" clip-path="url(#p3f5d0b688c)" style="fill: none; stroke: #000000; stroke-linejoin: miter"/>
   </g>
   <g id="patch_6">
    <path d="M 886.524064 256.708861 
Q 886.524064 302.278481 886.524064 302.278481 
" clip-path="url(#p3f5d0b688c)" style="fill: none; stroke: #000000; stroke-linejoin: miter"/>
   </g>
   <g id="patch_7">
    <path d="M 540 292.151899 
Q 540 337.721519 540 337.721519 
" clip-path="url(#p3f5d0b688c)" style="fill: none; stroke: #000000; stroke-linejoin: miter"/>
   </g>
   <g id="patch_8">
    <path d="M 886.524064 327.594937 
Q 886.524064 337.721519 886.524064 337.721519 
" clip-path="url(#p3f5d0b688c)" style="fill: none; stroke: #000000; stroke-linejoin: miter"/>
   </g>
   <g id="patch_9">
    <path d="M 540 363.037975 
Q 540 373.164557 540 373.164557 
" clip-path="url(#p3f5d0b688c)" style="fill: none; stroke: #000000; stroke-linejoin: miter"/>
   </g>
   <g id="patch_10">
    <path d="M 886.524064 363.037975 
Q 886.524064 408.607595 886.524064 408.607595 
" clip-path="url(#p3f5d0b688c)" style="fill: none; stroke: #000000; stroke-linejoin: miter"/>
   </g>
   <g id="patch_11">
    <path d="M 540 398.481013 
Q 540 514.936709 540 514.936709 
" clip-path="url(#p3f5d0b688c)" style="fill: none; stroke: #000000; stroke-linejoin: miter"/>
   </g>
   <g id="patch_12">
    <path d="M 886.524064 433.924051 
Q 886.524064 444.050633 886.524064 444.050633 
" clip-path="url(#p3f5d0b688c)" style="fill: none; stroke: #000000; stroke-linejoin: miter"/>
   </g>
   <g id="patch_13">
    <path d="M 193.475936 504.810127 
Q 193.475936 550.379747 193.475936 550.379747 
" clip-path="url(#p3f5d0b688c)" style="fill: none; stroke: #000000; stroke-linejoin: miter"/>
   </g>
   <g id="patch_14">
    <path d="M 540 540.253165 
Q 540 550.379747 540 550.379747 
" clip-path="url(#p3f5d0b688c)" style="fill: none; stroke: #000000; stroke-linejoin: miter"/>
   </g>
   <g id="patch_15">
    <path d="M 193.475936 575.696203 
Q 193.475936 585.822785 193.475936 585.822785 
" clip-path="url(#p3f5d0b688c)" style="fill: none; stroke: #000000; stroke-linejoin: miter"/>
   </g>
   <g id="patch_16">
    <path d="M 540 575.696203 
Q 540 621.265823 540 621.265823 
" clip-path="url(#p3f5d0b688c)" style="fill: none; stroke: #000000; stroke-linejoin: miter"/>
   </g>
   <g id="patch_17">
    <path d="M 193.475936 611.139241 
Q 193.475936 763.037975 193.475936 763.037975 
" clip-path="url(#p3f5d0b688c)" style="fill: none; stroke: #000000; stroke-linejoin: miter"/>
   </g>
   <g id="patch_18">
    <path d="M 540 646.582278 
Q 540 656.708861 540 656.708861 
" clip-path="url(#p3f5d0b688c)" style="fill: none; stroke: #000000; stroke-linejoin: miter"/>
   </g>
   <g id="patch_19">
    <path d="M 540 717.468354 
Q 540 727.594937 540 727.594937 
" clip-path="url(#p3f5d0b688c)" style="fill: none; stroke: #000000; stroke-linejoin: miter"/>
   </g>
   <g id="patch_20">
    <path d="M 540 752.911392 
Q 540 798.481013 540 798.481013 
" clip-path="url(#p3f5d0b688c)" style="fill: none; stroke: #000000; stroke-linejoin: miter"/>
   </g>
   <g id="patch_21">
    <path d="M 193.475936 788.35443 
Q 193.475936 833.924051 193.475936 833.924051 
" clip-path="url(#p3f5d0b688c)" style="fill: none; stroke: #000000; stroke-linejoin: miter"/>
   </g>
   <g id="patch_22">
    <path d="M 540 823.797468 
Q 540 833.924051 540 833.924051 
" clip-path="url(#p3f5d0b688c)" style="fill: none; stroke: #000000; stroke-linejoin: miter"/>
   </g>
   <g id="patch_23">
    <path d="M 193.475936 859.240506 
Q 193.475936 869.367089 193.475936 869.367089 
" clip-path="url(#p3f5d0b688c)" style="fill: none; stroke: #000000; stroke-linejoin: miter"/>
   </g>
   <g id="patch_24">
    <path d="M 540 859.240506 
Q 540 904.810127 540 904.810127 
" clip-path="url(#p3f5d0b688c)" style="fill: none; stroke: #000000; stroke-linejoin: miter"/>
   </g>
   <g id="patch_25">
    <path d="M 193.475936 894.683544 
Q 193.475936 1117.468354 193.475936 1117.468354 
" clip-path="url(#p3f5d0b688c)" style="fill: none; stroke: #000000; stroke-linejoin: miter"/>
   </g>
   <g id="patch_26">
    <path d="M 540 930.126582 
Q 540 940.253165 540 940.253165 
" clip-path="url(#p3f5d0b688c)" style="fill: none; stroke: #000000; stroke-linejoin: miter"/>
   </g>
   <g id="patch_27">
    <path d="M 540 1001.012658 
Q 540 1011.139241 540 1011.139241 
" clip-path="url(#p3f5d0b688c)" style="fill: none; stroke: #000000; stroke-linejoin: miter"/>
   </g>
   <g id="patch_28">
    <path d="M 540 1036.455696 
Q 540 1117.468354 540 1117.468354 
" clip-path="url(#p3f5d0b688c)" style="fill: none; stroke: #000000; stroke-linejoin: miter"/>
   </g>
   <g id="patch_29">
    <path d="M 886.524064 1071.898734 
Q 886.524064 1082.025316 886.524064 1082.025316 
" clip-path="url(#p3f5d0b688c)" style="fill: none; stroke: #000000; stroke-linejoin: miter"/>
   </g>
   <g id="patch_30">
    <path d="M 886.524064 1107.341772 
Q 886.524064 1152.911392 886.524064 1152.911392 
" clip-path="url(#p3f5d0b688c)" style="fill: none; stroke: #000000; stroke-linejoin: miter"/>
   </g>
   <g id="patch_31">
    <path d="M 193.475936 1142.78481 
Q 193.475936 1188.35443 193.475936 1188.35443 
" clip-path="url(#p3f5d0b688c)" style="fill: none; stroke: #000000; stroke-linejoin: miter"/>
   </g>
   <g id="patch_32">
    <path d="M 540 1142.78481 
Q 540 1152.911392 540 1152.911392 
" clip-path="url(#p3f5d0b688c)" style="fill: none; stroke: #000000; stroke-linejoin: miter"/>
   </g>
   <g id="patch_33">
    <path d="M 540 1178.227848 
Q 540 1223.797468 540 1223.797468 
" clip-path="url(#p3f5d0b688c)" style="fill: none; stroke: #000000; stroke-linejoin: miter"/>
   </g>
   <g id="patch_34">
    <path d="M 886.524064 1178.227848 
Q 886.524064 1259.240506 886.524064 1259.240506 
" clip-path="url(#p3f5d0b688c)" style="fill: none; stroke: #000000; stroke-linejoin: miter"/>
   </g>
   <g id="patch_35">
    <path d="M 193.475936 1213.670886 
Q 193.475936 1294.683544 193.475936 1294.683544 
" clip-path="url(#p3f5d0b688c)" style="fill: none; stroke: #000000; stroke-linejoin: miter"/>
   </g>
   <g id="patch_36">
    <path d="M 540 1249.113924 
Q 540 1294.683544 540 1294.683544 
" clip-path="url(#p3f5d0b688c)" style="fill: none; stroke: #000000; stroke-linejoin: miter"/>
   </g>
   <g id="patch_37">
    <path d="M 886.524064 1284.556962 
Q 886.524064 1294.683544 886.524064 1294.683544 
" clip-path="url(#p3f5d0b688c)" style="fill: none; stroke: #000000; stroke-linejoin: miter"/>
   </g>
   <g id="patch_38">
    <path d="M 395.614973 150.379747 
L 684.385027 150.379747 
L 540 125.063291 
z
" clip-path="url(#p3f5d0b688c)" style="fill: #ffffff; stroke: #000000; stroke-linejoin: miter"/>
   </g>
   <g id="patch_39">
    <path d="M 395.614973 185.822785 
L 684.385027 185.822785 
L 684.385027 160.506329 
L 395.614973 160.506329 
z
" clip-path="url(#p3f5d0b688c)" style="fill: #ffffff; stroke: #000000; stroke-linejoin: miter"/>
   </g>
   <g id="patch_40">
    <path d="M 742.139037 221.265823 
L 1030.909091 221.265823 
L 886.524064 195.949367 
z
" clip-path="url(#p3f5d0b688c)" style="fill: #ffffff; stroke: #000000; stroke-linejoin: miter"/>
   </g>
   <g id="patch_41">
    <path d="M 742.139037 256.708861 
L 1030.909091 256.708861 
L 1030.909091 231.392405 
L 742.139037 231.392405 
z
" clip-path="url(#p3f5d0b688c)" style="fill: #ffffff; stroke: #000000; stroke-linejoin: miter"/>
   </g>
   <g id="patch_42">
    <path d="M 395.614973 292.151899 
L 684.385027 292.151899 
L 684.385027 266.835443 
L 395.614973 266.835443 
z
" clip-path="url(#p3f5d0b688c)" style="fill: #ffffff; stroke: #000000; stroke-linejoin: miter"/>
   </g>
   <g id="patch_43">
    <path d="M 742.139037 327.594937 
L 1030.909091 327.594937 
L 1030.909091 302.278481 
L 742.139037 302.278481 
z
" clip-path="url(#p3f5d0b688c)" style="fill: #ffffff; stroke: #000000; stroke-linejoin: miter"/>
   </g>
   <g id="patch_44">
    <path d="M 742.139037 363.037975 
L 1030.909091 363.037975 
L 1030.909091 337.721519 
L 742.139037 337.721519 
z
" clip-path="url(#p3f5d0b688c)" style="fill: #ffffff; stroke: #000000; stroke-linejoin: miter"/>
   </g>
   <g id="patch_45">
    <path d="M 540 337.721519 
Q 540 363.037975 540 363.037975 
" clip-path="url(#p3f5d0b688c)" style="fill: none; stroke: #000000; stroke-linejoin: miter"/>
   </g>
   <g id="patch_46">
    <path d="M 540 350.379747 
Q 742.139037 350.379747 742.139037 350.379747 
" clip-path="url(#p3f5d0b688c)" style="fill: none; stroke: #000000; stroke-linejoin: miter"/>
   </g>
   <g id="PathCollection_1">
    <defs>
     <path id="mbcc4100f99" d="M 0 3.940178 
C 1.044947 3.940178 2.047237 3.525016 2.786126 2.786126 
C 3.525016 2.047237 3.940178 1.044947 3.940178 0 
C 3.940178 -1.044947 3.525016 -2.047237 2.786126 -2.786126 
C 2.047237 -3.525016 1.044947 -3.940178 0 -3.940178 
C -1.044947 -3.940178 -2.047237 -3.525016 -2.786126 -2.786126 
C -3.525016 -2.047237 -3.940178 -1.044947 -3.940178 0 
C -3.940178 1.044947 -3.525016 2.047237 -2.786126 2.786126 
C -2.047237 3.525016 -1.044947 3.940178 0 3.940178 
z
" style="stroke: #000000"/>
    </defs>
    <g clip-path="url(#p3f5d0b688c)">
     <use xlink:href="#mbcc4100f99" x="540" y="350.379747" style="stroke: #000000"/>
    </g>
   </g>
   <g id="patch_47">
    <path d="M 395.614973 398.481013 
L 684.385027 398.481013 
L 684.385027 373.164557 
L 395.614973 373.164557 
z
" clip-path="url(#p3f5d0b688c)" style="fill: #ffffff; stroke: #000000; stroke-linejoin: miter"/>
   </g>
   <g id="patch_48">
    <path d="M 742.139037 433.924051 
L 1030.909091 433.924051 
L 1030.909091 408.607595 
L 742.139037 408.607595 
z
" clip-path="url(#p3f5d0b688c)" style="fill: #ffffff; stroke: #000000; stroke-linejoin: miter"/>
   </g>
   <g id="patch_49">
    <path d="M 742.139037 444.050633 
L 1030.909091 444.050633 
L 886.524064 469.367089 
z
" clip-path="url(#p3f5d0b688c)" style="fill: #ffffff; stroke: #000000; stroke-linejoin: miter"/>
   </g>
   <g id="patch_50">
    <path d="M 49.090909 504.810127 
L 337.860963 504.810127 
L 337.860963 479.493671 
L 49.090909 479.493671 
z
" clip-path="url(#p3f5d0b688c)" style="fill: #ffffff; stroke: #000000; stroke-linejoin: miter"/>
   </g>
   <g id="patch_51">
    <path d="M 395.614973 540.253165 
L 684.385027 540.253165 
L 684.385027 514.936709 
L 395.614973 514.936709 
z
" clip-path="url(#p3f5d0b688c)" style="fill: #ffffff; stroke: #000000; stroke-linejoin: miter"/>
   </g>
   <g id="patch_52">
    <path d="M 395.614973 575.696203 
L 684.385027 575.696203 
L 684.385027 550.379747 
L 395.614973 550.379747 
z
" clip-path="url(#p3f5d0b688c)" style="fill: #ffffff; stroke: #000000; stroke-linejoin: miter"/>
   </g>
   <g id="patch_53">
    <path d="M 193.475936 550.379747 
Q 193.475936 575.696203 193.475936 575.696203 
" clip-path="url(#p3f5d0b688c)" style="fill: none; stroke: #000000; stroke-linejoin: miter"/>
   </g>
   <g id="patch_54">
    <path d="M 193.475936 563.037975 
Q 395.614973 563.037975 395.614973 563.037975 
" clip-path="url(#p3f5d0b688c)" style="fill: none; stroke: #000000; stroke-linejoin: miter"/>
   </g>
   <g id="PathCollection_2">
    <g clip-path="url(#p3f5d0b688c)">
     <use xlink:href="#mbcc4100f99" x="193.475936" y="563.037975" style="stroke: #000000"/>
    </g>
   </g>
   <g id="patch_55">
    <path d="M 49.090909 611.139241 
L 337.860963 611.139241 
L 337.860963 585.822785 
L 49.090909 585.822785 
z
" clip-path="url(#p3f5d0b688c)" style="fill: #ffffff; stroke: #000000; stroke-linejoin: miter"/>
   </g>
   <g id="patch_56">
    <path d="M 395.614973 646.582278 
L 684.385027 646.582278 
L 684.385027 621.265823 
L 395.614973 621.265823 
z
" clip-path="url(#p3f5d0b688c)" style="fill: #ffffff; stroke: #000000; stroke-linejoin: miter"/>
   </g>
   <g id="patch_57">
    <path d="M 395.614973 656.708861 
L 684.385027 656.708861 
L 540 682.025316 
z
" clip-path="url(#p3f5d0b688c)" style="fill: #ffffff; stroke: #000000; stroke-linejoin: miter"/>
   </g>
   <g id="patch_58">
    <path d="M 395.614973 717.468354 
L 684.385027 717.468354 
L 540 692.151899 
z
" clip-path="url(#p3f5d0b688c)" style="fill: #ffffff; stroke: #000000; stroke-linejoin: miter"/>
   </g>
   <g id="patch_59">
    <path d="M 395.614973 752.911392 
L 684.385027 752.911392 
L 684.385027 727.594937 
L 395.614973 727.594937 
z
" clip-path="url(#p3f5d0b688c)" style="fill: #ffffff; stroke: #000000; stroke-linejoin: miter"/>
   </g>
   <g id="patch_60">
    <path d="M 49.090909 788.35443 
L 337.860963 788.35443 
L 337.860963 763.037975 
L 49.090909 763.037975 
z
" clip-path="url(#p3f5d0b688c)" style="fill: #ffffff; stroke: #000000; stroke-linejoin: miter"/>
   </g>
   <g id="patch_61">
    <path d="M 395.614973 823.797468 
L 684.385027 823.797468 
L 684.385027 798.481013 
L 395.614973 798.481013 
z
" clip-path="url(#p3f5d0b688c)" style="fill: #ffffff; stroke: #000000; stroke-linejoin: miter"/>
   </g>
   <g id="patch_62">
    <path d="M 395.614973 859.240506 
L 684.385027 859.240506 
L 684.385027 833.924051 
L 395.614973 833.924051 
z
" clip-path="url(#p3f5d0b688c)" style="fill: #ffffff; stroke: #000000; stroke-linejoin: miter"/>
   </g>
   <g id="patch_63">
    <path d="M 193.475936 833.924051 
Q 193.475936 859.240506 193.475936 859.240506 
" clip-path="url(#p3f5d0b688c)" style="fill: none; stroke: #000000; stroke-linejoin: miter"/>
   </g>
   <g id="patch_64">
    <path d="M 193.475936 846.582278 
Q 395.614973 846.582278 395.614973 846.582278 
" clip-path="url(#p3f5d0b688c)" style="fill: none; stroke: #000000; stroke-linejoin: miter"/>
   </g>
   <g id="PathCollection_3">
    <g clip-path="url(#p3f5d0b688c)">
     <use xlink:href="#mbcc4100f99" x="193.475936" y="846.582278" style="stroke: #000000"/>
    </g>
   </g>
   <g id="patch_65">
    <path d="M 49.090909 894.683544 
L 337.860963 894.683544 
L 337.860963 869.367089 
L 49.090909 869.367089 
z
" clip-path="url(#p3f5d0b688c)" style="fill: #ffffff; stroke: #000000; stroke-linejoin: miter"/>
   </g>
   <g id="patch_66">
    <path d="M 395.614973 930.126582 
L 684.385027 930.126582 
L 684.385027 904.810127 
L 395.614973 904.810127 
z
" clip-path="url(#p3f5d0b688c)" style="fill: #ffffff; stroke: #000000; stroke-linejoin: miter"/>
   </g>
   <g id="patch_67">
    <path d="M 395.614973 940.253165 
L 684.385027 940.253165 
L 540 965.56962 
z
" clip-path="url(#p3f5d0b688c)" style="fill: #ffffff; stroke: #000000; stroke-linejoin: miter"/>
   </g>
   <g id="patch_68">
    <path d="M 395.614973 1001.012658 
L 684.385027 1001.012658 
L 540 975.696203 
z
" clip-path="url(#p3f5d0b688c)" style="fill: #ffffff; stroke: #000000; stroke-linejoin: miter"/>
   </g>
   <g id="patch_69">
    <path d="M 395.614973 1036.455696 
L 684.385027 1036.455696 
L 684.385027 1011.139241 
L 395.614973 1011.139241 
z
" clip-path="url(#p3f5d0b688c)" style="fill: #ffffff; stroke: #000000; stroke-linejoin: miter"/>
   </g>
   <g id="patch_70">
    <path d="M 742.139037 1071.898734 
L 1030.909091 1071.898734 
L 886.524064 1046.582278 
z
" clip-path="url(#p3f5d0b688c)" style="fill: #ffffff; stroke: #000000; stroke-linejoin: miter"/>
   </g>
   <g id="patch_71">
    <path d="M 742.139037 1107.341772 
L 1030.909091 1107.341772 
L 1030.909091 1082.025316 
L 742.139037 1082.025316 
z
" clip-path="url(#p3f5d0b688c)" style="fill: #ffffff; stroke: #000000; stroke-linejoin: miter"/>
   </g>
   <g id="patch_72">
    <path d="M 395.614973 1142.78481 
L 684.385027 1142.78481 
L 684.385027 1117.468354 
L 395.614973 1117.468354 
z
" clip-path="url(#p3f5d0b688c)" style="fill: #ffffff; stroke: #000000; stroke-linejoin: miter"/>
   </g>
   <g id="patch_73">
    <path d="M 193.475936 1117.468354 
Q 193.475936 1142.78481 193.475936 1142.78481 
" clip-path="url(#p3f5d0b688c)" style="fill: none; stroke: #000000; stroke-linejoin: miter"/>
   </g>
   <g id="patch_74">
    <path d="M 193.475936 1130.126582 
Q 395.614973 1130.126582 395.614973 1130.126582 
" clip-path="url(#p3f5d0b688c)" style="fill: none; stroke: #000000; stroke-linejoin: miter"/>
   </g>
   <g id="PathCollection_4">
    <g clip-path="url(#p3f5d0b688c)">
     <use xlink:href="#mbcc4100f99" x="193.475936" y="1130.126582" style="stroke: #000000"/>
    </g>
   </g>
   <g id="patch_75">
    <path d="M 742.139037 1178.227848 
L 1030.909091 1178.227848 
L 1030.909091 1152.911392 
L 742.139037 1152.911392 
z
" clip-path="url(#p3f5d0b688c)" style="fill: #ffffff; stroke: #000000; stroke-linejoin: miter"/>
   </g>
   <g id="patch_76">
    <path d="M 540 1152.911392 
Q 540 1178.227848 540 1178.227848 
" clip-path="url(#p3f5d0b688c)" style="fill: none; stroke: #000000; stroke-linejoin: miter"/>
   </g>
   <g id="patch_77">
    <path d="M 540 1165.56962 
Q 742.139037 1165.56962 742.139037 1165.56962 
" clip-path="url(#p3f5d0b688c)" style="fill: none; stroke: #000000; stroke-linejoin: miter"/>
   </g>
   <g id="PathCollection_5">
    <g clip-path="url(#p3f5d0b688c)">
     <use xlink:href="#mbcc4100f99" x="540" y="1165.56962" style="stroke: #000000"/>
    </g>
   </g>
   <g id="patch_78">
    <path d="M 49.090909 1213.670886 
L 337.860963 1213.670886 
L 337.860963 1188.35443 
L 49.090909 1188.35443 
z
" clip-path="url(#p3f5d0b688c)" style="fill: #ffffff; stroke: #000000; stroke-linejoin: miter"/>
   </g>
   <g id="patch_79">
    <path d="M 395.614973 1249.113924 
L 684.385027 1249.113924 
L 684.385027 1223.797468 
L 395.614973 1223.797468 
z
" clip-path="url(#p3f5d0b688c)" style="fill: #ffffff; stroke: #000000; stroke-linejoin: miter"/>
   </g>
   <g id="patch_80">
    <path d="M 742.139037 1284.556962 
L 1030.909091 1284.556962 
L 1030.909091 1259.240506 
L 742.139037 1259.240506 
z
" clip-path="url(#p3f5d0b688c)" style="fill: #ffffff; stroke: #000000; stroke-linejoin: miter"/>
   </g>
   <g id="patch_81">
    <path d="M 49.090909 1294.683544 
L 337.860963 1294.683544 
L 193.475936 1320 
z
" clip-path="url(#p3f5d0b688c)" style="fill: #ffffff; stroke: #000000; stroke-linejoin: miter"/>
   </g>
   <g id="patch_82">
    <path d="M 395.614973 1294.683544 
L 684.385027 1294.683544 
L 540 1320 
z
" clip-path="url(#p3f5d0b688c)" style="fill: #ffffff; stroke: #000000; stroke-linejoin: miter"/>
   </g>
   <g id="patch_83">
    <path d="M 742.139037 1294.683544 
L 1030.909091 1294.683544 
L 886.524064 1320 
z
" clip-path="url(#p3f5d0b688c)" style="fill: #ffffff; stroke: #000000; stroke-linejoin: miter"/>
   </g>
   <g id="text_1">
    <!-- 0 -->
    <g transform="translate(534.591875 144.944102)scale(0.17 -0.17)">
     <defs>
      <path id="DejaVuSans-30" d="M 2034 4250 
Q 1547 4250 1301 3770 
Q 1056 3291 1056 2328 
Q 1056 1369 1301 889 
Q 1547 409 2034 409 
Q 2525 409 2770 889 
Q 3016 1369 3016 2328 
Q 3016 3291 2770 3770 
Q 2525 4250 2034 4250 
z
M 2034 4750 
Q 2819 4750 3233 4129 
Q 3647 3509 3647 2328 
Q 3647 1150 3233 529 
Q 2819 -91 2034 -91 
Q 1250 -91 836 529 
Q 422 1150 422 2328 
Q 422 3509 836 4129 
Q 1250 4750 2034 4750 
z
" transform="scale(0.015625)"/>
     </defs>
     <use xlink:href="#DejaVuSans-30"/>
    </g>
   </g>
   <g id="text_2">
    <!-- Rx('Whiskers'__n.l_0) -->
    <g transform="translate(450.803125 177.619088)scale(0.17 -0.17)">
     <defs>
      <path id="DejaVuSans-52" d="M 2841 2188 
Q 3044 2119 3236 1894 
Q 3428 1669 3622 1275 
L 4263 0 
L 3584 0 
L 2988 1197 
Q 2756 1666 2539 1819 
Q 2322 1972 1947 1972 
L 1259 1972 
L 1259 0 
L 628 0 
L 628 4666 
L 2053 4666 
Q 2853 4666 3247 4331 
Q 3641 3997 3641 3322 
Q 3641 2881 3436 2590 
Q 3231 2300 2841 2188 
z
M 1259 4147 
L 1259 2491 
L 2053 2491 
Q 2509 2491 2742 2702 
Q 2975 2913 2975 3322 
Q 2975 3731 2742 3939 
Q 2509 4147 2053 4147 
L 1259 4147 
z
" transform="scale(0.015625)"/>
      <path id="DejaVuSans-78" d="M 3513 3500 
L 2247 1797 
L 3578 0 
L 2900 0 
L 1881 1375 
L 863 0 
L 184 0 
L 1544 1831 
L 300 3500 
L 978 3500 
L 1906 2253 
L 2834 3500 
L 3513 3500 
z
" transform="scale(0.015625)"/>
      <path id="DejaVuSans-28" d="M 1984 4856 
Q 1566 4138 1362 3434 
Q 1159 2731 1159 2009 
Q 1159 1288 1364 580 
Q 1569 -128 1984 -844 
L 1484 -844 
Q 1016 -109 783 600 
Q 550 1309 550 2009 
Q 550 2706 781 3412 
Q 1013 4119 1484 4856 
L 1984 4856 
z
" transform="scale(0.015625)"/>
      <path id="DejaVuSans-27" d="M 1147 4666 
L 1147 2931 
L 616 2931 
L 616 4666 
L 1147 4666 
z
" transform="scale(0.015625)"/>
      <path id="DejaVuSans-57" d="M 213 4666 
L 850 4666 
L 1831 722 
L 2809 4666 
L 3519 4666 
L 4500 722 
L 5478 4666 
L 6119 4666 
L 4947 0 
L 4153 0 
L 3169 4050 
L 2175 0 
L 1381 0 
L 213 4666 
z
" transform="scale(0.015625)"/>
      <path id="DejaVuSans-68" d="M 3513 2113 
L 3513 0 
L 2938 0 
L 2938 2094 
Q 2938 2591 2744 2837 
Q 2550 3084 2163 3084 
Q 1697 3084 1428 2787 
Q 1159 2491 1159 1978 
L 1159 0 
L 581 0 
L 581 4863 
L 1159 4863 
L 1159 2956 
Q 1366 3272 1645 3428 
Q 1925 3584 2291 3584 
Q 2894 3584 3203 3211 
Q 3513 2838 3513 2113 
z
" transform="scale(0.015625)"/>
      <path id="DejaVuSans-69" d="M 603 3500 
L 1178 3500 
L 1178 0 
L 603 0 
L 603 3500 
z
M 603 4863 
L 1178 4863 
L 1178 4134 
L 603 4134 
L 603 4863 
z
" transform="scale(0.015625)"/>
      <path id="DejaVuSans-73" d="M 2834 3397 
L 2834 2853 
Q 2591 2978 2328 3040 
Q 2066 3103 1784 3103 
Q 1356 3103 1142 2972 
Q 928 2841 928 2578 
Q 928 2378 1081 2264 
Q 1234 2150 1697 2047 
L 1894 2003 
Q 2506 1872 2764 1633 
Q 3022 1394 3022 966 
Q 3022 478 2636 193 
Q 2250 -91 1575 -91 
Q 1294 -91 989 -36 
Q 684 19 347 128 
L 347 722 
Q 666 556 975 473 
Q 1284 391 1588 391 
Q 1994 391 2212 530 
Q 2431 669 2431 922 
Q 2431 1156 2273 1281 
Q 2116 1406 1581 1522 
L 1381 1569 
Q 847 1681 609 1914 
Q 372 2147 372 2553 
Q 372 3047 722 3315 
Q 1072 3584 1716 3584 
Q 2034 3584 2315 3537 
Q 2597 3491 2834 3397 
z
" transform="scale(0.015625)"/>
      <path id="DejaVuSans-6b" d="M 581 4863 
L 1159 4863 
L 1159 1991 
L 2875 3500 
L 3609 3500 
L 1753 1863 
L 3688 0 
L 2938 0 
L 1159 1709 
L 1159 0 
L 581 0 
L 581 4863 
z
" transform="scale(0.015625)"/>
      <path id="DejaVuSans-65" d="M 3597 1894 
L 3597 1613 
L 953 1613 
Q 991 1019 1311 708 
Q 1631 397 2203 397 
Q 2534 397 2845 478 
Q 3156 559 3463 722 
L 3463 178 
Q 3153 47 2828 -22 
Q 2503 -91 2169 -91 
Q 1331 -91 842 396 
Q 353 884 353 1716 
Q 353 2575 817 3079 
Q 1281 3584 2069 3584 
Q 2775 3584 3186 3129 
Q 3597 2675 3597 1894 
z
M 3022 2063 
Q 3016 2534 2758 2815 
Q 2500 3097 2075 3097 
Q 1594 3097 1305 2825 
Q 1016 2553 972 2059 
L 3022 2063 
z
" transform="scale(0.015625)"/>
      <path id="DejaVuSans-72" d="M 2631 2963 
Q 2534 3019 2420 3045 
Q 2306 3072 2169 3072 
Q 1681 3072 1420 2755 
Q 1159 2438 1159 1844 
L 1159 0 
L 581 0 
L 581 3500 
L 1159 3500 
L 1159 2956 
Q 1341 3275 1631 3429 
Q 1922 3584 2338 3584 
Q 2397 3584 2469 3576 
Q 2541 3569 2628 3553 
L 2631 2963 
z
" transform="scale(0.015625)"/>
      <path id="DejaVuSans-5f" d="M 3263 -1063 
L 3263 -1509 
L -63 -1509 
L -63 -1063 
L 3263 -1063 
z
" transform="scale(0.015625)"/>
      <path id="DejaVuSans-6e" d="M 3513 2113 
L 3513 0 
L 2938 0 
L 2938 2094 
Q 2938 2591 2744 2837 
Q 2550 3084 2163 3084 
Q 1697 3084 1428 2787 
Q 1159 2491 1159 1978 
L 1159 0 
L 581 0 
L 581 3500 
L 1159 3500 
L 1159 2956 
Q 1366 3272 1645 3428 
Q 1925 3584 2291 3584 
Q 2894 3584 3203 3211 
Q 3513 2838 3513 2113 
z
" transform="scale(0.015625)"/>
      <path id="DejaVuSans-2e" d="M 684 794 
L 1344 794 
L 1344 0 
L 684 0 
L 684 794 
z
" transform="scale(0.015625)"/>
      <path id="DejaVuSans-6c" d="M 603 4863 
L 1178 4863 
L 1178 0 
L 603 0 
L 603 4863 
z
" transform="scale(0.015625)"/>
      <path id="DejaVuSans-29" d="M 513 4856 
L 1013 4856 
Q 1481 4119 1714 3412 
Q 1947 2706 1947 2009 
Q 1947 1309 1714 600 
Q 1481 -109 1013 -844 
L 513 -844 
Q 928 -128 1133 580 
Q 1338 1288 1338 2009 
Q 1338 2731 1133 3434 
Q 928 4138 513 4856 
z
" transform="scale(0.015625)"/>
     </defs>
     <use xlink:href="#DejaVuSans-52"/>
     <use xlink:href="#DejaVuSans-78" x="69.482422"/>
     <use xlink:href="#DejaVuSans-28" x="128.662109"/>
     <use xlink:href="#DejaVuSans-27" x="167.675781"/>
     <use xlink:href="#DejaVuSans-57" x="195.166016"/>
     <use xlink:href="#DejaVuSans-68" x="294.042969"/>
     <use xlink:href="#DejaVuSans-69" x="357.421875"/>
     <use xlink:href="#DejaVuSans-73" x="385.205078"/>
     <use xlink:href="#DejaVuSans-6b" x="437.304688"/>
     <use xlink:href="#DejaVuSans-65" x="491.589844"/>
     <use xlink:href="#DejaVuSans-72" x="553.113281"/>
     <use xlink:href="#DejaVuSans-73" x="594.226562"/>
     <use xlink:href="#DejaVuSans-27" x="646.326172"/>
     <use xlink:href="#DejaVuSans-5f" x="673.816406"/>
     <use xlink:href="#DejaVuSans-5f" x="723.816406"/>
     <use xlink:href="#DejaVuSans-6e" x="773.816406"/>
     <use xlink:href="#DejaVuSans-2e" x="837.195312"/>
     <use xlink:href="#DejaVuSans-6c" x="868.982422"/>
     <use xlink:href="#DejaVuSans-5f" x="896.765625"/>
     <use xlink:href="#DejaVuSans-30" x="946.765625"/>
     <use xlink:href="#DejaVuSans-29" x="1010.388672"/>
    </g>
   </g>
   <g id="text_3">
    <!-- 0 -->
    <g transform="translate(881.115939 215.830178)scale(0.17 -0.17)">
     <use xlink:href="#DejaVuSans-30"/>
    </g>
   </g>
   <g id="text_4">
    <!-- Rx(cat_name__n.l_0) -->
    <g transform="translate(798.776174 248.505164)scale(0.17 -0.17)">
     <defs>
      <path id="DejaVuSans-63" d="M 3122 3366 
L 3122 2828 
Q 2878 2963 2633 3030 
Q 2388 3097 2138 3097 
Q 1578 3097 1268 2742 
Q 959 2388 959 1747 
Q 959 1106 1268 751 
Q 1578 397 2138 397 
Q 2388 397 2633 464 
Q 2878 531 3122 666 
L 3122 134 
Q 2881 22 2623 -34 
Q 2366 -91 2075 -91 
Q 1284 -91 818 406 
Q 353 903 353 1747 
Q 353 2603 823 3093 
Q 1294 3584 2113 3584 
Q 2378 3584 2631 3529 
Q 2884 3475 3122 3366 
z
" transform="scale(0.015625)"/>
      <path id="DejaVuSans-61" d="M 2194 1759 
Q 1497 1759 1228 1600 
Q 959 1441 959 1056 
Q 959 750 1161 570 
Q 1363 391 1709 391 
Q 2188 391 2477 730 
Q 2766 1069 2766 1631 
L 2766 1759 
L 2194 1759 
z
M 3341 1997 
L 3341 0 
L 2766 0 
L 2766 531 
Q 2569 213 2275 61 
Q 1981 -91 1556 -91 
Q 1019 -91 701 211 
Q 384 513 384 1019 
Q 384 1609 779 1909 
Q 1175 2209 1959 2209 
L 2766 2209 
L 2766 2266 
Q 2766 2663 2505 2880 
Q 2244 3097 1772 3097 
Q 1472 3097 1187 3025 
Q 903 2953 641 2809 
L 641 3341 
Q 956 3463 1253 3523 
Q 1550 3584 1831 3584 
Q 2591 3584 2966 3190 
Q 3341 2797 3341 1997 
z
" transform="scale(0.015625)"/>
      <path id="DejaVuSans-74" d="M 1172 4494 
L 1172 3500 
L 2356 3500 
L 2356 3053 
L 1172 3053 
L 1172 1153 
Q 1172 725 1289 603 
Q 1406 481 1766 481 
L 2356 481 
L 2356 0 
L 1766 0 
Q 1100 0 847 248 
Q 594 497 594 1153 
L 594 3053 
L 172 3053 
L 172 3500 
L 594 3500 
L 594 4494 
L 1172 4494 
z
" transform="scale(0.015625)"/>
      <path id="DejaVuSans-6d" d="M 3328 2828 
Q 3544 3216 3844 3400 
Q 4144 3584 4550 3584 
Q 5097 3584 5394 3201 
Q 5691 2819 5691 2113 
L 5691 0 
L 5113 0 
L 5113 2094 
Q 5113 2597 4934 2840 
Q 4756 3084 4391 3084 
Q 3944 3084 3684 2787 
Q 3425 2491 3425 1978 
L 3425 0 
L 2847 0 
L 2847 2094 
Q 2847 2600 2669 2842 
Q 2491 3084 2119 3084 
Q 1678 3084 1418 2786 
Q 1159 2488 1159 1978 
L 1159 0 
L 581 0 
L 581 3500 
L 1159 3500 
L 1159 2956 
Q 1356 3278 1631 3431 
Q 1906 3584 2284 3584 
Q 2666 3584 2933 3390 
Q 3200 3197 3328 2828 
z
" transform="scale(0.015625)"/>
     </defs>
     <use xlink:href="#DejaVuSans-52"/>
     <use xlink:href="#DejaVuSans-78" x="69.482422"/>
     <use xlink:href="#DejaVuSans-28" x="128.662109"/>
     <use xlink:href="#DejaVuSans-63" x="167.675781"/>
     <use xlink:href="#DejaVuSans-61" x="222.65625"/>
     <use xlink:href="#DejaVuSans-74" x="283.935547"/>
     <use xlink:href="#DejaVuSans-5f" x="323.144531"/>
     <use xlink:href="#DejaVuSans-6e" x="373.144531"/>
     <use xlink:href="#DejaVuSans-61" x="436.523438"/>
     <use xlink:href="#DejaVuSans-6d" x="497.802734"/>
     <use xlink:href="#DejaVuSans-65" x="595.214844"/>
     <use xlink:href="#DejaVuSans-5f" x="656.738281"/>
     <use xlink:href="#DejaVuSans-5f" x="706.738281"/>
     <use xlink:href="#DejaVuSans-6e" x="756.738281"/>
     <use xlink:href="#DejaVuSans-2e" x="820.117188"/>
     <use xlink:href="#DejaVuSans-6c" x="851.904297"/>
     <use xlink:href="#DejaVuSans-5f" x="879.6875"/>
     <use xlink:href="#DejaVuSans-30" x="929.6875"/>
     <use xlink:href="#DejaVuSans-29" x="993.310547"/>
    </g>
   </g>
   <g id="text_5">
    <!-- Rx(=_n.l@n.l_n.l_0) -->
    <g transform="translate(457.300313 283.948202)scale(0.17 -0.17)">
     <defs>
      <path id="DejaVuSans-3d" d="M 678 2906 
L 4684 2906 
L 4684 2381 
L 678 2381 
L 678 2906 
z
M 678 1631 
L 4684 1631 
L 4684 1100 
L 678 1100 
L 678 1631 
z
" transform="scale(0.015625)"/>
      <path id="DejaVuSans-40" d="M 2381 1678 
Q 2381 1231 2603 976 
Q 2825 722 3213 722 
Q 3597 722 3817 978 
Q 4038 1234 4038 1678 
Q 4038 2116 3813 2373 
Q 3588 2631 3206 2631 
Q 2828 2631 2604 2375 
Q 2381 2119 2381 1678 
z
M 4084 744 
Q 3897 503 3655 389 
Q 3413 275 3091 275 
Q 2553 275 2217 664 
Q 1881 1053 1881 1678 
Q 1881 2303 2218 2693 
Q 2556 3084 3091 3084 
Q 3413 3084 3656 2967 
Q 3900 2850 4084 2613 
L 4084 3022 
L 4531 3022 
L 4531 722 
Q 4988 791 5245 1139 
Q 5503 1488 5503 2041 
Q 5503 2375 5404 2669 
Q 5306 2963 5106 3213 
Q 4781 3622 4314 3839 
Q 3847 4056 3297 4056 
Q 2913 4056 2559 3954 
Q 2206 3853 1906 3653 
Q 1416 3334 1139 2817 
Q 863 2300 863 1697 
Q 863 1200 1042 765 
Q 1222 331 1563 0 
Q 1891 -325 2322 -495 
Q 2753 -666 3244 -666 
Q 3647 -666 4036 -530 
Q 4425 -394 4750 -141 
L 5031 -488 
Q 4641 -791 4180 -952 
Q 3719 -1113 3244 -1113 
Q 2666 -1113 2153 -908 
Q 1641 -703 1241 -313 
Q 841 78 631 592 
Q 422 1106 422 1697 
Q 422 2266 634 2781 
Q 847 3297 1241 3688 
Q 1644 4084 2172 4295 
Q 2700 4506 3291 4506 
Q 3953 4506 4520 4234 
Q 5088 3963 5472 3463 
Q 5706 3156 5829 2797 
Q 5953 2438 5953 2053 
Q 5953 1231 5456 756 
Q 4959 281 4084 263 
L 4084 744 
z
" transform="scale(0.015625)"/>
     </defs>
     <use xlink:href="#DejaVuSans-52"/>
     <use xlink:href="#DejaVuSans-78" x="69.482422"/>
     <use xlink:href="#DejaVuSans-28" x="128.662109"/>
     <use xlink:href="#DejaVuSans-3d" x="167.675781"/>
     <use xlink:href="#DejaVuSans-5f" x="251.464844"/>
     <use xlink:href="#DejaVuSans-6e" x="301.464844"/>
     <use xlink:href="#DejaVuSans-2e" x="364.84375"/>
     <use xlink:href="#DejaVuSans-6c" x="396.630859"/>
     <use xlink:href="#DejaVuSans-40" x="424.414062"/>
     <use xlink:href="#DejaVuSans-6e" x="524.414062"/>
     <use xlink:href="#DejaVuSans-2e" x="587.792969"/>
     <use xlink:href="#DejaVuSans-6c" x="619.580078"/>
     <use xlink:href="#DejaVuSans-5f" x="647.363281"/>
     <use xlink:href="#DejaVuSans-6e" x="697.363281"/>
     <use xlink:href="#DejaVuSans-2e" x="760.742188"/>
     <use xlink:href="#DejaVuSans-6c" x="792.529297"/>
     <use xlink:href="#DejaVuSans-5f" x="820.3125"/>
     <use xlink:href="#DejaVuSans-30" x="870.3125"/>
     <use xlink:href="#DejaVuSans-29" x="933.935547"/>
    </g>
   </g>
   <g id="text_6">
    <!-- Rx(=_n.l@n.l_n.l_1) -->
    <g transform="translate(803.824377 319.39124)scale(0.17 -0.17)">
     <defs>
      <path id="DejaVuSans-31" d="M 794 531 
L 1825 531 
L 1825 4091 
L 703 3866 
L 703 4441 
L 1819 4666 
L 2450 4666 
L 2450 531 
L 3481 531 
L 3481 0 
L 794 0 
L 794 531 
z
" transform="scale(0.015625)"/>
     </defs>
     <use xlink:href="#DejaVuSans-52"/>
     <use xlink:href="#DejaVuSans-78" x="69.482422"/>
     <use xlink:href="#DejaVuSans-28" x="128.662109"/>
     <use xlink:href="#DejaVuSans-3d" x="167.675781"/>
     <use xlink:href="#DejaVuSans-5f" x="251.464844"/>
     <use xlink:href="#DejaVuSans-6e" x="301.464844"/>
     <use xlink:href="#DejaVuSans-2e" x="364.84375"/>
     <use xlink:href="#DejaVuSans-6c" x="396.630859"/>
     <use xlink:href="#DejaVuSans-40" x="424.414062"/>
     <use xlink:href="#DejaVuSans-6e" x="524.414062"/>
     <use xlink:href="#DejaVuSans-2e" x="587.792969"/>
     <use xlink:href="#DejaVuSans-6c" x="619.580078"/>
     <use xlink:href="#DejaVuSans-5f" x="647.363281"/>
     <use xlink:href="#DejaVuSans-6e" x="697.363281"/>
     <use xlink:href="#DejaVuSans-2e" x="760.742188"/>
     <use xlink:href="#DejaVuSans-6c" x="792.529297"/>
     <use xlink:href="#DejaVuSans-5f" x="820.3125"/>
     <use xlink:href="#DejaVuSans-31" x="870.3125"/>
     <use xlink:href="#DejaVuSans-29" x="933.935547"/>
    </g>
   </g>
   <g id="text_7">
    <!-- Rz(=_n.l@n.l_n.l_0) -->
    <g transform="translate(804.394142 354.834278)scale(0.17 -0.17)">
     <defs>
      <path id="DejaVuSans-7a" d="M 353 3500 
L 3084 3500 
L 3084 2975 
L 922 459 
L 3084 459 
L 3084 0 
L 275 0 
L 275 525 
L 2438 3041 
L 353 3041 
L 353 3500 
z
" transform="scale(0.015625)"/>
     </defs>
     <use xlink:href="#DejaVuSans-52"/>
     <use xlink:href="#DejaVuSans-7a" x="69.482422"/>
     <use xlink:href="#DejaVuSans-28" x="121.972656"/>
     <use xlink:href="#DejaVuSans-3d" x="160.986328"/>
     <use xlink:href="#DejaVuSans-5f" x="244.775391"/>
     <use xlink:href="#DejaVuSans-6e" x="294.775391"/>
     <use xlink:href="#DejaVuSans-2e" x="358.154297"/>
     <use xlink:href="#DejaVuSans-6c" x="389.941406"/>
     <use xlink:href="#DejaVuSans-40" x="417.724609"/>
     <use xlink:href="#DejaVuSans-6e" x="517.724609"/>
     <use xlink:href="#DejaVuSans-2e" x="581.103516"/>
     <use xlink:href="#DejaVuSans-6c" x="612.890625"/>
     <use xlink:href="#DejaVuSans-5f" x="640.673828"/>
     <use xlink:href="#DejaVuSans-6e" x="690.673828"/>
     <use xlink:href="#DejaVuSans-2e" x="754.052734"/>
     <use xlink:href="#DejaVuSans-6c" x="785.839844"/>
     <use xlink:href="#DejaVuSans-5f" x="813.623047"/>
     <use xlink:href="#DejaVuSans-30" x="863.623047"/>
     <use xlink:href="#DejaVuSans-29" x="927.246094"/>
    </g>
   </g>
   <g id="text_8">
    <!-- H -->
    <g transform="translate(533.607734 390.513722)scale(0.17 -0.17)">
     <defs>
      <path id="DejaVuSans-48" d="M 628 4666 
L 1259 4666 
L 1259 2753 
L 3553 2753 
L 3553 4666 
L 4184 4666 
L 4184 0 
L 3553 0 
L 3553 2222 
L 1259 2222 
L 1259 0 
L 628 0 
L 628 4666 
z
" transform="scale(0.015625)"/>
     </defs>
     <use xlink:href="#DejaVuSans-48"/>
    </g>
   </g>
   <g id="text_9">
    <!-- H -->
    <g transform="translate(880.131799 425.95676)scale(0.17 -0.17)">
     <use xlink:href="#DejaVuSans-48"/>
    </g>
   </g>
   <g id="text_10">
    <!-- 0 -->
    <g transform="translate(881.115939 461.399798)scale(0.17 -0.17)">
     <use xlink:href="#DejaVuSans-30"/>
    </g>
   </g>
   <g id="text_11">
    <!-- Rx(WHERE_s@n.l_n_0) -->
    <g transform="translate(97.538826 496.60643)scale(0.17 -0.17)">
     <defs>
      <path id="DejaVuSans-45" d="M 628 4666 
L 3578 4666 
L 3578 4134 
L 1259 4134 
L 1259 2753 
L 3481 2753 
L 3481 2222 
L 1259 2222 
L 1259 531 
L 3634 531 
L 3634 0 
L 628 0 
L 628 4666 
z
" transform="scale(0.015625)"/>
     </defs>
     <use xlink:href="#DejaVuSans-52"/>
     <use xlink:href="#DejaVuSans-78" x="69.482422"/>
     <use xlink:href="#DejaVuSans-28" x="128.662109"/>
     <use xlink:href="#DejaVuSans-57" x="167.675781"/>
     <use xlink:href="#DejaVuSans-48" x="266.552734"/>
     <use xlink:href="#DejaVuSans-45" x="341.748047"/>
     <use xlink:href="#DejaVuSans-52" x="404.931641"/>
     <use xlink:href="#DejaVuSans-45" x="474.414062"/>
     <use xlink:href="#DejaVuSans-5f" x="537.597656"/>
     <use xlink:href="#DejaVuSans-73" x="587.597656"/>
     <use xlink:href="#DejaVuSans-40" x="639.697266"/>
     <use xlink:href="#DejaVuSans-6e" x="739.697266"/>
     <use xlink:href="#DejaVuSans-2e" x="803.076172"/>
     <use xlink:href="#DejaVuSans-6c" x="834.863281"/>
     <use xlink:href="#DejaVuSans-5f" x="862.646484"/>
     <use xlink:href="#DejaVuSans-6e" x="912.646484"/>
     <use xlink:href="#DejaVuSans-5f" x="976.025391"/>
     <use xlink:href="#DejaVuSans-30" x="1026.025391"/>
     <use xlink:href="#DejaVuSans-29" x="1089.648438"/>
    </g>
   </g>
   <g id="text_12">
    <!-- Rx(WHERE_s@n.l_n_1) -->
    <g transform="translate(444.062891 532.049468)scale(0.17 -0.17)">
     <use xlink:href="#DejaVuSans-52"/>
     <use xlink:href="#DejaVuSans-78" x="69.482422"/>
     <use xlink:href="#DejaVuSans-28" x="128.662109"/>
     <use xlink:href="#DejaVuSans-57" x="167.675781"/>
     <use xlink:href="#DejaVuSans-48" x="266.552734"/>
     <use xlink:href="#DejaVuSans-45" x="341.748047"/>
     <use xlink:href="#DejaVuSans-52" x="404.931641"/>
     <use xlink:href="#DejaVuSans-45" x="474.414062"/>
     <use xlink:href="#DejaVuSans-5f" x="537.597656"/>
     <use xlink:href="#DejaVuSans-73" x="587.597656"/>
     <use xlink:href="#DejaVuSans-40" x="639.697266"/>
     <use xlink:href="#DejaVuSans-6e" x="739.697266"/>
     <use xlink:href="#DejaVuSans-2e" x="803.076172"/>
     <use xlink:href="#DejaVuSans-6c" x="834.863281"/>
     <use xlink:href="#DejaVuSans-5f" x="862.646484"/>
     <use xlink:href="#DejaVuSans-6e" x="912.646484"/>
     <use xlink:href="#DejaVuSans-5f" x="976.025391"/>
     <use xlink:href="#DejaVuSans-31" x="1026.025391"/>
     <use xlink:href="#DejaVuSans-29" x="1089.648438"/>
    </g>
   </g>
   <g id="text_13">
    <!-- Rz(WHERE_s@n.l_n_0) -->
    <g transform="translate(444.632656 567.492506)scale(0.17 -0.17)">
     <use xlink:href="#DejaVuSans-52"/>
     <use xlink:href="#DejaVuSans-7a" x="69.482422"/>
     <use xlink:href="#DejaVuSans-28" x="121.972656"/>
     <use xlink:href="#DejaVuSans-57" x="160.986328"/>
     <use xlink:href="#DejaVuSans-48" x="259.863281"/>
     <use xlink:href="#DejaVuSans-45" x="335.058594"/>
     <use xlink:href="#DejaVuSans-52" x="398.242188"/>
     <use xlink:href="#DejaVuSans-45" x="467.724609"/>
     <use xlink:href="#DejaVuSans-5f" x="530.908203"/>
     <use xlink:href="#DejaVuSans-73" x="580.908203"/>
     <use xlink:href="#DejaVuSans-40" x="633.007812"/>
     <use xlink:href="#DejaVuSans-6e" x="733.007812"/>
     <use xlink:href="#DejaVuSans-2e" x="796.386719"/>
     <use xlink:href="#DejaVuSans-6c" x="828.173828"/>
     <use xlink:href="#DejaVuSans-5f" x="855.957031"/>
     <use xlink:href="#DejaVuSans-6e" x="905.957031"/>
     <use xlink:href="#DejaVuSans-5f" x="969.335938"/>
     <use xlink:href="#DejaVuSans-30" x="1019.335938"/>
     <use xlink:href="#DejaVuSans-29" x="1082.958984"/>
    </g>
   </g>
   <g id="text_14">
    <!-- H -->
    <g transform="translate(187.08367 603.17195)scale(0.17 -0.17)">
     <use xlink:href="#DejaVuSans-48"/>
    </g>
   </g>
   <g id="text_15">
    <!-- H -->
    <g transform="translate(533.607734 638.614988)scale(0.17 -0.17)">
     <use xlink:href="#DejaVuSans-48"/>
    </g>
   </g>
   <g id="text_16">
    <!-- 0 -->
    <g transform="translate(534.591875 674.058026)scale(0.17 -0.17)">
     <use xlink:href="#DejaVuSans-30"/>
    </g>
   </g>
   <g id="text_17">
    <!-- 0 -->
    <g transform="translate(534.591875 712.03271)scale(0.17 -0.17)">
     <use xlink:href="#DejaVuSans-30"/>
    </g>
   </g>
   <g id="text_18">
    <!-- Rx(cats__n.l_0) -->
    <g transform="translate(476.179609 744.707696)scale(0.17 -0.17)">
     <use xlink:href="#DejaVuSans-52"/>
     <use xlink:href="#DejaVuSans-78" x="69.482422"/>
     <use xlink:href="#DejaVuSans-28" x="128.662109"/>
     <use xlink:href="#DejaVuSans-63" x="167.675781"/>
     <use xlink:href="#DejaVuSans-61" x="222.65625"/>
     <use xlink:href="#DejaVuSans-74" x="283.935547"/>
     <use xlink:href="#DejaVuSans-73" x="323.144531"/>
     <use xlink:href="#DejaVuSans-5f" x="375.244141"/>
     <use xlink:href="#DejaVuSans-5f" x="425.244141"/>
     <use xlink:href="#DejaVuSans-6e" x="475.244141"/>
     <use xlink:href="#DejaVuSans-2e" x="538.623047"/>
     <use xlink:href="#DejaVuSans-6c" x="570.410156"/>
     <use xlink:href="#DejaVuSans-5f" x="598.193359"/>
     <use xlink:href="#DejaVuSans-30" x="648.193359"/>
     <use xlink:href="#DejaVuSans-29" x="711.816406"/>
    </g>
   </g>
   <g id="text_19">
    <!-- Rx(FROM_n@n.l_n_0) -->
    <g transform="translate(103.204608 780.150734)scale(0.17 -0.17)">
     <defs>
      <path id="DejaVuSans-46" d="M 628 4666 
L 3309 4666 
L 3309 4134 
L 1259 4134 
L 1259 2759 
L 3109 2759 
L 3109 2228 
L 1259 2228 
L 1259 0 
L 628 0 
L 628 4666 
z
" transform="scale(0.015625)"/>
      <path id="DejaVuSans-4f" d="M 2522 4238 
Q 1834 4238 1429 3725 
Q 1025 3213 1025 2328 
Q 1025 1447 1429 934 
Q 1834 422 2522 422 
Q 3209 422 3611 934 
Q 4013 1447 4013 2328 
Q 4013 3213 3611 3725 
Q 3209 4238 2522 4238 
z
M 2522 4750 
Q 3503 4750 4090 4092 
Q 4678 3434 4678 2328 
Q 4678 1225 4090 567 
Q 3503 -91 2522 -91 
Q 1538 -91 948 565 
Q 359 1222 359 2328 
Q 359 3434 948 4092 
Q 1538 4750 2522 4750 
z
" transform="scale(0.015625)"/>
      <path id="DejaVuSans-4d" d="M 628 4666 
L 1569 4666 
L 2759 1491 
L 3956 4666 
L 4897 4666 
L 4897 0 
L 4281 0 
L 4281 4097 
L 3078 897 
L 2444 897 
L 1241 4097 
L 1241 0 
L 628 0 
L 628 4666 
z
" transform="scale(0.015625)"/>
     </defs>
     <use xlink:href="#DejaVuSans-52"/>
     <use xlink:href="#DejaVuSans-78" x="69.482422"/>
     <use xlink:href="#DejaVuSans-28" x="128.662109"/>
     <use xlink:href="#DejaVuSans-46" x="167.675781"/>
     <use xlink:href="#DejaVuSans-52" x="225.195312"/>
     <use xlink:href="#DejaVuSans-4f" x="294.677734"/>
     <use xlink:href="#DejaVuSans-4d" x="373.388672"/>
     <use xlink:href="#DejaVuSans-5f" x="459.667969"/>
     <use xlink:href="#DejaVuSans-6e" x="509.667969"/>
     <use xlink:href="#DejaVuSans-40" x="573.046875"/>
     <use xlink:href="#DejaVuSans-6e" x="673.046875"/>
     <use xlink:href="#DejaVuSans-2e" x="736.425781"/>
     <use xlink:href="#DejaVuSans-6c" x="768.212891"/>
     <use xlink:href="#DejaVuSans-5f" x="795.996094"/>
     <use xlink:href="#DejaVuSans-6e" x="845.996094"/>
     <use xlink:href="#DejaVuSans-5f" x="909.375"/>
     <use xlink:href="#DejaVuSans-30" x="959.375"/>
     <use xlink:href="#DejaVuSans-29" x="1022.998047"/>
    </g>
   </g>
   <g id="text_20">
    <!-- Rx(FROM_n@n.l_n_1) -->
    <g transform="translate(449.728672 815.593772)scale(0.17 -0.17)">
     <use xlink:href="#DejaVuSans-52"/>
     <use xlink:href="#DejaVuSans-78" x="69.482422"/>
     <use xlink:href="#DejaVuSans-28" x="128.662109"/>
     <use xlink:href="#DejaVuSans-46" x="167.675781"/>
     <use xlink:href="#DejaVuSans-52" x="225.195312"/>
     <use xlink:href="#DejaVuSans-4f" x="294.677734"/>
     <use xlink:href="#DejaVuSans-4d" x="373.388672"/>
     <use xlink:href="#DejaVuSans-5f" x="459.667969"/>
     <use xlink:href="#DejaVuSans-6e" x="509.667969"/>
     <use xlink:href="#DejaVuSans-40" x="573.046875"/>
     <use xlink:href="#DejaVuSans-6e" x="673.046875"/>
     <use xlink:href="#DejaVuSans-2e" x="736.425781"/>
     <use xlink:href="#DejaVuSans-6c" x="768.212891"/>
     <use xlink:href="#DejaVuSans-5f" x="795.996094"/>
     <use xlink:href="#DejaVuSans-6e" x="845.996094"/>
     <use xlink:href="#DejaVuSans-5f" x="909.375"/>
     <use xlink:href="#DejaVuSans-31" x="959.375"/>
     <use xlink:href="#DejaVuSans-29" x="1022.998047"/>
    </g>
   </g>
   <g id="text_21">
    <!-- Rz(FROM_n@n.l_n_0) -->
    <g transform="translate(450.298437 851.03681)scale(0.17 -0.17)">
     <use xlink:href="#DejaVuSans-52"/>
     <use xlink:href="#DejaVuSans-7a" x="69.482422"/>
     <use xlink:href="#DejaVuSans-28" x="121.972656"/>
     <use xlink:href="#DejaVuSans-46" x="160.986328"/>
     <use xlink:href="#DejaVuSans-52" x="218.505859"/>
     <use xlink:href="#DejaVuSans-4f" x="287.988281"/>
     <use xlink:href="#DejaVuSans-4d" x="366.699219"/>
     <use xlink:href="#DejaVuSans-5f" x="452.978516"/>
     <use xlink:href="#DejaVuSans-6e" x="502.978516"/>
     <use xlink:href="#DejaVuSans-40" x="566.357422"/>
     <use xlink:href="#DejaVuSans-6e" x="666.357422"/>
     <use xlink:href="#DejaVuSans-2e" x="729.736328"/>
     <use xlink:href="#DejaVuSans-6c" x="761.523438"/>
     <use xlink:href="#DejaVuSans-5f" x="789.306641"/>
     <use xlink:href="#DejaVuSans-6e" x="839.306641"/>
     <use xlink:href="#DejaVuSans-5f" x="902.685547"/>
     <use xlink:href="#DejaVuSans-30" x="952.685547"/>
     <use xlink:href="#DejaVuSans-29" x="1016.308594"/>
    </g>
   </g>
   <g id="text_22">
    <!-- H -->
    <g transform="translate(187.08367 886.716254)scale(0.17 -0.17)">
     <use xlink:href="#DejaVuSans-48"/>
    </g>
   </g>
   <g id="text_23">
    <!-- H -->
    <g transform="translate(533.607734 922.159292)scale(0.17 -0.17)">
     <use xlink:href="#DejaVuSans-48"/>
    </g>
   </g>
   <g id="text_24">
    <!-- 0 -->
    <g transform="translate(534.591875 957.60233)scale(0.17 -0.17)">
     <use xlink:href="#DejaVuSans-30"/>
    </g>
   </g>
   <g id="text_25">
    <!-- 0 -->
    <g transform="translate(534.591875 995.577013)scale(0.17 -0.17)">
     <use xlink:href="#DejaVuSans-30"/>
    </g>
   </g>
   <g id="text_26">
    <!-- Rx(favourite_food__n.l_0) -->
    <g transform="translate(432.544062 1028.252)scale(0.17 -0.17)">
     <defs>
      <path id="DejaVuSans-66" d="M 2375 4863 
L 2375 4384 
L 1825 4384 
Q 1516 4384 1395 4259 
Q 1275 4134 1275 3809 
L 1275 3500 
L 2222 3500 
L 2222 3053 
L 1275 3053 
L 1275 0 
L 697 0 
L 697 3053 
L 147 3053 
L 147 3500 
L 697 3500 
L 697 3744 
Q 697 4328 969 4595 
Q 1241 4863 1831 4863 
L 2375 4863 
z
" transform="scale(0.015625)"/>
      <path id="DejaVuSans-76" d="M 191 3500 
L 800 3500 
L 1894 563 
L 2988 3500 
L 3597 3500 
L 2284 0 
L 1503 0 
L 191 3500 
z
" transform="scale(0.015625)"/>
      <path id="DejaVuSans-6f" d="M 1959 3097 
Q 1497 3097 1228 2736 
Q 959 2375 959 1747 
Q 959 1119 1226 758 
Q 1494 397 1959 397 
Q 2419 397 2687 759 
Q 2956 1122 2956 1747 
Q 2956 2369 2687 2733 
Q 2419 3097 1959 3097 
z
M 1959 3584 
Q 2709 3584 3137 3096 
Q 3566 2609 3566 1747 
Q 3566 888 3137 398 
Q 2709 -91 1959 -91 
Q 1206 -91 779 398 
Q 353 888 353 1747 
Q 353 2609 779 3096 
Q 1206 3584 1959 3584 
z
" transform="scale(0.015625)"/>
      <path id="DejaVuSans-75" d="M 544 1381 
L 544 3500 
L 1119 3500 
L 1119 1403 
Q 1119 906 1312 657 
Q 1506 409 1894 409 
Q 2359 409 2629 706 
Q 2900 1003 2900 1516 
L 2900 3500 
L 3475 3500 
L 3475 0 
L 2900 0 
L 2900 538 
Q 2691 219 2414 64 
Q 2138 -91 1772 -91 
Q 1169 -91 856 284 
Q 544 659 544 1381 
z
M 1991 3584 
L 1991 3584 
z
" transform="scale(0.015625)"/>
      <path id="DejaVuSans-64" d="M 2906 2969 
L 2906 4863 
L 3481 4863 
L 3481 0 
L 2906 0 
L 2906 525 
Q 2725 213 2448 61 
Q 2172 -91 1784 -91 
Q 1150 -91 751 415 
Q 353 922 353 1747 
Q 353 2572 751 3078 
Q 1150 3584 1784 3584 
Q 2172 3584 2448 3432 
Q 2725 3281 2906 2969 
z
M 947 1747 
Q 947 1113 1208 752 
Q 1469 391 1925 391 
Q 2381 391 2643 752 
Q 2906 1113 2906 1747 
Q 2906 2381 2643 2742 
Q 2381 3103 1925 3103 
Q 1469 3103 1208 2742 
Q 947 2381 947 1747 
z
" transform="scale(0.015625)"/>
     </defs>
     <use xlink:href="#DejaVuSans-52"/>
     <use xlink:href="#DejaVuSans-78" x="69.482422"/>
     <use xlink:href="#DejaVuSans-28" x="128.662109"/>
     <use xlink:href="#DejaVuSans-66" x="167.675781"/>
     <use xlink:href="#DejaVuSans-61" x="202.880859"/>
     <use xlink:href="#DejaVuSans-76" x="264.160156"/>
     <use xlink:href="#DejaVuSans-6f" x="323.339844"/>
     <use xlink:href="#DejaVuSans-75" x="384.521484"/>
     <use xlink:href="#DejaVuSans-72" x="447.900391"/>
     <use xlink:href="#DejaVuSans-69" x="489.013672"/>
     <use xlink:href="#DejaVuSans-74" x="516.796875"/>
     <use xlink:href="#DejaVuSans-65" x="556.005859"/>
     <use xlink:href="#DejaVuSans-5f" x="617.529297"/>
     <use xlink:href="#DejaVuSans-66" x="667.529297"/>
     <use xlink:href="#DejaVuSans-6f" x="702.734375"/>
     <use xlink:href="#DejaVuSans-6f" x="763.916016"/>
     <use xlink:href="#DejaVuSans-64" x="825.097656"/>
     <use xlink:href="#DejaVuSans-5f" x="888.574219"/>
     <use xlink:href="#DejaVuSans-5f" x="938.574219"/>
     <use xlink:href="#DejaVuSans-6e" x="988.574219"/>
     <use xlink:href="#DejaVuSans-2e" x="1051.953125"/>
     <use xlink:href="#DejaVuSans-6c" x="1083.740234"/>
     <use xlink:href="#DejaVuSans-5f" x="1111.523438"/>
     <use xlink:href="#DejaVuSans-30" x="1161.523438"/>
     <use xlink:href="#DejaVuSans-29" x="1225.146484"/>
    </g>
   </g>
   <g id="text_27">
    <!-- 0 -->
    <g transform="translate(881.115939 1066.463089)scale(0.17 -0.17)">
     <use xlink:href="#DejaVuSans-30"/>
    </g>
   </g>
   <g id="text_28">
    <!-- Rx(cat_name__n.l_0) -->
    <g transform="translate(798.776174 1099.138076)scale(0.17 -0.17)">
     <use xlink:href="#DejaVuSans-52"/>
     <use xlink:href="#DejaVuSans-78" x="69.482422"/>
     <use xlink:href="#DejaVuSans-28" x="128.662109"/>
     <use xlink:href="#DejaVuSans-63" x="167.675781"/>
     <use xlink:href="#DejaVuSans-61" x="222.65625"/>
     <use xlink:href="#DejaVuSans-74" x="283.935547"/>
     <use xlink:href="#DejaVuSans-5f" x="323.144531"/>
     <use xlink:href="#DejaVuSans-6e" x="373.144531"/>
     <use xlink:href="#DejaVuSans-61" x="436.523438"/>
     <use xlink:href="#DejaVuSans-6d" x="497.802734"/>
     <use xlink:href="#DejaVuSans-65" x="595.214844"/>
     <use xlink:href="#DejaVuSans-5f" x="656.738281"/>
     <use xlink:href="#DejaVuSans-5f" x="706.738281"/>
     <use xlink:href="#DejaVuSans-6e" x="756.738281"/>
     <use xlink:href="#DejaVuSans-2e" x="820.117188"/>
     <use xlink:href="#DejaVuSans-6c" x="851.904297"/>
     <use xlink:href="#DejaVuSans-5f" x="879.6875"/>
     <use xlink:href="#DejaVuSans-30" x="929.6875"/>
     <use xlink:href="#DejaVuSans-29" x="993.310547"/>
    </g>
   </g>
   <g id="text_29">
    <!-- Rz(SELECT_n@n.l@n.l__0) -->
    <g transform="translate(429.554453 1134.581114)scale(0.17 -0.17)">
     <defs>
      <path id="DejaVuSans-53" d="M 3425 4513 
L 3425 3897 
Q 3066 4069 2747 4153 
Q 2428 4238 2131 4238 
Q 1616 4238 1336 4038 
Q 1056 3838 1056 3469 
Q 1056 3159 1242 3001 
Q 1428 2844 1947 2747 
L 2328 2669 
Q 3034 2534 3370 2195 
Q 3706 1856 3706 1288 
Q 3706 609 3251 259 
Q 2797 -91 1919 -91 
Q 1588 -91 1214 -16 
Q 841 59 441 206 
L 441 856 
Q 825 641 1194 531 
Q 1563 422 1919 422 
Q 2459 422 2753 634 
Q 3047 847 3047 1241 
Q 3047 1584 2836 1778 
Q 2625 1972 2144 2069 
L 1759 2144 
Q 1053 2284 737 2584 
Q 422 2884 422 3419 
Q 422 4038 858 4394 
Q 1294 4750 2059 4750 
Q 2388 4750 2728 4690 
Q 3069 4631 3425 4513 
z
" transform="scale(0.015625)"/>
      <path id="DejaVuSans-4c" d="M 628 4666 
L 1259 4666 
L 1259 531 
L 3531 531 
L 3531 0 
L 628 0 
L 628 4666 
z
" transform="scale(0.015625)"/>
      <path id="DejaVuSans-43" d="M 4122 4306 
L 4122 3641 
Q 3803 3938 3442 4084 
Q 3081 4231 2675 4231 
Q 1875 4231 1450 3742 
Q 1025 3253 1025 2328 
Q 1025 1406 1450 917 
Q 1875 428 2675 428 
Q 3081 428 3442 575 
Q 3803 722 4122 1019 
L 4122 359 
Q 3791 134 3420 21 
Q 3050 -91 2638 -91 
Q 1578 -91 968 557 
Q 359 1206 359 2328 
Q 359 3453 968 4101 
Q 1578 4750 2638 4750 
Q 3056 4750 3426 4639 
Q 3797 4528 4122 4306 
z
" transform="scale(0.015625)"/>
      <path id="DejaVuSans-54" d="M -19 4666 
L 3928 4666 
L 3928 4134 
L 2272 4134 
L 2272 0 
L 1638 0 
L 1638 4134 
L -19 4134 
L -19 4666 
z
" transform="scale(0.015625)"/>
     </defs>
     <use xlink:href="#DejaVuSans-52"/>
     <use xlink:href="#DejaVuSans-7a" x="69.482422"/>
     <use xlink:href="#DejaVuSans-28" x="121.972656"/>
     <use xlink:href="#DejaVuSans-53" x="160.986328"/>
     <use xlink:href="#DejaVuSans-45" x="224.462891"/>
     <use xlink:href="#DejaVuSans-4c" x="287.646484"/>
     <use xlink:href="#DejaVuSans-45" x="343.359375"/>
     <use xlink:href="#DejaVuSans-43" x="406.542969"/>
     <use xlink:href="#DejaVuSans-54" x="476.367188"/>
     <use xlink:href="#DejaVuSans-5f" x="537.451172"/>
     <use xlink:href="#DejaVuSans-6e" x="587.451172"/>
     <use xlink:href="#DejaVuSans-40" x="650.830078"/>
     <use xlink:href="#DejaVuSans-6e" x="750.830078"/>
     <use xlink:href="#DejaVuSans-2e" x="814.208984"/>
     <use xlink:href="#DejaVuSans-6c" x="845.996094"/>
     <use xlink:href="#DejaVuSans-40" x="873.779297"/>
     <use xlink:href="#DejaVuSans-6e" x="973.779297"/>
     <use xlink:href="#DejaVuSans-2e" x="1037.158203"/>
     <use xlink:href="#DejaVuSans-6c" x="1068.945312"/>
     <use xlink:href="#DejaVuSans-5f" x="1096.728516"/>
     <use xlink:href="#DejaVuSans-5f" x="1146.728516"/>
     <use xlink:href="#DejaVuSans-30" x="1196.728516"/>
     <use xlink:href="#DejaVuSans-29" x="1260.351562"/>
    </g>
   </g>
   <g id="text_30">
    <!-- Rz(SELECT_n@n.l@n.l__1) -->
    <g transform="translate(776.078517 1170.024152)scale(0.17 -0.17)">
     <use xlink:href="#DejaVuSans-52"/>
     <use xlink:href="#DejaVuSans-7a" x="69.482422"/>
     <use xlink:href="#DejaVuSans-28" x="121.972656"/>
     <use xlink:href="#DejaVuSans-53" x="160.986328"/>
     <use xlink:href="#DejaVuSans-45" x="224.462891"/>
     <use xlink:href="#DejaVuSans-4c" x="287.646484"/>
     <use xlink:href="#DejaVuSans-45" x="343.359375"/>
     <use xlink:href="#DejaVuSans-43" x="406.542969"/>
     <use xlink:href="#DejaVuSans-54" x="476.367188"/>
     <use xlink:href="#DejaVuSans-5f" x="537.451172"/>
     <use xlink:href="#DejaVuSans-6e" x="587.451172"/>
     <use xlink:href="#DejaVuSans-40" x="650.830078"/>
     <use xlink:href="#DejaVuSans-6e" x="750.830078"/>
     <use xlink:href="#DejaVuSans-2e" x="814.208984"/>
     <use xlink:href="#DejaVuSans-6c" x="845.996094"/>
     <use xlink:href="#DejaVuSans-40" x="873.779297"/>
     <use xlink:href="#DejaVuSans-6e" x="973.779297"/>
     <use xlink:href="#DejaVuSans-2e" x="1037.158203"/>
     <use xlink:href="#DejaVuSans-6c" x="1068.945312"/>
     <use xlink:href="#DejaVuSans-5f" x="1096.728516"/>
     <use xlink:href="#DejaVuSans-5f" x="1146.728516"/>
     <use xlink:href="#DejaVuSans-31" x="1196.728516"/>
     <use xlink:href="#DejaVuSans-29" x="1260.351562"/>
    </g>
   </g>
   <g id="text_31">
    <!-- H -->
    <g transform="translate(187.08367 1205.703596)scale(0.17 -0.17)">
     <use xlink:href="#DejaVuSans-48"/>
    </g>
   </g>
   <g id="text_32">
    <!-- H -->
    <g transform="translate(533.607734 1241.146634)scale(0.17 -0.17)">
     <use xlink:href="#DejaVuSans-48"/>
    </g>
   </g>
   <g id="text_33">
    <!-- H -->
    <g transform="translate(880.131799 1276.589672)scale(0.17 -0.17)">
     <use xlink:href="#DejaVuSans-48"/>
    </g>
   </g>
   <g id="text_34">
    <!-- 0 -->
    <g transform="translate(188.067811 1312.03271)scale(0.17 -0.17)">
     <use xlink:href="#DejaVuSans-30"/>
    </g>
   </g>
   <g id="text_35">
    <!-- 0 -->
    <g transform="translate(534.591875 1312.03271)scale(0.17 -0.17)">
     <use xlink:href="#DejaVuSans-30"/>
    </g>
   </g>
   <g id="text_36">
    <!-- 0 -->
    <g transform="translate(881.115939 1312.03271)scale(0.17 -0.17)">
     <use xlink:href="#DejaVuSans-30"/>
    </g>
   </g>
  </g>
 </g>
 <defs>
  <clipPath id="p3f5d0b688c">
   <rect x="0" y="0" width="1080" height="1440"/>
  </clipPath>
 </defs>
</svg>
