<?xml version="1.0" encoding="utf-8" standalone="no"?>
<!DOCTYPE svg PUBLIC "-//W3C//DTD SVG 1.1//EN"
  "http://www.w3.org/Graphics/SVG/1.1/DTD/svg11.dtd">
<svg xmlns:xlink="http://www.w3.org/1999/xlink" width="1512pt" height="1512pt" viewBox="0 0 1512 1512" xmlns="http://www.w3.org/2000/svg" version="1.1">
 <metadata>
  <rdf:RDF xmlns:dc="http://purl.org/dc/elements/1.1/" xmlns:cc="http://creativecommons.org/ns#" xmlns:rdf="http://www.w3.org/1999/02/22-rdf-syntax-ns#">
   <cc:Work>
    <dc:type rdf:resource="http://purl.org/dc/dcmitype/StillImage"/>
    <dc:date>2022-09-21T18:14:15.493956</dc:date>
    <dc:format>image/svg+xml</dc:format>
    <dc:creator>
     <cc:Agent>
      <dc:title>Matplotlib v3.5.1, https://matplotlib.org/</dc:title>
     </cc:Agent>
    </dc:creator>
   </cc:Work>
  </rdf:RDF>
 </metadata>
 <defs>
  <style type="text/css">*{stroke-linejoin: round; stroke-linecap: butt}</style>
 </defs>
 <g id="figure_1">
  <g id="patch_1">
   <path d="M 0 1512 
L 1512 1512 
L 1512 0 
L 0 0 
z
" style="fill: #ffffff"/>
  </g>
  <g id="axes_1">
   <g id="patch_2">
    <path d="M 154.636364 126 
Q 154.636364 830.745763 154.636364 830.745763 
" clip-path="url(#pe8772909fd)" style="fill: none; stroke: #000000; stroke-linejoin: miter"/>
   </g>
   <g id="patch_3">
    <path d="M 498.272727 190.067797 
Q 498.272727 318.20339 498.272727 318.20339 
" clip-path="url(#pe8772909fd)" style="fill: none; stroke: #000000; stroke-linejoin: miter"/>
   </g>
   <g id="patch_4">
    <path d="M 841.909091 275.491525 
Q 841.909091 318.20339 841.909091 318.20339 
" clip-path="url(#pe8772909fd)" style="fill: none; stroke: #000000; stroke-linejoin: miter"/>
   </g>
   <g id="patch_5">
    <path d="M 670.090909 360.915254 
Q 670.090909 745.322034 670.090909 745.322034 
" clip-path="url(#pe8772909fd)" style="fill: none; stroke: #000000; stroke-linejoin: miter"/>
   </g>
   <g id="patch_6">
    <path d="M 1013.727273 446.338983 
Q 1013.727273 489.050847 1013.727273 489.050847 
" clip-path="url(#pe8772909fd)" style="fill: none; stroke: #000000; stroke-linejoin: miter"/>
   </g>
   <g id="patch_7">
    <path d="M 1013.727273 531.762712 
Q 1013.727273 659.898305 1013.727273 659.898305 
" clip-path="url(#pe8772909fd)" style="fill: none; stroke: #000000; stroke-linejoin: miter"/>
   </g>
   <g id="patch_8">
    <path d="M 1357.363636 617.186441 
Q 1357.363636 659.898305 1357.363636 659.898305 
" clip-path="url(#pe8772909fd)" style="fill: none; stroke: #000000; stroke-linejoin: miter"/>
   </g>
   <g id="patch_9">
    <path d="M 1185.545455 702.610169 
Q 1185.545455 745.322034 1185.545455 745.322034 
" clip-path="url(#pe8772909fd)" style="fill: none; stroke: #000000; stroke-linejoin: miter"/>
   </g>
   <g id="patch_10">
    <path d="M 927.818182 788.033898 
Q 927.818182 830.745763 927.818182 830.745763 
" clip-path="url(#pe8772909fd)" style="fill: none; stroke: #000000; stroke-linejoin: miter"/>
   </g>
   <g id="patch_11">
    <path d="M 541.227273 873.457627 
Q 541.227273 1087.016949 541.227273 1087.016949 
" clip-path="url(#pe8772909fd)" style="fill: none; stroke: #000000; stroke-linejoin: miter"/>
   </g>
   <g id="patch_12">
    <path d="M 884.863636 958.881356 
Q 884.863636 1087.016949 884.863636 1087.016949 
" clip-path="url(#pe8772909fd)" style="fill: none; stroke: #000000; stroke-linejoin: miter"/>
   </g>
   <g id="patch_13">
    <path d="M 1228.5 1044.305085 
Q 1228.5 1087.016949 1228.5 1087.016949 
" clip-path="url(#pe8772909fd)" style="fill: none; stroke: #000000; stroke-linejoin: miter"/>
   </g>
   <g id="patch_14">
    <path d="M 884.863636 1129.728814 
Q 884.863636 1343.288136 884.863636 1343.288136 
" clip-path="url(#pe8772909fd)" style="fill: none; stroke: #000000; stroke-linejoin: miter"/>
   </g>
   <g id="patch_15">
    <path d="M 1228.5 1215.152542 
Q 1228.5 1257.864407 1228.5 1257.864407 
" clip-path="url(#pe8772909fd)" style="fill: none; stroke: #000000; stroke-linejoin: miter"/>
   </g>
   <g id="patch_16">
    <path d="M 1228.5 1300.576271 
Q 1228.5 1343.288136 1228.5 1343.288136 
" clip-path="url(#pe8772909fd)" style="fill: none; stroke: #000000; stroke-linejoin: miter"/>
   </g>
   <g id="patch_17">
    <path d="M 412.363636 190.067797 
L 584.181818 190.067797 
L 584.181818 147.355932 
L 412.363636 147.355932 
z
" clip-path="url(#pe8772909fd)" style="fill: #ffffff; stroke: #000000; stroke-linejoin: miter"/>
   </g>
   <g id="patch_18">
    <path d="M 756 275.491525 
L 927.818182 275.491525 
L 927.818182 232.779661 
L 756 232.779661 
z
" clip-path="url(#pe8772909fd)" style="fill: #ffffff; stroke: #000000; stroke-linejoin: miter"/>
   </g>
   <g id="patch_19">
    <path d="M 412.363636 360.915254 
L 927.818182 360.915254 
L 927.818182 318.20339 
L 412.363636 318.20339 
z
" clip-path="url(#pe8772909fd)" style="fill: #ffffff; stroke: #000000; stroke-linejoin: miter"/>
   </g>
   <g id="patch_20">
    <path d="M 927.818182 446.338983 
L 1099.636364 446.338983 
L 1099.636364 403.627119 
L 927.818182 403.627119 
z
" clip-path="url(#pe8772909fd)" style="fill: #ffffff; stroke: #000000; stroke-linejoin: miter"/>
   </g>
   <g id="patch_21">
    <path d="M 927.818182 531.762712 
L 1099.636364 531.762712 
L 1099.636364 489.050847 
L 927.818182 489.050847 
z
" clip-path="url(#pe8772909fd)" style="fill: #ffffff; stroke: #000000; stroke-linejoin: miter"/>
   </g>
   <g id="patch_22">
    <path d="M 1271.454545 617.186441 
L 1443.272727 617.186441 
L 1443.272727 574.474576 
L 1271.454545 574.474576 
z
" clip-path="url(#pe8772909fd)" style="fill: #ffffff; stroke: #000000; stroke-linejoin: miter"/>
   </g>
   <g id="patch_23">
    <path d="M 927.818182 702.610169 
L 1443.272727 702.610169 
L 1443.272727 659.898305 
L 927.818182 659.898305 
z
" clip-path="url(#pe8772909fd)" style="fill: #ffffff; stroke: #000000; stroke-linejoin: miter"/>
   </g>
   <g id="patch_24">
    <path d="M 584.181818 788.033898 
L 1271.454545 788.033898 
L 1271.454545 745.322034 
L 584.181818 745.322034 
z
" clip-path="url(#pe8772909fd)" style="fill: #ffffff; stroke: #000000; stroke-linejoin: miter"/>
   </g>
   <g id="patch_25">
    <path d="M 68.727273 873.457627 
L 1013.727273 873.457627 
L 1013.727273 830.745763 
L 68.727273 830.745763 
z
" clip-path="url(#pe8772909fd)" style="fill: #ffffff; stroke: #000000; stroke-linejoin: miter"/>
   </g>
   <g id="patch_26">
    <path d="M 798.954545 958.881356 
L 970.772727 958.881356 
L 970.772727 916.169492 
L 798.954545 916.169492 
z
" clip-path="url(#pe8772909fd)" style="fill: #ffffff; stroke: #000000; stroke-linejoin: miter"/>
   </g>
   <g id="patch_27">
    <path d="M 1142.590909 1044.305085 
L 1314.409091 1044.305085 
L 1314.409091 1001.59322 
L 1142.590909 1001.59322 
z
" clip-path="url(#pe8772909fd)" style="fill: #ffffff; stroke: #000000; stroke-linejoin: miter"/>
   </g>
   <g id="patch_28">
    <path d="M 455.318182 1129.728814 
L 1314.409091 1129.728814 
L 1314.409091 1087.016949 
L 455.318182 1087.016949 
z
" clip-path="url(#pe8772909fd)" style="fill: #ffffff; stroke: #000000; stroke-linejoin: miter"/>
   </g>
   <g id="patch_29">
    <path d="M 1142.590909 1215.152542 
L 1314.409091 1215.152542 
L 1314.409091 1172.440678 
L 1142.590909 1172.440678 
z
" clip-path="url(#pe8772909fd)" style="fill: #ffffff; stroke: #000000; stroke-linejoin: miter"/>
   </g>
   <g id="patch_30">
    <path d="M 1142.590909 1300.576271 
L 1314.409091 1300.576271 
L 1314.409091 1257.864407 
L 1142.590909 1257.864407 
z
" clip-path="url(#pe8772909fd)" style="fill: #ffffff; stroke: #000000; stroke-linejoin: miter"/>
   </g>
   <g id="patch_31">
    <path d="M 798.954545 1386 
L 1314.409091 1386 
L 1314.409091 1343.288136 
L 798.954545 1343.288136 
z
" clip-path="url(#pe8772909fd)" style="fill: #ffffff; stroke: #000000; stroke-linejoin: miter"/>
   </g>
   <g id="text_1">
    <!-- s -->
    <g transform="translate(189 138.917344)scale(0.17 -0.17)">
     <defs>
      <path id="DejaVuSans-73" d="M 2834 3397 
L 2834 2853 
Q 2591 2978 2328 3040 
Q 2066 3103 1784 3103 
Q 1356 3103 1142 2972 
Q 928 2841 928 2578 
Q 928 2378 1081 2264 
Q 1234 2150 1697 2047 
L 1894 2003 
Q 2506 1872 2764 1633 
Q 3022 1394 3022 966 
Q 3022 478 2636 193 
Q 2250 -91 1575 -91 
Q 1294 -91 989 -36 
Q 684 19 347 128 
L 347 722 
Q 666 556 975 473 
Q 1284 391 1588 391 
Q 1994 391 2212 530 
Q 2431 669 2431 922 
Q 2431 1156 2273 1281 
Q 2116 1406 1581 1522 
L 1381 1569 
Q 847 1681 609 1914 
Q 372 2147 372 2553 
Q 372 3047 722 3315 
Q 1072 3584 1716 3584 
Q 2034 3584 2315 3537 
Q 2597 3491 2834 3397 
z
" transform="scale(0.015625)"/>
     </defs>
     <use xlink:href="#DejaVuSans-73"/>
    </g>
   </g>
   <g id="text_2">
    <!-- n.l -->
    <g transform="translate(532.636364 211.527513)scale(0.17 -0.17)">
     <defs>
      <path id="DejaVuSans-6e" d="M 3513 2113 
L 3513 0 
L 2938 0 
L 2938 2094 
Q 2938 2591 2744 2837 
Q 2550 3084 2163 3084 
Q 1697 3084 1428 2787 
Q 1159 2491 1159 1978 
L 1159 0 
L 581 0 
L 581 3500 
L 1159 3500 
L 1159 2956 
Q 1366 3272 1645 3428 
Q 1925 3584 2291 3584 
Q 2894 3584 3203 3211 
Q 3513 2838 3513 2113 
z
" transform="scale(0.015625)"/>
      <path id="DejaVuSans-2e" d="M 684 794 
L 1344 794 
L 1344 0 
L 684 0 
L 684 794 
z
" transform="scale(0.015625)"/>
      <path id="DejaVuSans-6c" d="M 603 4863 
L 1178 4863 
L 1178 0 
L 603 0 
L 603 4863 
z
" transform="scale(0.015625)"/>
     </defs>
     <use xlink:href="#DejaVuSans-6e"/>
     <use xlink:href="#DejaVuSans-2e" x="63.378906"/>
     <use xlink:href="#DejaVuSans-6c" x="95.166016"/>
    </g>
   </g>
   <g id="text_3">
    <!-- n.l -->
    <g transform="translate(876.272727 296.951242)scale(0.17 -0.17)">
     <use xlink:href="#DejaVuSans-6e"/>
     <use xlink:href="#DejaVuSans-2e" x="63.378906"/>
     <use xlink:href="#DejaVuSans-6c" x="95.166016"/>
    </g>
   </g>
   <g id="text_4">
    <!-- n.l -->
    <g transform="translate(704.454545 382.374971)scale(0.17 -0.17)">
     <use xlink:href="#DejaVuSans-6e"/>
     <use xlink:href="#DejaVuSans-2e" x="63.378906"/>
     <use xlink:href="#DejaVuSans-6c" x="95.166016"/>
    </g>
   </g>
   <g id="text_5">
    <!-- n.l -->
    <g transform="translate(1048.090909 467.7987)scale(0.17 -0.17)">
     <use xlink:href="#DejaVuSans-6e"/>
     <use xlink:href="#DejaVuSans-2e" x="63.378906"/>
     <use xlink:href="#DejaVuSans-6c" x="95.166016"/>
    </g>
   </g>
   <g id="text_6">
    <!-- n.l -->
    <g transform="translate(1048.090909 553.222428)scale(0.17 -0.17)">
     <use xlink:href="#DejaVuSans-6e"/>
     <use xlink:href="#DejaVuSans-2e" x="63.378906"/>
     <use xlink:href="#DejaVuSans-6c" x="95.166016"/>
    </g>
   </g>
   <g id="text_7">
    <!-- n.l -->
    <g transform="translate(1391.727273 638.646157)scale(0.17 -0.17)">
     <use xlink:href="#DejaVuSans-6e"/>
     <use xlink:href="#DejaVuSans-2e" x="63.378906"/>
     <use xlink:href="#DejaVuSans-6c" x="95.166016"/>
    </g>
   </g>
   <g id="text_8">
    <!-- n.l -->
    <g transform="translate(1219.909091 724.069886)scale(0.17 -0.17)">
     <use xlink:href="#DejaVuSans-6e"/>
     <use xlink:href="#DejaVuSans-2e" x="63.378906"/>
     <use xlink:href="#DejaVuSans-6c" x="95.166016"/>
    </g>
   </g>
   <g id="text_9">
    <!-- n.l -->
    <g transform="translate(962.181818 809.493615)scale(0.17 -0.17)">
     <use xlink:href="#DejaVuSans-6e"/>
     <use xlink:href="#DejaVuSans-2e" x="63.378906"/>
     <use xlink:href="#DejaVuSans-6c" x="95.166016"/>
    </g>
   </g>
   <g id="text_10">
    <!-- n -->
    <g transform="translate(575.590909 894.917344)scale(0.17 -0.17)">
     <use xlink:href="#DejaVuSans-6e"/>
    </g>
   </g>
   <g id="text_11">
    <!-- n.l -->
    <g transform="translate(919.227273 980.341073)scale(0.17 -0.17)">
     <use xlink:href="#DejaVuSans-6e"/>
     <use xlink:href="#DejaVuSans-2e" x="63.378906"/>
     <use xlink:href="#DejaVuSans-6c" x="95.166016"/>
    </g>
   </g>
   <g id="text_12">
    <!-- n.l -->
    <g transform="translate(1262.863636 1065.764801)scale(0.17 -0.17)">
     <use xlink:href="#DejaVuSans-6e"/>
     <use xlink:href="#DejaVuSans-2e" x="63.378906"/>
     <use xlink:href="#DejaVuSans-6c" x="95.166016"/>
    </g>
   </g>
   <g id="text_13">
    <!-- n -->
    <g transform="translate(919.227273 1151.18853)scale(0.17 -0.17)">
     <use xlink:href="#DejaVuSans-6e"/>
    </g>
   </g>
   <g id="text_14">
    <!-- n.l -->
    <g transform="translate(1262.863636 1236.612259)scale(0.17 -0.17)">
     <use xlink:href="#DejaVuSans-6e"/>
     <use xlink:href="#DejaVuSans-2e" x="63.378906"/>
     <use xlink:href="#DejaVuSans-6c" x="95.166016"/>
    </g>
   </g>
   <g id="text_15">
    <!-- n.l -->
    <g transform="translate(1262.863636 1322.035988)scale(0.17 -0.17)">
     <use xlink:href="#DejaVuSans-6e"/>
     <use xlink:href="#DejaVuSans-2e" x="63.378906"/>
     <use xlink:href="#DejaVuSans-6c" x="95.166016"/>
    </g>
   </g>
   <g id="text_16">
    <!-- MOVIE_ID -->
    <g transform="translate(457.401009 173.016318)scale(0.17 -0.17)">
     <defs>
      <path id="DejaVuSans-4d" d="M 628 4666 
L 1569 4666 
L 2759 1491 
L 3956 4666 
L 4897 4666 
L 4897 0 
L 4281 0 
L 4281 4097 
L 3078 897 
L 2444 897 
L 1241 4097 
L 1241 0 
L 628 0 
L 628 4666 
z
" transform="scale(0.015625)"/>
      <path id="DejaVuSans-4f" d="M 2522 4238 
Q 1834 4238 1429 3725 
Q 1025 3213 1025 2328 
Q 1025 1447 1429 934 
Q 1834 422 2522 422 
Q 3209 422 3611 934 
Q 4013 1447 4013 2328 
Q 4013 3213 3611 3725 
Q 3209 4238 2522 4238 
z
M 2522 4750 
Q 3503 4750 4090 4092 
Q 4678 3434 4678 2328 
Q 4678 1225 4090 567 
Q 3503 -91 2522 -91 
Q 1538 -91 948 565 
Q 359 1222 359 2328 
Q 359 3434 948 4092 
Q 1538 4750 2522 4750 
z
" transform="scale(0.015625)"/>
      <path id="DejaVuSans-56" d="M 1831 0 
L 50 4666 
L 709 4666 
L 2188 738 
L 3669 4666 
L 4325 4666 
L 2547 0 
L 1831 0 
z
" transform="scale(0.015625)"/>
      <path id="DejaVuSans-49" d="M 628 4666 
L 1259 4666 
L 1259 0 
L 628 0 
L 628 4666 
z
" transform="scale(0.015625)"/>
      <path id="DejaVuSans-45" d="M 628 4666 
L 3578 4666 
L 3578 4134 
L 1259 4134 
L 1259 2753 
L 3481 2753 
L 3481 2222 
L 1259 2222 
L 1259 531 
L 3634 531 
L 3634 0 
L 628 0 
L 628 4666 
z
" transform="scale(0.015625)"/>
      <path id="DejaVuSans-5f" d="M 3263 -1063 
L 3263 -1509 
L -63 -1509 
L -63 -1063 
L 3263 -1063 
z
" transform="scale(0.015625)"/>
      <path id="DejaVuSans-44" d="M 1259 4147 
L 1259 519 
L 2022 519 
Q 2988 519 3436 956 
Q 3884 1394 3884 2338 
Q 3884 3275 3436 3711 
Q 2988 4147 2022 4147 
L 1259 4147 
z
M 628 4666 
L 1925 4666 
Q 3281 4666 3915 4102 
Q 4550 3538 4550 2338 
Q 4550 1131 3912 565 
Q 3275 0 1925 0 
L 628 0 
L 628 4666 
z
" transform="scale(0.015625)"/>
     </defs>
     <use xlink:href="#DejaVuSans-4d"/>
     <use xlink:href="#DejaVuSans-4f" x="86.279297"/>
     <use xlink:href="#DejaVuSans-56" x="163.240234"/>
     <use xlink:href="#DejaVuSans-49" x="231.648438"/>
     <use xlink:href="#DejaVuSans-45" x="261.140625"/>
     <use xlink:href="#DejaVuSans-5f" x="324.324219"/>
     <use xlink:href="#DejaVuSans-49" x="374.324219"/>
     <use xlink:href="#DejaVuSans-44" x="403.816406"/>
    </g>
   </g>
   <g id="text_17">
    <!-- LINKED_MOVIE_ID -->
    <g transform="translate(765.694638 258.440046)scale(0.17 -0.17)">
     <defs>
      <path id="DejaVuSans-4c" d="M 628 4666 
L 1259 4666 
L 1259 531 
L 3531 531 
L 3531 0 
L 628 0 
L 628 4666 
z
" transform="scale(0.015625)"/>
      <path id="DejaVuSans-4e" d="M 628 4666 
L 1478 4666 
L 3547 763 
L 3547 4666 
L 4159 4666 
L 4159 0 
L 3309 0 
L 1241 3903 
L 1241 0 
L 628 0 
L 628 4666 
z
" transform="scale(0.015625)"/>
      <path id="DejaVuSans-4b" d="M 628 4666 
L 1259 4666 
L 1259 2694 
L 3353 4666 
L 4166 4666 
L 1850 2491 
L 4331 0 
L 3500 0 
L 1259 2247 
L 1259 0 
L 628 0 
L 628 4666 
z
" transform="scale(0.015625)"/>
     </defs>
     <use xlink:href="#DejaVuSans-4c"/>
     <use xlink:href="#DejaVuSans-49" x="55.712891"/>
     <use xlink:href="#DejaVuSans-4e" x="85.205078"/>
     <use xlink:href="#DejaVuSans-4b" x="160.009766"/>
     <use xlink:href="#DejaVuSans-45" x="225.585938"/>
     <use xlink:href="#DejaVuSans-44" x="288.769531"/>
     <use xlink:href="#DejaVuSans-5f" x="365.771484"/>
     <use xlink:href="#DejaVuSans-4d" x="415.771484"/>
     <use xlink:href="#DejaVuSans-4f" x="502.050781"/>
     <use xlink:href="#DejaVuSans-56" x="579.011719"/>
     <use xlink:href="#DejaVuSans-49" x="647.419922"/>
     <use xlink:href="#DejaVuSans-45" x="676.912109"/>
     <use xlink:href="#DejaVuSans-5f" x="740.095703"/>
     <use xlink:href="#DejaVuSans-49" x="790.095703"/>
     <use xlink:href="#DejaVuSans-44" x="819.587891"/>
    </g>
   </g>
   <g id="text_18">
    <!-- = -->
    <g transform="translate(662.968175 344.25026)scale(0.17 -0.17)">
     <defs>
      <path id="DejaVuSans-3d" d="M 678 2906 
L 4684 2906 
L 4684 2381 
L 678 2381 
L 678 2906 
z
M 678 1631 
L 4684 1631 
L 4684 1100 
L 678 1100 
L 678 1631 
z
" transform="scale(0.015625)"/>
     </defs>
     <use xlink:href="#DejaVuSans-3d"/>
    </g>
   </g>
   <g id="text_19">
    <!-- NULL -->
    <g transform="translate(991.675085 429.673988)scale(0.17 -0.17)">
     <defs>
      <path id="DejaVuSans-55" d="M 556 4666 
L 1191 4666 
L 1191 1831 
Q 1191 1081 1462 751 
Q 1734 422 2344 422 
Q 2950 422 3222 751 
Q 3494 1081 3494 1831 
L 3494 4666 
L 4128 4666 
L 4128 1753 
Q 4128 841 3676 375 
Q 3225 -91 2344 -91 
Q 1459 -91 1007 375 
Q 556 841 556 1753 
L 556 4666 
z
" transform="scale(0.015625)"/>
     </defs>
     <use xlink:href="#DejaVuSans-4e"/>
     <use xlink:href="#DejaVuSans-55" x="74.804688"/>
     <use xlink:href="#DejaVuSans-4c" x="147.998047"/>
     <use xlink:href="#DejaVuSans-4c" x="203.710938"/>
    </g>
   </g>
   <g id="text_20">
    <!-- NOT -->
    <g transform="translate(995.485476 515.097717)scale(0.17 -0.17)">
     <defs>
      <path id="DejaVuSans-54" d="M -19 4666 
L 3928 4666 
L 3928 4134 
L 2272 4134 
L 2272 0 
L 1638 0 
L 1638 4134 
L -19 4134 
L -19 4666 
z
" transform="scale(0.015625)"/>
     </defs>
     <use xlink:href="#DejaVuSans-4e"/>
     <use xlink:href="#DejaVuSans-4f" x="74.804688"/>
     <use xlink:href="#DejaVuSans-54" x="153.515625"/>
    </g>
   </g>
   <g id="text_21">
    <!-- NOTE -->
    <g transform="translate(1333.750902 600.521446)scale(0.17 -0.17)">
     <use xlink:href="#DejaVuSans-4e"/>
     <use xlink:href="#DejaVuSans-4f" x="74.804688"/>
     <use xlink:href="#DejaVuSans-54" x="153.515625"/>
     <use xlink:href="#DejaVuSans-45" x="214.599609"/>
    </g>
   </g>
   <g id="text_22">
    <!-- IS -->
    <g transform="translate(1177.641783 685.945175)scale(0.17 -0.17)">
     <defs>
      <path id="DejaVuSans-53" d="M 3425 4513 
L 3425 3897 
Q 3066 4069 2747 4153 
Q 2428 4238 2131 4238 
Q 1616 4238 1336 4038 
Q 1056 3838 1056 3469 
Q 1056 3159 1242 3001 
Q 1428 2844 1947 2747 
L 2328 2669 
Q 3034 2534 3370 2195 
Q 3706 1856 3706 1288 
Q 3706 609 3251 259 
Q 2797 -91 1919 -91 
Q 1588 -91 1214 -16 
Q 841 59 441 206 
L 441 856 
Q 825 641 1194 531 
Q 1563 422 1919 422 
Q 2459 422 2753 634 
Q 3047 847 3047 1241 
Q 3047 1584 2836 1778 
Q 2625 1972 2144 2069 
L 1759 2144 
Q 1053 2284 737 2584 
Q 422 2884 422 3419 
Q 422 4038 858 4394 
Q 1294 4750 2059 4750 
Q 2388 4750 2728 4690 
Q 3069 4631 3425 4513 
z
" transform="scale(0.015625)"/>
     </defs>
     <use xlink:href="#DejaVuSans-49"/>
     <use xlink:href="#DejaVuSans-53" x="29.492188"/>
    </g>
   </g>
   <g id="text_23">
    <!-- AND -->
    <g transform="translate(909.099588 771.368904)scale(0.17 -0.17)">
     <defs>
      <path id="DejaVuSans-41" d="M 2188 4044 
L 1331 1722 
L 3047 1722 
L 2188 4044 
z
M 1831 4666 
L 2547 4666 
L 4325 0 
L 3669 0 
L 3244 1197 
L 1141 1197 
L 716 0 
L 50 0 
L 1831 4666 
z
" transform="scale(0.015625)"/>
     </defs>
     <use xlink:href="#DejaVuSans-41"/>
     <use xlink:href="#DejaVuSans-4e" x="68.408203"/>
     <use xlink:href="#DejaVuSans-44" x="143.212891"/>
    </g>
   </g>
   <g id="text_24">
    <!-- WHERE -->
    <g transform="translate(509.782585 856.792632)scale(0.17 -0.17)">
     <defs>
      <path id="DejaVuSans-57" d="M 213 4666 
L 850 4666 
L 1831 722 
L 2809 4666 
L 3519 4666 
L 4500 722 
L 5478 4666 
L 6119 4666 
L 4947 0 
L 4153 0 
L 3169 4050 
L 2175 0 
L 1381 0 
L 213 4666 
z
" transform="scale(0.015625)"/>
      <path id="DejaVuSans-48" d="M 628 4666 
L 1259 4666 
L 1259 2753 
L 3553 2753 
L 3553 4666 
L 4184 4666 
L 4184 0 
L 3553 0 
L 3553 2222 
L 1259 2222 
L 1259 0 
L 628 0 
L 628 4666 
z
" transform="scale(0.015625)"/>
      <path id="DejaVuSans-52" d="M 2841 2188 
Q 3044 2119 3236 1894 
Q 3428 1669 3622 1275 
L 4263 0 
L 3584 0 
L 2988 1197 
Q 2756 1666 2539 1819 
Q 2322 1972 1947 1972 
L 1259 1972 
L 1259 0 
L 628 0 
L 628 4666 
L 2053 4666 
Q 2853 4666 3247 4331 
Q 3641 3997 3641 3322 
Q 3641 2881 3436 2590 
Q 3231 2300 2841 2188 
z
M 1259 4147 
L 1259 2491 
L 2053 2491 
Q 2509 2491 2742 2702 
Q 2975 2913 2975 3322 
Q 2975 3731 2742 3939 
Q 2509 4147 2053 4147 
L 1259 4147 
z
" transform="scale(0.015625)"/>
     </defs>
     <use xlink:href="#DejaVuSans-57"/>
     <use xlink:href="#DejaVuSans-48" x="98.876953"/>
     <use xlink:href="#DejaVuSans-45" x="174.072266"/>
     <use xlink:href="#DejaVuSans-52" x="237.255859"/>
     <use xlink:href="#DejaVuSans-45" x="306.738281"/>
    </g>
   </g>
   <g id="text_25">
    <!-- MOVIE_LINK -->
    <g transform="translate(833.867621 941.829877)scale(0.17 -0.17)">
     <use xlink:href="#DejaVuSans-4d"/>
     <use xlink:href="#DejaVuSans-4f" x="86.279297"/>
     <use xlink:href="#DejaVuSans-56" x="163.240234"/>
     <use xlink:href="#DejaVuSans-49" x="231.648438"/>
     <use xlink:href="#DejaVuSans-45" x="261.140625"/>
     <use xlink:href="#DejaVuSans-5f" x="324.324219"/>
     <use xlink:href="#DejaVuSans-4c" x="374.324219"/>
     <use xlink:href="#DejaVuSans-49" x="430.037109"/>
     <use xlink:href="#DejaVuSans-4e" x="459.529297"/>
     <use xlink:href="#DejaVuSans-4b" x="534.333984"/>
    </g>
   </g>
   <g id="text_26">
    <!-- MOVIE_COMPANIES -->
    <g transform="translate(1146.688828 1027.253606)scale(0.17 -0.17)">
     <defs>
      <path id="DejaVuSans-43" d="M 4122 4306 
L 4122 3641 
Q 3803 3938 3442 4084 
Q 3081 4231 2675 4231 
Q 1875 4231 1450 3742 
Q 1025 3253 1025 2328 
Q 1025 1406 1450 917 
Q 1875 428 2675 428 
Q 3081 428 3442 575 
Q 3803 722 4122 1019 
L 4122 359 
Q 3791 134 3420 21 
Q 3050 -91 2638 -91 
Q 1578 -91 968 557 
Q 359 1206 359 2328 
Q 359 3453 968 4101 
Q 1578 4750 2638 4750 
Q 3056 4750 3426 4639 
Q 3797 4528 4122 4306 
z
" transform="scale(0.015625)"/>
      <path id="DejaVuSans-50" d="M 1259 4147 
L 1259 2394 
L 2053 2394 
Q 2494 2394 2734 2622 
Q 2975 2850 2975 3272 
Q 2975 3691 2734 3919 
Q 2494 4147 2053 4147 
L 1259 4147 
z
M 628 4666 
L 2053 4666 
Q 2838 4666 3239 4311 
Q 3641 3956 3641 3272 
Q 3641 2581 3239 2228 
Q 2838 1875 2053 1875 
L 1259 1875 
L 1259 0 
L 628 0 
L 628 4666 
z
" transform="scale(0.015625)"/>
     </defs>
     <use xlink:href="#DejaVuSans-4d"/>
     <use xlink:href="#DejaVuSans-4f" x="86.279297"/>
     <use xlink:href="#DejaVuSans-56" x="163.240234"/>
     <use xlink:href="#DejaVuSans-49" x="231.648438"/>
     <use xlink:href="#DejaVuSans-45" x="261.140625"/>
     <use xlink:href="#DejaVuSans-5f" x="324.324219"/>
     <use xlink:href="#DejaVuSans-43" x="374.324219"/>
     <use xlink:href="#DejaVuSans-4f" x="444.148438"/>
     <use xlink:href="#DejaVuSans-4d" x="522.859375"/>
     <use xlink:href="#DejaVuSans-50" x="609.138672"/>
     <use xlink:href="#DejaVuSans-41" x="663.066406"/>
     <use xlink:href="#DejaVuSans-4e" x="731.474609"/>
     <use xlink:href="#DejaVuSans-49" x="806.279297"/>
     <use xlink:href="#DejaVuSans-45" x="835.771484"/>
     <use xlink:href="#DejaVuSans-53" x="898.955078"/>
    </g>
   </g>
   <g id="text_27">
    <!-- FROM -->
    <g transform="translate(860.043636 1113.063819)scale(0.17 -0.17)">
     <defs>
      <path id="DejaVuSans-46" d="M 628 4666 
L 3309 4666 
L 3309 4134 
L 1259 4134 
L 1259 2759 
L 3109 2759 
L 3109 2228 
L 1259 2228 
L 1259 0 
L 628 0 
L 628 4666 
z
" transform="scale(0.015625)"/>
     </defs>
     <use xlink:href="#DejaVuSans-46"/>
     <use xlink:href="#DejaVuSans-52" x="57.519531"/>
     <use xlink:href="#DejaVuSans-4f" x="127.001953"/>
     <use xlink:href="#DejaVuSans-4d" x="205.712891"/>
    </g>
   </g>
   <g id="text_28">
    <!-- NOTE -->
    <g transform="translate(1204.887266 1198.487548)scale(0.17 -0.17)">
     <use xlink:href="#DejaVuSans-4e"/>
     <use xlink:href="#DejaVuSans-4f" x="74.804688"/>
     <use xlink:href="#DejaVuSans-54" x="153.515625"/>
     <use xlink:href="#DejaVuSans-45" x="214.599609"/>
    </g>
   </g>
   <g id="text_29">
    <!-- MIN -->
    <g transform="translate(1212.299531 1283.911276)scale(0.17 -0.17)">
     <use xlink:href="#DejaVuSans-4d"/>
     <use xlink:href="#DejaVuSans-49" x="86.279297"/>
     <use xlink:href="#DejaVuSans-4e" x="115.771484"/>
    </g>
   </g>
   <g id="text_30">
    <!-- SELECT -->
    <g transform="translate(1024.680646 1369.335005)scale(0.17 -0.17)">
     <use xlink:href="#DejaVuSans-53"/>
     <use xlink:href="#DejaVuSans-45" x="63.476562"/>
     <use xlink:href="#DejaVuSans-4c" x="126.660156"/>
     <use xlink:href="#DejaVuSans-45" x="182.373047"/>
     <use xlink:href="#DejaVuSans-43" x="245.556641"/>
     <use xlink:href="#DejaVuSans-54" x="315.380859"/>
    </g>
   </g>
  </g>
 </g>
 <defs>
  <clipPath id="pe8772909fd">
   <rect x="0" y="0" width="1512" height="1512"/>
  </clipPath>
 </defs>
</svg>
