<?xml version="1.0" encoding="utf-8" standalone="no"?>
<!DOCTYPE svg PUBLIC "-//W3C//DTD SVG 1.1//EN"
  "http://www.w3.org/Graphics/SVG/1.1/DTD/svg11.dtd">
<svg xmlns:xlink="http://www.w3.org/1999/xlink" width="1656pt" height="1584pt" viewBox="0 0 1656 1584" xmlns="http://www.w3.org/2000/svg" version="1.1">
 <metadata>
  <rdf:RDF xmlns:dc="http://purl.org/dc/elements/1.1/" xmlns:cc="http://creativecommons.org/ns#" xmlns:rdf="http://www.w3.org/1999/02/22-rdf-syntax-ns#">
   <cc:Work>
    <dc:type rdf:resource="http://purl.org/dc/dcmitype/StillImage"/>
    <dc:date>2022-09-21T18:14:14.705366</dc:date>
    <dc:format>image/svg+xml</dc:format>
    <dc:creator>
     <cc:Agent>
      <dc:title>Matplotlib v3.5.1, https://matplotlib.org/</dc:title>
     </cc:Agent>
    </dc:creator>
   </cc:Work>
  </rdf:RDF>
 </metadata>
 <defs>
  <style type="text/css">*{stroke-linejoin: round; stroke-linecap: butt}</style>
 </defs>
 <g id="figure_1">
  <g id="patch_1">
   <path d="M 0 1584 
L 1656 1584 
L 1656 0 
L 0 0 
z
" style="fill: #ffffff"/>
  </g>
  <g id="axes_1">
   <g id="patch_2">
    <path d="M 724.175549 132 
Q 724.175549 788.140351 724.175549 788.140351 
" clip-path="url(#p62aa6d7cad)" style="fill: none; stroke: #000000; stroke-linejoin: miter"/>
   </g>
   <g id="patch_3">
    <path d="M 282.92163 147.438596 
Q 101.22884 147.438596 101.22884 155.157895 
" clip-path="url(#p62aa6d7cad)" style="fill: none; stroke: #000000; stroke-linejoin: miter"/>
   </g>
   <g id="patch_4">
    <path d="M 282.92163 147.438596 
Q 360.789969 147.438596 360.789969 155.157895 
" clip-path="url(#p62aa6d7cad)" style="fill: none; stroke: #000000; stroke-linejoin: miter"/>
   </g>
   <g id="patch_5">
    <path d="M 101.22884 155.157895 
Q 101.22884 232.350877 101.22884 232.350877 
" clip-path="url(#p62aa6d7cad)" style="fill: none; stroke: #000000; stroke-linejoin: miter"/>
   </g>
   <g id="patch_6">
    <path d="M 360.789969 155.157895 
Q 360.789969 541.122807 360.789969 541.122807 
" clip-path="url(#p62aa6d7cad)" style="fill: none; stroke: #000000; stroke-linejoin: miter"/>
   </g>
   <g id="patch_7">
    <path d="M 542.482759 178.315789 
Q 412.702194 178.315789 412.702194 186.035088 
" clip-path="url(#p62aa6d7cad)" style="fill: none; stroke: #000000; stroke-linejoin: miter"/>
   </g>
   <g id="patch_8">
    <path d="M 542.482759 178.315789 
Q 672.263323 178.315789 672.263323 186.035088 
" clip-path="url(#p62aa6d7cad)" style="fill: none; stroke: #000000; stroke-linejoin: miter"/>
   </g>
   <g id="patch_9">
    <path d="M 412.702194 186.035088 
Q 412.702194 541.122807 412.702194 541.122807 
" clip-path="url(#p62aa6d7cad)" style="fill: none; stroke: #000000; stroke-linejoin: miter"/>
   </g>
   <g id="patch_10">
    <path d="M 672.263323 186.035088 
Q 672.263323 788.140351 672.263323 788.140351 
" clip-path="url(#p62aa6d7cad)" style="fill: none; stroke: #000000; stroke-linejoin: miter"/>
   </g>
   <g id="patch_11">
    <path d="M 282.92163 209.192982 
Q 256.965517 209.192982 256.965517 216.912281 
" clip-path="url(#p62aa6d7cad)" style="fill: none; stroke: #000000; stroke-linejoin: miter"/>
   </g>
   <g id="patch_12">
    <path d="M 282.92163 209.192982 
Q 308.877743 209.192982 308.877743 216.912281 
" clip-path="url(#p62aa6d7cad)" style="fill: none; stroke: #000000; stroke-linejoin: miter"/>
   </g>
   <g id="patch_13">
    <path d="M 256.965517 216.912281 
Q 256.965517 232.350877 256.965517 232.350877 
" clip-path="url(#p62aa6d7cad)" style="fill: none; stroke: #000000; stroke-linejoin: miter"/>
   </g>
   <g id="patch_14">
    <path d="M 308.877743 216.912281 
Q 308.877743 448.491228 308.877743 448.491228 
" clip-path="url(#p62aa6d7cad)" style="fill: none; stroke: #000000; stroke-linejoin: miter"/>
   </g>
   <g id="patch_15">
    <path d="M 179.097179 270.947368 
Q 101.22884 270.947368 101.22884 278.666667 
" clip-path="url(#p62aa6d7cad)" style="fill: none; stroke: #000000; stroke-linejoin: miter"/>
   </g>
   <g id="patch_16">
    <path d="M 179.097179 270.947368 
Q 256.965517 270.947368 256.965517 278.666667 
" clip-path="url(#p62aa6d7cad)" style="fill: none; stroke: #000000; stroke-linejoin: miter"/>
   </g>
   <g id="patch_17">
    <path d="M 101.22884 278.666667 
Q 101.22884 324.982456 101.22884 324.982456 
" clip-path="url(#p62aa6d7cad)" style="fill: none; stroke: #000000; stroke-linejoin: miter"/>
   </g>
   <g id="patch_18">
    <path d="M 256.965517 278.666667 
Q 256.965517 448.491228 256.965517 448.491228 
" clip-path="url(#p62aa6d7cad)" style="fill: none; stroke: #000000; stroke-linejoin: miter"/>
   </g>
   <g id="patch_19">
    <path d="M 179.097179 301.824561 
Q 153.141066 301.824561 153.141066 309.54386 
" clip-path="url(#p62aa6d7cad)" style="fill: none; stroke: #000000; stroke-linejoin: miter"/>
   </g>
   <g id="patch_20">
    <path d="M 179.097179 301.824561 
Q 205.053292 301.824561 205.053292 309.54386 
" clip-path="url(#p62aa6d7cad)" style="fill: none; stroke: #000000; stroke-linejoin: miter"/>
   </g>
   <g id="patch_21">
    <path d="M 153.141066 309.54386 
Q 153.141066 324.982456 153.141066 324.982456 
" clip-path="url(#p62aa6d7cad)" style="fill: none; stroke: #000000; stroke-linejoin: miter"/>
   </g>
   <g id="patch_22">
    <path d="M 205.053292 309.54386 
Q 205.053292 417.614035 205.053292 417.614035 
" clip-path="url(#p62aa6d7cad)" style="fill: none; stroke: #000000; stroke-linejoin: miter"/>
   </g>
   <g id="patch_23">
    <path d="M 127.184953 363.578947 
Q 101.22884 363.578947 101.22884 371.298246 
" clip-path="url(#p62aa6d7cad)" style="fill: none; stroke: #000000; stroke-linejoin: miter"/>
   </g>
   <g id="patch_24">
    <path d="M 127.184953 363.578947 
Q 153.141066 363.578947 153.141066 371.298246 
" clip-path="url(#p62aa6d7cad)" style="fill: none; stroke: #000000; stroke-linejoin: miter"/>
   </g>
   <g id="patch_25">
    <path d="M 101.22884 371.298246 
Q 101.22884 386.736842 101.22884 386.736842 
" clip-path="url(#p62aa6d7cad)" style="fill: none; stroke: #000000; stroke-linejoin: miter"/>
   </g>
   <g id="patch_26">
    <path d="M 153.141066 371.298246 
Q 153.141066 417.614035 153.141066 417.614035 
" clip-path="url(#p62aa6d7cad)" style="fill: none; stroke: #000000; stroke-linejoin: miter"/>
   </g>
   <g id="patch_27">
    <path d="M 542.482759 487.087719 
Q 464.61442 487.087719 464.61442 494.807018 
" clip-path="url(#p62aa6d7cad)" style="fill: none; stroke: #000000; stroke-linejoin: miter"/>
   </g>
   <g id="patch_28">
    <path d="M 542.482759 487.087719 
Q 620.351097 487.087719 620.351097 494.807018 
" clip-path="url(#p62aa6d7cad)" style="fill: none; stroke: #000000; stroke-linejoin: miter"/>
   </g>
   <g id="patch_29">
    <path d="M 464.61442 494.807018 
Q 464.61442 541.122807 464.61442 541.122807 
" clip-path="url(#p62aa6d7cad)" style="fill: none; stroke: #000000; stroke-linejoin: miter"/>
   </g>
   <g id="patch_30">
    <path d="M 620.351097 494.807018 
Q 620.351097 726.385965 620.351097 726.385965 
" clip-path="url(#p62aa6d7cad)" style="fill: none; stroke: #000000; stroke-linejoin: miter"/>
   </g>
   <g id="patch_31">
    <path d="M 542.482759 517.964912 
Q 516.526646 517.964912 516.526646 525.684211 
" clip-path="url(#p62aa6d7cad)" style="fill: none; stroke: #000000; stroke-linejoin: miter"/>
   </g>
   <g id="patch_32">
    <path d="M 542.482759 517.964912 
Q 568.438871 517.964912 568.438871 525.684211 
" clip-path="url(#p62aa6d7cad)" style="fill: none; stroke: #000000; stroke-linejoin: miter"/>
   </g>
   <g id="patch_33">
    <path d="M 516.526646 525.684211 
Q 516.526646 541.122807 516.526646 541.122807 
" clip-path="url(#p62aa6d7cad)" style="fill: none; stroke: #000000; stroke-linejoin: miter"/>
   </g>
   <g id="patch_34">
    <path d="M 568.438871 525.684211 
Q 568.438871 633.754386 568.438871 633.754386 
" clip-path="url(#p62aa6d7cad)" style="fill: none; stroke: #000000; stroke-linejoin: miter"/>
   </g>
   <g id="patch_35">
    <path d="M 490.570533 579.719298 
Q 464.61442 579.719298 464.61442 587.438596 
" clip-path="url(#p62aa6d7cad)" style="fill: none; stroke: #000000; stroke-linejoin: miter"/>
   </g>
   <g id="patch_36">
    <path d="M 490.570533 579.719298 
Q 516.526646 579.719298 516.526646 587.438596 
" clip-path="url(#p62aa6d7cad)" style="fill: none; stroke: #000000; stroke-linejoin: miter"/>
   </g>
   <g id="patch_37">
    <path d="M 464.61442 587.438596 
Q 464.61442 602.877193 464.61442 602.877193 
" clip-path="url(#p62aa6d7cad)" style="fill: none; stroke: #000000; stroke-linejoin: miter"/>
   </g>
   <g id="patch_38">
    <path d="M 516.526646 587.438596 
Q 516.526646 633.754386 516.526646 633.754386 
" clip-path="url(#p62aa6d7cad)" style="fill: none; stroke: #000000; stroke-linejoin: miter"/>
   </g>
   <g id="patch_39">
    <path d="M 542.482759 672.350877 
Q 516.526646 672.350877 516.526646 680.070175 
" clip-path="url(#p62aa6d7cad)" style="fill: none; stroke: #000000; stroke-linejoin: miter"/>
   </g>
   <g id="patch_40">
    <path d="M 542.482759 672.350877 
Q 568.438871 672.350877 568.438871 680.070175 
" clip-path="url(#p62aa6d7cad)" style="fill: none; stroke: #000000; stroke-linejoin: miter"/>
   </g>
   <g id="patch_41">
    <path d="M 516.526646 680.070175 
Q 516.526646 695.508772 516.526646 695.508772 
" clip-path="url(#p62aa6d7cad)" style="fill: none; stroke: #000000; stroke-linejoin: miter"/>
   </g>
   <g id="patch_42">
    <path d="M 568.438871 680.070175 
Q 568.438871 726.385965 568.438871 726.385965 
" clip-path="url(#p62aa6d7cad)" style="fill: none; stroke: #000000; stroke-linejoin: miter"/>
   </g>
   <g id="patch_43">
    <path d="M 802.043887 764.982456 
Q 776.087774 764.982456 776.087774 772.701754 
" clip-path="url(#p62aa6d7cad)" style="fill: none; stroke: #000000; stroke-linejoin: miter"/>
   </g>
   <g id="patch_44">
    <path d="M 802.043887 764.982456 
Q 828 764.982456 828 772.701754 
" clip-path="url(#p62aa6d7cad)" style="fill: none; stroke: #000000; stroke-linejoin: miter"/>
   </g>
   <g id="patch_45">
    <path d="M 776.087774 772.701754 
Q 776.087774 788.140351 776.087774 788.140351 
" clip-path="url(#p62aa6d7cad)" style="fill: none; stroke: #000000; stroke-linejoin: miter"/>
   </g>
   <g id="patch_46">
    <path d="M 828 772.701754 
Q 828 880.77193 828 880.77193 
" clip-path="url(#p62aa6d7cad)" style="fill: none; stroke: #000000; stroke-linejoin: miter"/>
   </g>
   <g id="patch_47">
    <path d="M 957.780564 826.736842 
Q 879.912226 826.736842 879.912226 834.45614 
" clip-path="url(#p62aa6d7cad)" style="fill: none; stroke: #000000; stroke-linejoin: miter"/>
   </g>
   <g id="patch_48">
    <path d="M 957.780564 826.736842 
Q 1347.122257 826.736842 1347.122257 834.45614 
" clip-path="url(#p62aa6d7cad)" style="fill: none; stroke: #000000; stroke-linejoin: miter"/>
   </g>
   <g id="patch_49">
    <path d="M 879.912226 834.45614 
Q 879.912226 880.77193 879.912226 880.77193 
" clip-path="url(#p62aa6d7cad)" style="fill: none; stroke: #000000; stroke-linejoin: miter"/>
   </g>
   <g id="patch_50">
    <path d="M 1347.122257 834.45614 
Q 1347.122257 1251.298246 1347.122257 1251.298246 
" clip-path="url(#p62aa6d7cad)" style="fill: none; stroke: #000000; stroke-linejoin: miter"/>
   </g>
   <g id="patch_51">
    <path d="M 957.780564 857.614035 
Q 931.824451 857.614035 931.824451 865.333333 
" clip-path="url(#p62aa6d7cad)" style="fill: none; stroke: #000000; stroke-linejoin: miter"/>
   </g>
   <g id="patch_52">
    <path d="M 957.780564 857.614035 
Q 983.736677 857.614035 983.736677 865.333333 
" clip-path="url(#p62aa6d7cad)" style="fill: none; stroke: #000000; stroke-linejoin: miter"/>
   </g>
   <g id="patch_53">
    <path d="M 931.824451 865.333333 
Q 931.824451 880.77193 931.824451 880.77193 
" clip-path="url(#p62aa6d7cad)" style="fill: none; stroke: #000000; stroke-linejoin: miter"/>
   </g>
   <g id="patch_54">
    <path d="M 983.736677 865.333333 
Q 983.736677 973.403509 983.736677 973.403509 
" clip-path="url(#p62aa6d7cad)" style="fill: none; stroke: #000000; stroke-linejoin: miter"/>
   </g>
   <g id="patch_55">
    <path d="M 1113.517241 919.368421 
Q 1035.648903 919.368421 1035.648903 927.087719 
" clip-path="url(#p62aa6d7cad)" style="fill: none; stroke: #000000; stroke-linejoin: miter"/>
   </g>
   <g id="patch_56">
    <path d="M 1113.517241 919.368421 
Q 1191.38558 919.368421 1191.38558 927.087719 
" clip-path="url(#p62aa6d7cad)" style="fill: none; stroke: #000000; stroke-linejoin: miter"/>
   </g>
   <g id="patch_57">
    <path d="M 1035.648903 927.087719 
Q 1035.648903 973.403509 1035.648903 973.403509 
" clip-path="url(#p62aa6d7cad)" style="fill: none; stroke: #000000; stroke-linejoin: miter"/>
   </g>
   <g id="patch_58">
    <path d="M 1191.38558 927.087719 
Q 1191.38558 1127.789474 1191.38558 1127.789474 
" clip-path="url(#p62aa6d7cad)" style="fill: none; stroke: #000000; stroke-linejoin: miter"/>
   </g>
   <g id="patch_59">
    <path d="M 1113.517241 950.245614 
Q 1087.561129 950.245614 1087.561129 957.964912 
" clip-path="url(#p62aa6d7cad)" style="fill: none; stroke: #000000; stroke-linejoin: miter"/>
   </g>
   <g id="patch_60">
    <path d="M 1113.517241 950.245614 
Q 1139.473354 950.245614 1139.473354 957.964912 
" clip-path="url(#p62aa6d7cad)" style="fill: none; stroke: #000000; stroke-linejoin: miter"/>
   </g>
   <g id="patch_61">
    <path d="M 1087.561129 957.964912 
Q 1087.561129 973.403509 1087.561129 973.403509 
" clip-path="url(#p62aa6d7cad)" style="fill: none; stroke: #000000; stroke-linejoin: miter"/>
   </g>
   <g id="patch_62">
    <path d="M 1139.473354 957.964912 
Q 1139.473354 1066.035088 1139.473354 1066.035088 
" clip-path="url(#p62aa6d7cad)" style="fill: none; stroke: #000000; stroke-linejoin: miter"/>
   </g>
   <g id="patch_63">
    <path d="M 1061.605016 1012 
Q 1035.648903 1012 1035.648903 1019.719298 
" clip-path="url(#p62aa6d7cad)" style="fill: none; stroke: #000000; stroke-linejoin: miter"/>
   </g>
   <g id="patch_64">
    <path d="M 1061.605016 1012 
Q 1087.561129 1012 1087.561129 1019.719298 
" clip-path="url(#p62aa6d7cad)" style="fill: none; stroke: #000000; stroke-linejoin: miter"/>
   </g>
   <g id="patch_65">
    <path d="M 1035.648903 1019.719298 
Q 1035.648903 1035.157895 1035.648903 1035.157895 
" clip-path="url(#p62aa6d7cad)" style="fill: none; stroke: #000000; stroke-linejoin: miter"/>
   </g>
   <g id="patch_66">
    <path d="M 1087.561129 1019.719298 
Q 1087.561129 1066.035088 1087.561129 1066.035088 
" clip-path="url(#p62aa6d7cad)" style="fill: none; stroke: #000000; stroke-linejoin: miter"/>
   </g>
   <g id="patch_67">
    <path d="M 1269.253918 1104.631579 
Q 1243.297806 1104.631579 1243.297806 1112.350877 
" clip-path="url(#p62aa6d7cad)" style="fill: none; stroke: #000000; stroke-linejoin: miter"/>
   </g>
   <g id="patch_68">
    <path d="M 1269.253918 1104.631579 
Q 1295.210031 1104.631579 1295.210031 1112.350877 
" clip-path="url(#p62aa6d7cad)" style="fill: none; stroke: #000000; stroke-linejoin: miter"/>
   </g>
   <g id="patch_69">
    <path d="M 1243.297806 1112.350877 
Q 1243.297806 1127.789474 1243.297806 1127.789474 
" clip-path="url(#p62aa6d7cad)" style="fill: none; stroke: #000000; stroke-linejoin: miter"/>
   </g>
   <g id="patch_70">
    <path d="M 1295.210031 1112.350877 
Q 1295.210031 1158.666667 1295.210031 1158.666667 
" clip-path="url(#p62aa6d7cad)" style="fill: none; stroke: #000000; stroke-linejoin: miter"/>
   </g>
   <g id="patch_71">
    <path d="M 1476.902821 1197.263158 
Q 1399.034483 1197.263158 1399.034483 1204.982456 
" clip-path="url(#p62aa6d7cad)" style="fill: none; stroke: #000000; stroke-linejoin: miter"/>
   </g>
   <g id="patch_72">
    <path d="M 1476.902821 1197.263158 
Q 1554.77116 1197.263158 1554.77116 1204.982456 
" clip-path="url(#p62aa6d7cad)" style="fill: none; stroke: #000000; stroke-linejoin: miter"/>
   </g>
   <g id="patch_73">
    <path d="M 1399.034483 1204.982456 
Q 1399.034483 1251.298246 1399.034483 1251.298246 
" clip-path="url(#p62aa6d7cad)" style="fill: none; stroke: #000000; stroke-linejoin: miter"/>
   </g>
   <g id="patch_74">
    <path d="M 1554.77116 1204.982456 
Q 1554.77116 1436.561404 1554.77116 1436.561404 
" clip-path="url(#p62aa6d7cad)" style="fill: none; stroke: #000000; stroke-linejoin: miter"/>
   </g>
   <g id="patch_75">
    <path d="M 1476.902821 1228.140351 
Q 1450.946708 1228.140351 1450.946708 1235.859649 
" clip-path="url(#p62aa6d7cad)" style="fill: none; stroke: #000000; stroke-linejoin: miter"/>
   </g>
   <g id="patch_76">
    <path d="M 1476.902821 1228.140351 
Q 1502.858934 1228.140351 1502.858934 1235.859649 
" clip-path="url(#p62aa6d7cad)" style="fill: none; stroke: #000000; stroke-linejoin: miter"/>
   </g>
   <g id="patch_77">
    <path d="M 1450.946708 1235.859649 
Q 1450.946708 1251.298246 1450.946708 1251.298246 
" clip-path="url(#p62aa6d7cad)" style="fill: none; stroke: #000000; stroke-linejoin: miter"/>
   </g>
   <g id="patch_78">
    <path d="M 1502.858934 1235.859649 
Q 1502.858934 1343.929825 1502.858934 1343.929825 
" clip-path="url(#p62aa6d7cad)" style="fill: none; stroke: #000000; stroke-linejoin: miter"/>
   </g>
   <g id="patch_79">
    <path d="M 1424.990596 1289.894737 
Q 1399.034483 1289.894737 1399.034483 1297.614035 
" clip-path="url(#p62aa6d7cad)" style="fill: none; stroke: #000000; stroke-linejoin: miter"/>
   </g>
   <g id="patch_80">
    <path d="M 1424.990596 1289.894737 
Q 1450.946708 1289.894737 1450.946708 1297.614035 
" clip-path="url(#p62aa6d7cad)" style="fill: none; stroke: #000000; stroke-linejoin: miter"/>
   </g>
   <g id="patch_81">
    <path d="M 1399.034483 1297.614035 
Q 1399.034483 1313.052632 1399.034483 1313.052632 
" clip-path="url(#p62aa6d7cad)" style="fill: none; stroke: #000000; stroke-linejoin: miter"/>
   </g>
   <g id="patch_82">
    <path d="M 1450.946708 1297.614035 
Q 1450.946708 1343.929825 1450.946708 1343.929825 
" clip-path="url(#p62aa6d7cad)" style="fill: none; stroke: #000000; stroke-linejoin: miter"/>
   </g>
   <g id="patch_83">
    <path d="M 1476.902821 1382.526316 
Q 1450.946708 1382.526316 1450.946708 1390.245614 
" clip-path="url(#p62aa6d7cad)" style="fill: none; stroke: #000000; stroke-linejoin: miter"/>
   </g>
   <g id="patch_84">
    <path d="M 1476.902821 1382.526316 
Q 1502.858934 1382.526316 1502.858934 1390.245614 
" clip-path="url(#p62aa6d7cad)" style="fill: none; stroke: #000000; stroke-linejoin: miter"/>
   </g>
   <g id="patch_85">
    <path d="M 1450.946708 1390.245614 
Q 1450.946708 1405.684211 1450.946708 1405.684211 
" clip-path="url(#p62aa6d7cad)" style="fill: none; stroke: #000000; stroke-linejoin: miter"/>
   </g>
   <g id="patch_86">
    <path d="M 1502.858934 1390.245614 
Q 1502.858934 1436.561404 1502.858934 1436.561404 
" clip-path="url(#p62aa6d7cad)" style="fill: none; stroke: #000000; stroke-linejoin: miter"/>
   </g>
   <g id="patch_87">
    <path d="M 75.272727 247.789474 
L 282.92163 247.789474 
L 282.92163 232.350877 
L 75.272727 232.350877 
z
" clip-path="url(#p62aa6d7cad)" style="fill: #ffffff; stroke: #000000; stroke-linejoin: miter"/>
   </g>
   <g id="patch_88">
    <path d="M 75.272727 340.421053 
L 179.097179 340.421053 
L 179.097179 324.982456 
L 75.272727 324.982456 
z
" clip-path="url(#p62aa6d7cad)" style="fill: #ffffff; stroke: #000000; stroke-linejoin: miter"/>
   </g>
   <g id="patch_89">
    <path d="M 75.272727 402.175439 
L 127.184953 402.175439 
L 127.184953 386.736842 
L 75.272727 386.736842 
z
" clip-path="url(#p62aa6d7cad)" style="fill: #ffffff; stroke: #000000; stroke-linejoin: miter"/>
   </g>
   <g id="patch_90">
    <path d="M 127.184953 433.052632 
L 231.009404 433.052632 
L 231.009404 417.614035 
L 127.184953 417.614035 
z
" clip-path="url(#p62aa6d7cad)" style="fill: #ffffff; stroke: #000000; stroke-linejoin: miter"/>
   </g>
   <g id="patch_91">
    <path d="M 231.009404 463.929825 
L 334.833856 463.929825 
L 334.833856 448.491228 
L 231.009404 448.491228 
z
" clip-path="url(#p62aa6d7cad)" style="fill: #ffffff; stroke: #000000; stroke-linejoin: miter"/>
   </g>
   <g id="patch_92">
    <path d="M 334.833856 556.561404 
L 542.482759 556.561404 
L 542.482759 541.122807 
L 334.833856 541.122807 
z
" clip-path="url(#p62aa6d7cad)" style="fill: #ffffff; stroke: #000000; stroke-linejoin: miter"/>
   </g>
   <g id="patch_93">
    <path d="M 438.658307 618.315789 
L 490.570533 618.315789 
L 490.570533 602.877193 
L 438.658307 602.877193 
z
" clip-path="url(#p62aa6d7cad)" style="fill: #ffffff; stroke: #000000; stroke-linejoin: miter"/>
   </g>
   <g id="patch_94">
    <path d="M 490.570533 649.192982 
L 594.394984 649.192982 
L 594.394984 633.754386 
L 490.570533 633.754386 
z
" clip-path="url(#p62aa6d7cad)" style="fill: #ffffff; stroke: #000000; stroke-linejoin: miter"/>
   </g>
   <g id="patch_95">
    <path d="M 490.570533 710.947368 
L 542.482759 710.947368 
L 542.482759 695.508772 
L 490.570533 695.508772 
z
" clip-path="url(#p62aa6d7cad)" style="fill: #ffffff; stroke: #000000; stroke-linejoin: miter"/>
   </g>
   <g id="patch_96">
    <path d="M 542.482759 741.824561 
L 646.30721 741.824561 
L 646.30721 726.385965 
L 542.482759 726.385965 
z
" clip-path="url(#p62aa6d7cad)" style="fill: #ffffff; stroke: #000000; stroke-linejoin: miter"/>
   </g>
   <g id="patch_97">
    <path d="M 646.30721 803.578947 
L 802.043887 803.578947 
L 802.043887 788.140351 
L 646.30721 788.140351 
z
" clip-path="url(#p62aa6d7cad)" style="fill: #ffffff; stroke: #000000; stroke-linejoin: miter"/>
   </g>
   <g id="patch_98">
    <path d="M 802.043887 896.210526 
L 957.780564 896.210526 
L 957.780564 880.77193 
L 802.043887 880.77193 
z
" clip-path="url(#p62aa6d7cad)" style="fill: #ffffff; stroke: #000000; stroke-linejoin: miter"/>
   </g>
   <g id="patch_99">
    <path d="M 957.780564 988.842105 
L 1113.517241 988.842105 
L 1113.517241 973.403509 
L 957.780564 973.403509 
z
" clip-path="url(#p62aa6d7cad)" style="fill: #ffffff; stroke: #000000; stroke-linejoin: miter"/>
   </g>
   <g id="patch_100">
    <path d="M 1009.69279 1050.596491 
L 1061.605016 1050.596491 
L 1061.605016 1035.157895 
L 1009.69279 1035.157895 
z
" clip-path="url(#p62aa6d7cad)" style="fill: #ffffff; stroke: #000000; stroke-linejoin: miter"/>
   </g>
   <g id="patch_101">
    <path d="M 1061.605016 1081.473684 
L 1165.429467 1081.473684 
L 1165.429467 1066.035088 
L 1061.605016 1066.035088 
z
" clip-path="url(#p62aa6d7cad)" style="fill: #ffffff; stroke: #000000; stroke-linejoin: miter"/>
   </g>
   <g id="patch_102">
    <path d="M 1165.429467 1143.22807 
L 1269.253918 1143.22807 
L 1269.253918 1127.789474 
L 1165.429467 1127.789474 
z
" clip-path="url(#p62aa6d7cad)" style="fill: #ffffff; stroke: #000000; stroke-linejoin: miter"/>
   </g>
   <g id="patch_103">
    <path d="M 1269.253918 1174.105263 
L 1321.166144 1174.105263 
L 1321.166144 1158.666667 
L 1269.253918 1158.666667 
z
" clip-path="url(#p62aa6d7cad)" style="fill: #ffffff; stroke: #000000; stroke-linejoin: miter"/>
   </g>
   <g id="patch_104">
    <path d="M 1321.166144 1266.736842 
L 1476.902821 1266.736842 
L 1476.902821 1251.298246 
L 1321.166144 1251.298246 
z
" clip-path="url(#p62aa6d7cad)" style="fill: #ffffff; stroke: #000000; stroke-linejoin: miter"/>
   </g>
   <g id="patch_105">
    <path d="M 1373.07837 1328.491228 
L 1424.990596 1328.491228 
L 1424.990596 1313.052632 
L 1373.07837 1313.052632 
z
" clip-path="url(#p62aa6d7cad)" style="fill: #ffffff; stroke: #000000; stroke-linejoin: miter"/>
   </g>
   <g id="patch_106">
    <path d="M 1424.990596 1359.368421 
L 1528.815047 1359.368421 
L 1528.815047 1343.929825 
L 1424.990596 1343.929825 
z
" clip-path="url(#p62aa6d7cad)" style="fill: #ffffff; stroke: #000000; stroke-linejoin: miter"/>
   </g>
   <g id="patch_107">
    <path d="M 1424.990596 1421.122807 
L 1476.902821 1421.122807 
L 1476.902821 1405.684211 
L 1424.990596 1405.684211 
z
" clip-path="url(#p62aa6d7cad)" style="fill: #ffffff; stroke: #000000; stroke-linejoin: miter"/>
   </g>
   <g id="patch_108">
    <path d="M 1476.902821 1452 
L 1580.727273 1452 
L 1580.727273 1436.561404 
L 1476.902821 1436.561404 
z
" clip-path="url(#p62aa6d7cad)" style="fill: #ffffff; stroke: #000000; stroke-linejoin: miter"/>
   </g>
   <g id="text_1">
    <!-- s -->
    <g transform="translate(734.557994 144.917344)scale(0.17 -0.17)">
     <defs>
      <path id="DejaVuSans-73" d="M 2834 3397 
L 2834 2853 
Q 2591 2978 2328 3040 
Q 2066 3103 1784 3103 
Q 1356 3103 1142 2972 
Q 928 2841 928 2578 
Q 928 2378 1081 2264 
Q 1234 2150 1697 2047 
L 1894 2003 
Q 2506 1872 2764 1633 
Q 3022 1394 3022 966 
Q 3022 478 2636 193 
Q 2250 -91 1575 -91 
Q 1294 -91 989 -36 
Q 684 19 347 128 
L 347 722 
Q 666 556 975 473 
Q 1284 391 1588 391 
Q 1994 391 2212 530 
Q 2431 669 2431 922 
Q 2431 1156 2273 1281 
Q 2116 1406 1581 1522 
L 1381 1569 
Q 847 1681 609 1914 
Q 372 2147 372 2553 
Q 372 3047 722 3315 
Q 1072 3584 1716 3584 
Q 2034 3584 2315 3537 
Q 2597 3491 2834 3397 
z
" transform="scale(0.015625)"/>
     </defs>
     <use xlink:href="#DejaVuSans-73"/>
    </g>
   </g>
   <g id="text_2">
    <!-- n -->
    <g transform="translate(111.611285 171.162958)scale(0.17 -0.17)">
     <defs>
      <path id="DejaVuSans-6e" d="M 3513 2113 
L 3513 0 
L 2938 0 
L 2938 2094 
Q 2938 2591 2744 2837 
Q 2550 3084 2163 3084 
Q 1697 3084 1428 2787 
Q 1159 2491 1159 1978 
L 1159 0 
L 581 0 
L 581 3500 
L 1159 3500 
L 1159 2956 
Q 1366 3272 1645 3428 
Q 1925 3584 2291 3584 
Q 2894 3584 3203 3211 
Q 3513 2838 3513 2113 
z
" transform="scale(0.015625)"/>
     </defs>
     <use xlink:href="#DejaVuSans-6e"/>
    </g>
   </g>
   <g id="text_3">
    <!-- n.r -->
    <g transform="translate(371.172414 171.162958)scale(0.17 -0.17)">
     <defs>
      <path id="DejaVuSans-2e" d="M 684 794 
L 1344 794 
L 1344 0 
L 684 0 
L 684 794 
z
" transform="scale(0.015625)"/>
      <path id="DejaVuSans-72" d="M 2631 2963 
Q 2534 3019 2420 3045 
Q 2306 3072 2169 3072 
Q 1681 3072 1420 2755 
Q 1159 2438 1159 1844 
L 1159 0 
L 581 0 
L 581 3500 
L 1159 3500 
L 1159 2956 
Q 1341 3275 1631 3429 
Q 1922 3584 2338 3584 
Q 2397 3584 2469 3576 
Q 2541 3569 2628 3553 
L 2631 2963 
z
" transform="scale(0.015625)"/>
     </defs>
     <use xlink:href="#DejaVuSans-6e"/>
     <use xlink:href="#DejaVuSans-2e" x="63.378906"/>
     <use xlink:href="#DejaVuSans-72" x="95.166016"/>
    </g>
   </g>
   <g id="text_4">
    <!-- n -->
    <g transform="translate(423.084639 202.040151)scale(0.17 -0.17)">
     <use xlink:href="#DejaVuSans-6e"/>
    </g>
   </g>
   <g id="text_5">
    <!-- n.r -->
    <g transform="translate(682.645768 202.040151)scale(0.17 -0.17)">
     <use xlink:href="#DejaVuSans-6e"/>
     <use xlink:href="#DejaVuSans-2e" x="63.378906"/>
     <use xlink:href="#DejaVuSans-72" x="95.166016"/>
    </g>
   </g>
   <g id="text_6">
    <!-- n.l -->
    <g transform="translate(267.347962 232.917344)scale(0.17 -0.17)">
     <defs>
      <path id="DejaVuSans-6c" d="M 603 4863 
L 1178 4863 
L 1178 0 
L 603 0 
L 603 4863 
z
" transform="scale(0.015625)"/>
     </defs>
     <use xlink:href="#DejaVuSans-6e"/>
     <use xlink:href="#DejaVuSans-2e" x="63.378906"/>
     <use xlink:href="#DejaVuSans-6c" x="95.166016"/>
    </g>
   </g>
   <g id="text_7">
    <!-- n -->
    <g transform="translate(319.260188 232.917344)scale(0.17 -0.17)">
     <use xlink:href="#DejaVuSans-6e"/>
    </g>
   </g>
   <g id="text_8">
    <!-- n -->
    <g transform="translate(111.611285 294.67173)scale(0.17 -0.17)">
     <use xlink:href="#DejaVuSans-6e"/>
    </g>
   </g>
   <g id="text_9">
    <!-- n.r -->
    <g transform="translate(267.347962 294.67173)scale(0.17 -0.17)">
     <use xlink:href="#DejaVuSans-6e"/>
     <use xlink:href="#DejaVuSans-2e" x="63.378906"/>
     <use xlink:href="#DejaVuSans-72" x="95.166016"/>
    </g>
   </g>
   <g id="text_10">
    <!-- n.l -->
    <g transform="translate(163.523511 325.548923)scale(0.17 -0.17)">
     <use xlink:href="#DejaVuSans-6e"/>
     <use xlink:href="#DejaVuSans-2e" x="63.378906"/>
     <use xlink:href="#DejaVuSans-6c" x="95.166016"/>
    </g>
   </g>
   <g id="text_11">
    <!-- n -->
    <g transform="translate(215.435737 325.548923)scale(0.17 -0.17)">
     <use xlink:href="#DejaVuSans-6e"/>
    </g>
   </g>
   <g id="text_12">
    <!-- n -->
    <g transform="translate(111.611285 387.303309)scale(0.17 -0.17)">
     <use xlink:href="#DejaVuSans-6e"/>
    </g>
   </g>
   <g id="text_13">
    <!-- n.r -->
    <g transform="translate(163.523511 387.303309)scale(0.17 -0.17)">
     <use xlink:href="#DejaVuSans-6e"/>
     <use xlink:href="#DejaVuSans-2e" x="63.378906"/>
     <use xlink:href="#DejaVuSans-72" x="95.166016"/>
    </g>
   </g>
   <g id="text_14">
    <!-- n.l -->
    <g transform="translate(474.996865 510.812081)scale(0.17 -0.17)">
     <use xlink:href="#DejaVuSans-6e"/>
     <use xlink:href="#DejaVuSans-2e" x="63.378906"/>
     <use xlink:href="#DejaVuSans-6c" x="95.166016"/>
    </g>
   </g>
   <g id="text_15">
    <!-- n -->
    <g transform="translate(630.733542 510.812081)scale(0.17 -0.17)">
     <use xlink:href="#DejaVuSans-6e"/>
    </g>
   </g>
   <g id="text_16">
    <!-- n.l -->
    <g transform="translate(526.909091 541.689274)scale(0.17 -0.17)">
     <use xlink:href="#DejaVuSans-6e"/>
     <use xlink:href="#DejaVuSans-2e" x="63.378906"/>
     <use xlink:href="#DejaVuSans-6c" x="95.166016"/>
    </g>
   </g>
   <g id="text_17">
    <!-- n -->
    <g transform="translate(578.821317 541.689274)scale(0.17 -0.17)">
     <use xlink:href="#DejaVuSans-6e"/>
    </g>
   </g>
   <g id="text_18">
    <!-- n -->
    <g transform="translate(474.996865 603.44366)scale(0.17 -0.17)">
     <use xlink:href="#DejaVuSans-6e"/>
    </g>
   </g>
   <g id="text_19">
    <!-- n.r -->
    <g transform="translate(526.909091 603.44366)scale(0.17 -0.17)">
     <use xlink:href="#DejaVuSans-6e"/>
     <use xlink:href="#DejaVuSans-2e" x="63.378906"/>
     <use xlink:href="#DejaVuSans-72" x="95.166016"/>
    </g>
   </g>
   <g id="text_20">
    <!-- n -->
    <g transform="translate(526.909091 696.075238)scale(0.17 -0.17)">
     <use xlink:href="#DejaVuSans-6e"/>
    </g>
   </g>
   <g id="text_21">
    <!-- n.r -->
    <g transform="translate(578.821317 696.075238)scale(0.17 -0.17)">
     <use xlink:href="#DejaVuSans-6e"/>
     <use xlink:href="#DejaVuSans-2e" x="63.378906"/>
     <use xlink:href="#DejaVuSans-72" x="95.166016"/>
    </g>
   </g>
   <g id="text_22">
    <!-- n.l -->
    <g transform="translate(786.470219 788.706817)scale(0.17 -0.17)">
     <use xlink:href="#DejaVuSans-6e"/>
     <use xlink:href="#DejaVuSans-2e" x="63.378906"/>
     <use xlink:href="#DejaVuSans-6c" x="95.166016"/>
    </g>
   </g>
   <g id="text_23">
    <!-- n -->
    <g transform="translate(838.382445 788.706817)scale(0.17 -0.17)">
     <use xlink:href="#DejaVuSans-6e"/>
    </g>
   </g>
   <g id="text_24">
    <!-- n.l -->
    <g transform="translate(890.294671 850.461203)scale(0.17 -0.17)">
     <use xlink:href="#DejaVuSans-6e"/>
     <use xlink:href="#DejaVuSans-2e" x="63.378906"/>
     <use xlink:href="#DejaVuSans-6c" x="95.166016"/>
    </g>
   </g>
   <g id="text_25">
    <!-- n -->
    <g transform="translate(1357.504702 850.461203)scale(0.17 -0.17)">
     <use xlink:href="#DejaVuSans-6e"/>
    </g>
   </g>
   <g id="text_26">
    <!-- n.l -->
    <g transform="translate(942.206897 881.338396)scale(0.17 -0.17)">
     <use xlink:href="#DejaVuSans-6e"/>
     <use xlink:href="#DejaVuSans-2e" x="63.378906"/>
     <use xlink:href="#DejaVuSans-6c" x="95.166016"/>
    </g>
   </g>
   <g id="text_27">
    <!-- n -->
    <g transform="translate(994.119122 881.338396)scale(0.17 -0.17)">
     <use xlink:href="#DejaVuSans-6e"/>
    </g>
   </g>
   <g id="text_28">
    <!-- n.l -->
    <g transform="translate(1046.031348 943.092782)scale(0.17 -0.17)">
     <use xlink:href="#DejaVuSans-6e"/>
     <use xlink:href="#DejaVuSans-2e" x="63.378906"/>
     <use xlink:href="#DejaVuSans-6c" x="95.166016"/>
    </g>
   </g>
   <g id="text_29">
    <!-- n -->
    <g transform="translate(1201.768025 943.092782)scale(0.17 -0.17)">
     <use xlink:href="#DejaVuSans-6e"/>
    </g>
   </g>
   <g id="text_30">
    <!-- n.l -->
    <g transform="translate(1097.943574 973.969975)scale(0.17 -0.17)">
     <use xlink:href="#DejaVuSans-6e"/>
     <use xlink:href="#DejaVuSans-2e" x="63.378906"/>
     <use xlink:href="#DejaVuSans-6c" x="95.166016"/>
    </g>
   </g>
   <g id="text_31">
    <!-- n -->
    <g transform="translate(1149.855799 973.969975)scale(0.17 -0.17)">
     <use xlink:href="#DejaVuSans-6e"/>
    </g>
   </g>
   <g id="text_32">
    <!-- n -->
    <g transform="translate(1046.031348 1035.724361)scale(0.17 -0.17)">
     <use xlink:href="#DejaVuSans-6e"/>
    </g>
   </g>
   <g id="text_33">
    <!-- n.r -->
    <g transform="translate(1097.943574 1035.724361)scale(0.17 -0.17)">
     <use xlink:href="#DejaVuSans-6e"/>
     <use xlink:href="#DejaVuSans-2e" x="63.378906"/>
     <use xlink:href="#DejaVuSans-72" x="95.166016"/>
    </g>
   </g>
   <g id="text_34">
    <!-- n.l -->
    <g transform="translate(1253.680251 1128.35594)scale(0.17 -0.17)">
     <use xlink:href="#DejaVuSans-6e"/>
     <use xlink:href="#DejaVuSans-2e" x="63.378906"/>
     <use xlink:href="#DejaVuSans-6c" x="95.166016"/>
    </g>
   </g>
   <g id="text_35">
    <!-- n -->
    <g transform="translate(1305.592476 1128.35594)scale(0.17 -0.17)">
     <use xlink:href="#DejaVuSans-6e"/>
    </g>
   </g>
   <g id="text_36">
    <!-- n.l -->
    <g transform="translate(1409.416928 1220.987519)scale(0.17 -0.17)">
     <use xlink:href="#DejaVuSans-6e"/>
     <use xlink:href="#DejaVuSans-2e" x="63.378906"/>
     <use xlink:href="#DejaVuSans-6c" x="95.166016"/>
    </g>
   </g>
   <g id="text_37">
    <!-- n -->
    <g transform="translate(1565.153605 1220.987519)scale(0.17 -0.17)">
     <use xlink:href="#DejaVuSans-6e"/>
    </g>
   </g>
   <g id="text_38">
    <!-- n.l -->
    <g transform="translate(1461.329154 1251.864712)scale(0.17 -0.17)">
     <use xlink:href="#DejaVuSans-6e"/>
     <use xlink:href="#DejaVuSans-2e" x="63.378906"/>
     <use xlink:href="#DejaVuSans-6c" x="95.166016"/>
    </g>
   </g>
   <g id="text_39">
    <!-- n -->
    <g transform="translate(1513.241379 1251.864712)scale(0.17 -0.17)">
     <use xlink:href="#DejaVuSans-6e"/>
    </g>
   </g>
   <g id="text_40">
    <!-- n -->
    <g transform="translate(1409.416928 1313.619098)scale(0.17 -0.17)">
     <use xlink:href="#DejaVuSans-6e"/>
    </g>
   </g>
   <g id="text_41">
    <!-- n.r -->
    <g transform="translate(1461.329154 1313.619098)scale(0.17 -0.17)">
     <use xlink:href="#DejaVuSans-6e"/>
     <use xlink:href="#DejaVuSans-2e" x="63.378906"/>
     <use xlink:href="#DejaVuSans-72" x="95.166016"/>
    </g>
   </g>
   <g id="text_42">
    <!-- n -->
    <g transform="translate(1461.329154 1406.250677)scale(0.17 -0.17)">
     <use xlink:href="#DejaVuSans-6e"/>
    </g>
   </g>
   <g id="text_43">
    <!-- n.r -->
    <g transform="translate(1513.241379 1406.250677)scale(0.17 -0.17)">
     <use xlink:href="#DejaVuSans-6e"/>
     <use xlink:href="#DejaVuSans-2e" x="63.378906"/>
     <use xlink:href="#DejaVuSans-72" x="95.166016"/>
    </g>
   </g>
   <g id="text_44">
    <!-- SELECT -->
    <g transform="translate(147.096007 244.761113)scale(0.17 -0.17)">
     <defs>
      <path id="DejaVuSans-53" d="M 3425 4513 
L 3425 3897 
Q 3066 4069 2747 4153 
Q 2428 4238 2131 4238 
Q 1616 4238 1336 4038 
Q 1056 3838 1056 3469 
Q 1056 3159 1242 3001 
Q 1428 2844 1947 2747 
L 2328 2669 
Q 3034 2534 3370 2195 
Q 3706 1856 3706 1288 
Q 3706 609 3251 259 
Q 2797 -91 1919 -91 
Q 1588 -91 1214 -16 
Q 841 59 441 206 
L 441 856 
Q 825 641 1194 531 
Q 1563 422 1919 422 
Q 2459 422 2753 634 
Q 3047 847 3047 1241 
Q 3047 1584 2836 1778 
Q 2625 1972 2144 2069 
L 1759 2144 
Q 1053 2284 737 2584 
Q 422 2884 422 3419 
Q 422 4038 858 4394 
Q 1294 4750 2059 4750 
Q 2388 4750 2728 4690 
Q 3069 4631 3425 4513 
z
" transform="scale(0.015625)"/>
      <path id="DejaVuSans-45" d="M 628 4666 
L 3578 4666 
L 3578 4134 
L 1259 4134 
L 1259 2753 
L 3481 2753 
L 3481 2222 
L 1259 2222 
L 1259 531 
L 3634 531 
L 3634 0 
L 628 0 
L 628 4666 
z
" transform="scale(0.015625)"/>
      <path id="DejaVuSans-4c" d="M 628 4666 
L 1259 4666 
L 1259 531 
L 3531 531 
L 3531 0 
L 628 0 
L 628 4666 
z
" transform="scale(0.015625)"/>
      <path id="DejaVuSans-43" d="M 4122 4306 
L 4122 3641 
Q 3803 3938 3442 4084 
Q 3081 4231 2675 4231 
Q 1875 4231 1450 3742 
Q 1025 3253 1025 2328 
Q 1025 1406 1450 917 
Q 1875 428 2675 428 
Q 3081 428 3442 575 
Q 3803 722 4122 1019 
L 4122 359 
Q 3791 134 3420 21 
Q 3050 -91 2638 -91 
Q 1578 -91 968 557 
Q 359 1206 359 2328 
Q 359 3453 968 4101 
Q 1578 4750 2638 4750 
Q 3056 4750 3426 4639 
Q 3797 4528 4122 4306 
z
" transform="scale(0.015625)"/>
      <path id="DejaVuSans-54" d="M -19 4666 
L 3928 4666 
L 3928 4134 
L 2272 4134 
L 2272 0 
L 1638 0 
L 1638 4134 
L -19 4134 
L -19 4666 
z
" transform="scale(0.015625)"/>
     </defs>
     <use xlink:href="#DejaVuSans-53"/>
     <use xlink:href="#DejaVuSans-45" x="63.476562"/>
     <use xlink:href="#DejaVuSans-4c" x="126.660156"/>
     <use xlink:href="#DejaVuSans-45" x="182.373047"/>
     <use xlink:href="#DejaVuSans-43" x="245.556641"/>
     <use xlink:href="#DejaVuSans-54" x="315.380859"/>
    </g>
   </g>
   <g id="text_45">
    <!-- MIN -->
    <g transform="translate(110.984484 337.392692)scale(0.17 -0.17)">
     <defs>
      <path id="DejaVuSans-4d" d="M 628 4666 
L 1569 4666 
L 2759 1491 
L 3956 4666 
L 4897 4666 
L 4897 0 
L 4281 0 
L 4281 4097 
L 3078 897 
L 2444 897 
L 1241 4097 
L 1241 0 
L 628 0 
L 628 4666 
z
" transform="scale(0.015625)"/>
      <path id="DejaVuSans-49" d="M 628 4666 
L 1259 4666 
L 1259 0 
L 628 0 
L 628 4666 
z
" transform="scale(0.015625)"/>
      <path id="DejaVuSans-4e" d="M 628 4666 
L 1478 4666 
L 3547 763 
L 3547 4666 
L 4159 4666 
L 4159 0 
L 3309 0 
L 1241 3903 
L 1241 0 
L 628 0 
L 628 4666 
z
" transform="scale(0.015625)"/>
     </defs>
     <use xlink:href="#DejaVuSans-4d"/>
     <use xlink:href="#DejaVuSans-49" x="86.279297"/>
     <use xlink:href="#DejaVuSans-4e" x="115.771484"/>
    </g>
   </g>
   <g id="text_46">
    <!-- NOTE -->
    <g transform="translate(77.616106 399.147078)scale(0.17 -0.17)">
     <defs>
      <path id="DejaVuSans-4f" d="M 2522 4238 
Q 1834 4238 1429 3725 
Q 1025 3213 1025 2328 
Q 1025 1447 1429 934 
Q 1834 422 2522 422 
Q 3209 422 3611 934 
Q 4013 1447 4013 2328 
Q 4013 3213 3611 3725 
Q 3209 4238 2522 4238 
z
M 2522 4750 
Q 3503 4750 4090 4092 
Q 4678 3434 4678 2328 
Q 4678 1225 4090 567 
Q 3503 -91 2522 -91 
Q 1538 -91 948 565 
Q 359 1222 359 2328 
Q 359 3434 948 4092 
Q 1538 4750 2522 4750 
z
" transform="scale(0.015625)"/>
     </defs>
     <use xlink:href="#DejaVuSans-4e"/>
     <use xlink:href="#DejaVuSans-4f" x="74.804688"/>
     <use xlink:href="#DejaVuSans-54" x="153.515625"/>
     <use xlink:href="#DejaVuSans-45" x="214.599609"/>
    </g>
   </g>
   <g id="text_47">
    <!-- MC -->
    <g transform="translate(165.827882 430.024271)scale(0.17 -0.17)">
     <use xlink:href="#DejaVuSans-4d"/>
     <use xlink:href="#DejaVuSans-43" x="86.279297"/>
    </g>
   </g>
   <g id="text_48">
    <!-- NOTE -->
    <g transform="translate(259.308896 460.901464)scale(0.17 -0.17)">
     <use xlink:href="#DejaVuSans-4e"/>
     <use xlink:href="#DejaVuSans-4f" x="74.804688"/>
     <use xlink:href="#DejaVuSans-54" x="153.515625"/>
     <use xlink:href="#DejaVuSans-45" x="214.599609"/>
    </g>
   </g>
   <g id="text_49">
    <!-- FROM -->
    <g transform="translate(413.838307 553.533043)scale(0.17 -0.17)">
     <defs>
      <path id="DejaVuSans-46" d="M 628 4666 
L 3309 4666 
L 3309 4134 
L 1259 4134 
L 1259 2759 
L 3109 2759 
L 3109 2228 
L 1259 2228 
L 1259 0 
L 628 0 
L 628 4666 
z
" transform="scale(0.015625)"/>
      <path id="DejaVuSans-52" d="M 2841 2188 
Q 3044 2119 3236 1894 
Q 3428 1669 3622 1275 
L 4263 0 
L 3584 0 
L 2988 1197 
Q 2756 1666 2539 1819 
Q 2322 1972 1947 1972 
L 1259 1972 
L 1259 0 
L 628 0 
L 628 4666 
L 2053 4666 
Q 2853 4666 3247 4331 
Q 3641 3997 3641 3322 
Q 3641 2881 3436 2590 
Q 3231 2300 2841 2188 
z
M 1259 4147 
L 1259 2491 
L 2053 2491 
Q 2509 2491 2742 2702 
Q 2975 2913 2975 3322 
Q 2975 3731 2742 3939 
Q 2509 4147 2053 4147 
L 1259 4147 
z
" transform="scale(0.015625)"/>
     </defs>
     <use xlink:href="#DejaVuSans-46"/>
     <use xlink:href="#DejaVuSans-52" x="57.519531"/>
     <use xlink:href="#DejaVuSans-4f" x="127.001953"/>
     <use xlink:href="#DejaVuSans-4d" x="205.712891"/>
    </g>
   </g>
   <g id="text_50">
    <!-- MOVIE_COMPANIES -->
    <g transform="translate(382.803248 614.900944)scale(0.17 -0.17)">
     <defs>
      <path id="DejaVuSans-56" d="M 1831 0 
L 50 4666 
L 709 4666 
L 2188 738 
L 3669 4666 
L 4325 4666 
L 2547 0 
L 1831 0 
z
" transform="scale(0.015625)"/>
      <path id="DejaVuSans-5f" d="M 3263 -1063 
L 3263 -1509 
L -63 -1509 
L -63 -1063 
L 3263 -1063 
z
" transform="scale(0.015625)"/>
      <path id="DejaVuSans-50" d="M 1259 4147 
L 1259 2394 
L 2053 2394 
Q 2494 2394 2734 2622 
Q 2975 2850 2975 3272 
Q 2975 3691 2734 3919 
Q 2494 4147 2053 4147 
L 1259 4147 
z
M 628 4666 
L 2053 4666 
Q 2838 4666 3239 4311 
Q 3641 3956 3641 3272 
Q 3641 2581 3239 2228 
Q 2838 1875 2053 1875 
L 1259 1875 
L 1259 0 
L 628 0 
L 628 4666 
z
" transform="scale(0.015625)"/>
      <path id="DejaVuSans-41" d="M 2188 4044 
L 1331 1722 
L 3047 1722 
L 2188 4044 
z
M 1831 4666 
L 2547 4666 
L 4325 0 
L 3669 0 
L 3244 1197 
L 1141 1197 
L 716 0 
L 50 0 
L 1831 4666 
z
" transform="scale(0.015625)"/>
     </defs>
     <use xlink:href="#DejaVuSans-4d"/>
     <use xlink:href="#DejaVuSans-4f" x="86.279297"/>
     <use xlink:href="#DejaVuSans-56" x="163.240234"/>
     <use xlink:href="#DejaVuSans-49" x="231.648438"/>
     <use xlink:href="#DejaVuSans-45" x="261.140625"/>
     <use xlink:href="#DejaVuSans-5f" x="324.324219"/>
     <use xlink:href="#DejaVuSans-43" x="374.324219"/>
     <use xlink:href="#DejaVuSans-4f" x="444.148438"/>
     <use xlink:href="#DejaVuSans-4d" x="522.859375"/>
     <use xlink:href="#DejaVuSans-50" x="609.138672"/>
     <use xlink:href="#DejaVuSans-41" x="663.066406"/>
     <use xlink:href="#DejaVuSans-4e" x="731.474609"/>
     <use xlink:href="#DejaVuSans-49" x="806.279297"/>
     <use xlink:href="#DejaVuSans-45" x="835.771484"/>
     <use xlink:href="#DejaVuSans-53" x="898.955078"/>
    </g>
   </g>
   <g id="text_51">
    <!-- MC -->
    <g transform="translate(529.213462 646.164622)scale(0.17 -0.17)">
     <use xlink:href="#DejaVuSans-4d"/>
     <use xlink:href="#DejaVuSans-43" x="86.279297"/>
    </g>
   </g>
   <g id="text_52">
    <!-- MOVIE_LINK -->
    <g transform="translate(465.53063 707.532523)scale(0.17 -0.17)">
     <defs>
      <path id="DejaVuSans-4b" d="M 628 4666 
L 1259 4666 
L 1259 2694 
L 3353 4666 
L 4166 4666 
L 1850 2491 
L 4331 0 
L 3500 0 
L 1259 2247 
L 1259 0 
L 628 0 
L 628 4666 
z
" transform="scale(0.015625)"/>
     </defs>
     <use xlink:href="#DejaVuSans-4d"/>
     <use xlink:href="#DejaVuSans-4f" x="86.279297"/>
     <use xlink:href="#DejaVuSans-56" x="163.240234"/>
     <use xlink:href="#DejaVuSans-49" x="231.648438"/>
     <use xlink:href="#DejaVuSans-45" x="261.140625"/>
     <use xlink:href="#DejaVuSans-5f" x="324.324219"/>
     <use xlink:href="#DejaVuSans-4c" x="374.324219"/>
     <use xlink:href="#DejaVuSans-49" x="430.037109"/>
     <use xlink:href="#DejaVuSans-4e" x="459.529297"/>
     <use xlink:href="#DejaVuSans-4b" x="534.333984"/>
    </g>
   </g>
   <g id="text_53">
    <!-- ML -->
    <g transform="translate(582.324984 738.796201)scale(0.17 -0.17)">
     <use xlink:href="#DejaVuSans-4d"/>
     <use xlink:href="#DejaVuSans-4c" x="86.279297"/>
    </g>
   </g>
   <g id="text_54">
    <!-- WHERE -->
    <g transform="translate(692.730861 800.550587)scale(0.17 -0.17)">
     <defs>
      <path id="DejaVuSans-57" d="M 213 4666 
L 850 4666 
L 1831 722 
L 2809 4666 
L 3519 4666 
L 4500 722 
L 5478 4666 
L 6119 4666 
L 4947 0 
L 4153 0 
L 3169 4050 
L 2175 0 
L 1381 0 
L 213 4666 
z
" transform="scale(0.015625)"/>
      <path id="DejaVuSans-48" d="M 628 4666 
L 1259 4666 
L 1259 2753 
L 3553 2753 
L 3553 4666 
L 4184 4666 
L 4184 0 
L 3553 0 
L 3553 2222 
L 1259 2222 
L 1259 0 
L 628 0 
L 628 4666 
z
" transform="scale(0.015625)"/>
     </defs>
     <use xlink:href="#DejaVuSans-57"/>
     <use xlink:href="#DejaVuSans-48" x="98.876953"/>
     <use xlink:href="#DejaVuSans-45" x="174.072266"/>
     <use xlink:href="#DejaVuSans-52" x="237.255859"/>
     <use xlink:href="#DejaVuSans-45" x="306.738281"/>
    </g>
   </g>
   <g id="text_55">
    <!-- AND -->
    <g transform="translate(861.193632 893.182166)scale(0.17 -0.17)">
     <defs>
      <path id="DejaVuSans-44" d="M 1259 4147 
L 1259 519 
L 2022 519 
Q 2988 519 3436 956 
Q 3884 1394 3884 2338 
Q 3884 3275 3436 3711 
Q 2988 4147 2022 4147 
L 1259 4147 
z
M 628 4666 
L 1925 4666 
Q 3281 4666 3915 4102 
Q 4550 3538 4550 2338 
Q 4550 1131 3912 565 
Q 3275 0 1925 0 
L 628 0 
L 628 4666 
z
" transform="scale(0.015625)"/>
     </defs>
     <use xlink:href="#DejaVuSans-41"/>
     <use xlink:href="#DejaVuSans-4e" x="68.408203"/>
     <use xlink:href="#DejaVuSans-44" x="143.212891"/>
    </g>
   </g>
   <g id="text_56">
    <!-- IS -->
    <g transform="translate(1027.745231 985.813745)scale(0.17 -0.17)">
     <use xlink:href="#DejaVuSans-49"/>
     <use xlink:href="#DejaVuSans-53" x="29.492188"/>
    </g>
   </g>
   <g id="text_57">
    <!-- NOTE -->
    <g transform="translate(1012.036168 1047.56813)scale(0.17 -0.17)">
     <use xlink:href="#DejaVuSans-4e"/>
     <use xlink:href="#DejaVuSans-4f" x="74.804688"/>
     <use xlink:href="#DejaVuSans-54" x="153.515625"/>
     <use xlink:href="#DejaVuSans-45" x="214.599609"/>
    </g>
   </g>
   <g id="text_58">
    <!-- MC -->
    <g transform="translate(1100.247945 1078.445323)scale(0.17 -0.17)">
     <use xlink:href="#DejaVuSans-4d"/>
     <use xlink:href="#DejaVuSans-43" x="86.279297"/>
    </g>
   </g>
   <g id="text_59">
    <!-- NOT -->
    <g transform="translate(1199.099896 1140.199709)scale(0.17 -0.17)">
     <use xlink:href="#DejaVuSans-4e"/>
     <use xlink:href="#DejaVuSans-4f" x="74.804688"/>
     <use xlink:href="#DejaVuSans-54" x="153.515625"/>
    </g>
   </g>
   <g id="text_60">
    <!-- NULL -->
    <g transform="translate(1273.157844 1171.076902)scale(0.17 -0.17)">
     <defs>
      <path id="DejaVuSans-55" d="M 556 4666 
L 1191 4666 
L 1191 1831 
Q 1191 1081 1462 751 
Q 1734 422 2344 422 
Q 2950 422 3222 751 
Q 3494 1081 3494 1831 
L 3494 4666 
L 4128 4666 
L 4128 1753 
Q 4128 841 3676 375 
Q 3225 -91 2344 -91 
Q 1459 -91 1007 375 
Q 556 841 556 1753 
L 556 4666 
z
" transform="scale(0.015625)"/>
     </defs>
     <use xlink:href="#DejaVuSans-4e"/>
     <use xlink:href="#DejaVuSans-55" x="74.804688"/>
     <use xlink:href="#DejaVuSans-4c" x="147.998047"/>
     <use xlink:href="#DejaVuSans-4c" x="203.710938"/>
    </g>
   </g>
   <g id="text_61">
    <!-- = -->
    <g transform="translate(1391.911748 1263.708481)scale(0.17 -0.17)">
     <defs>
      <path id="DejaVuSans-3d" d="M 678 2906 
L 4684 2906 
L 4684 2381 
L 678 2381 
L 678 2906 
z
M 678 1631 
L 4684 1631 
L 4684 1100 
L 678 1100 
L 678 1631 
z
" transform="scale(0.015625)"/>
     </defs>
     <use xlink:href="#DejaVuSans-3d"/>
    </g>
   </g>
   <g id="text_62">
    <!-- LINKED_MOVIE_ID -->
    <g transform="translate(1322.82003 1325.076383)scale(0.17 -0.17)">
     <use xlink:href="#DejaVuSans-4c"/>
     <use xlink:href="#DejaVuSans-49" x="55.712891"/>
     <use xlink:href="#DejaVuSans-4e" x="85.205078"/>
     <use xlink:href="#DejaVuSans-4b" x="160.009766"/>
     <use xlink:href="#DejaVuSans-45" x="225.585938"/>
     <use xlink:href="#DejaVuSans-44" x="288.769531"/>
     <use xlink:href="#DejaVuSans-5f" x="365.771484"/>
     <use xlink:href="#DejaVuSans-4d" x="415.771484"/>
     <use xlink:href="#DejaVuSans-4f" x="502.050781"/>
     <use xlink:href="#DejaVuSans-56" x="579.011719"/>
     <use xlink:href="#DejaVuSans-49" x="647.419922"/>
     <use xlink:href="#DejaVuSans-45" x="676.912109"/>
     <use xlink:href="#DejaVuSans-5f" x="740.095703"/>
     <use xlink:href="#DejaVuSans-49" x="790.095703"/>
     <use xlink:href="#DejaVuSans-44" x="819.587891"/>
    </g>
   </g>
   <g id="text_63">
    <!-- ML -->
    <g transform="translate(1464.832821 1356.34006)scale(0.17 -0.17)">
     <use xlink:href="#DejaVuSans-4d"/>
     <use xlink:href="#DejaVuSans-4c" x="86.279297"/>
    </g>
   </g>
   <g id="text_64">
    <!-- MOVIE_ID -->
    <g transform="translate(1410.07499 1417.707962)scale(0.17 -0.17)">
     <use xlink:href="#DejaVuSans-4d"/>
     <use xlink:href="#DejaVuSans-4f" x="86.279297"/>
     <use xlink:href="#DejaVuSans-56" x="163.240234"/>
     <use xlink:href="#DejaVuSans-49" x="231.648438"/>
     <use xlink:href="#DejaVuSans-45" x="261.140625"/>
     <use xlink:href="#DejaVuSans-5f" x="324.324219"/>
     <use xlink:href="#DejaVuSans-49" x="374.324219"/>
     <use xlink:href="#DejaVuSans-44" x="403.816406"/>
    </g>
   </g>
   <g id="text_65">
    <!-- MC -->
    <g transform="translate(1515.54575 1448.971639)scale(0.17 -0.17)">
     <use xlink:href="#DejaVuSans-4d"/>
     <use xlink:href="#DejaVuSans-43" x="86.279297"/>
    </g>
   </g>
  </g>
 </g>
 <defs>
  <clipPath id="p62aa6d7cad">
   <rect x="0" y="0" width="1656" height="1584"/>
  </clipPath>
 </defs>
</svg>
