<?xml version="1.0" encoding="utf-8" standalone="no"?>
<!DOCTYPE svg PUBLIC "-//W3C//DTD SVG 1.1//EN"
  "http://www.w3.org/Graphics/SVG/1.1/DTD/svg11.dtd">
<svg xmlns:xlink="http://www.w3.org/1999/xlink" width="1224pt" height="864pt" viewBox="0 0 1224 864" xmlns="http://www.w3.org/2000/svg" version="1.1">
 <metadata>
  <rdf:RDF xmlns:dc="http://purl.org/dc/elements/1.1/" xmlns:cc="http://creativecommons.org/ns#" xmlns:rdf="http://www.w3.org/1999/02/22-rdf-syntax-ns#">
   <cc:Work>
    <dc:type rdf:resource="http://purl.org/dc/dcmitype/StillImage"/>
    <dc:date>2022-08-04T15:55:07.438197</dc:date>
    <dc:format>image/svg+xml</dc:format>
    <dc:creator>
     <cc:Agent>
      <dc:title>Matplotlib v3.5.1, https://matplotlib.org/</dc:title>
     </cc:Agent>
    </dc:creator>
   </cc:Work>
  </rdf:RDF>
 </metadata>
 <defs>
  <style type="text/css">*{stroke-linejoin: round; stroke-linecap: butt}</style>
 </defs>
 <g id="figure_1">
  <g id="patch_1">
   <path d="M 0 864 
L 1224 864 
L 1224 0 
L 0 0 
L 0 864 
z
" style="fill: none"/>
  </g>
  <g id="axes_1">
   <g id="patch_2">
    <path d="M 1135.147897 93.492537 
Q 1135.147897 243.940299 1135.147897 243.940299 
" clip-path="url(#pd06705902a)" style="fill: none; stroke: #000000; stroke-linejoin: miter"/>
   </g>
   <g id="patch_3">
    <path d="M 1068.716418 136.477612 
Q 1068.716418 200.955224 1068.716418 200.955224 
" clip-path="url(#pd06705902a)" style="fill: none; stroke: #000000; stroke-linejoin: miter"/>
   </g>
   <g id="patch_4">
    <path d="M 869.421981 179.462687 
Q 869.421981 329.910448 869.421981 329.910448 
" clip-path="url(#pd06705902a)" style="fill: none; stroke: #000000; stroke-linejoin: miter"/>
   </g>
   <g id="patch_5">
    <path d="M 935.85346 179.462687 
Q 935.85346 243.940299 935.85346 243.940299 
" clip-path="url(#pd06705902a)" style="fill: none; stroke: #000000; stroke-linejoin: miter"/>
   </g>
   <g id="patch_6">
    <path d="M 1002.284939 179.462687 
Q 1002.284939 200.955224 1002.284939 200.955224 
" clip-path="url(#pd06705902a)" style="fill: none; stroke: #000000; stroke-linejoin: miter"/>
   </g>
   <g id="patch_7">
    <path d="M 1002.284939 200.955224 
Q 1002.284939 211.701493 1035.500678 211.701493 
" clip-path="url(#pd06705902a)" style="fill: none; stroke: #000000; stroke-linejoin: miter"/>
   </g>
   <g id="patch_8">
    <path d="M 1068.716418 200.955224 
Q 1068.716418 211.701493 1035.500678 211.701493 
" clip-path="url(#pd06705902a)" style="fill: none; stroke: #000000; stroke-linejoin: miter"/>
   </g>
   <g id="patch_9">
    <path d="M 935.85346 243.940299 
Q 935.85346 254.686567 1035.500678 254.686567 
" clip-path="url(#pd06705902a)" style="fill: none; stroke: #000000; stroke-linejoin: miter"/>
   </g>
   <g id="patch_10">
    <path d="M 1135.147897 243.940299 
Q 1135.147897 254.686567 1035.500678 254.686567 
" clip-path="url(#pd06705902a)" style="fill: none; stroke: #000000; stroke-linejoin: miter"/>
   </g>
   <g id="patch_11">
    <path d="M 670.127544 308.41791 
Q 670.127544 716.776119 670.127544 716.776119 
" clip-path="url(#pd06705902a)" style="fill: none; stroke: #000000; stroke-linejoin: miter"/>
   </g>
   <g id="patch_12">
    <path d="M 736.559023 308.41791 
Q 736.559023 792 736.559023 792 
" clip-path="url(#pd06705902a)" style="fill: none; stroke: #000000; stroke-linejoin: miter"/>
   </g>
   <g id="patch_13">
    <path d="M 802.990502 308.41791 
Q 802.990502 329.910448 802.990502 329.910448 
" clip-path="url(#pd06705902a)" style="fill: none; stroke: #000000; stroke-linejoin: miter"/>
   </g>
   <g id="patch_14">
    <path d="M 802.990502 329.910448 
Q 802.990502 340.656716 836.206242 340.656716 
" clip-path="url(#pd06705902a)" style="fill: none; stroke: #000000; stroke-linejoin: miter"/>
   </g>
   <g id="patch_15">
    <path d="M 869.421981 329.910448 
Q 869.421981 340.656716 836.206242 340.656716 
" clip-path="url(#pd06705902a)" style="fill: none; stroke: #000000; stroke-linejoin: miter"/>
   </g>
   <g id="patch_16">
    <path d="M 603.696065 394.38806 
Q 603.696065 458.865672 603.696065 458.865672 
" clip-path="url(#pd06705902a)" style="fill: none; stroke: #000000; stroke-linejoin: miter"/>
   </g>
   <g id="patch_17">
    <path d="M 404.401628 437.373134 
Q 404.401628 759.761194 404.401628 759.761194 
" clip-path="url(#pd06705902a)" style="fill: none; stroke: #000000; stroke-linejoin: miter"/>
   </g>
   <g id="patch_18">
    <path d="M 470.833107 437.373134 
Q 470.833107 716.776119 470.833107 716.776119 
" clip-path="url(#pd06705902a)" style="fill: none; stroke: #000000; stroke-linejoin: miter"/>
   </g>
   <g id="patch_19">
    <path d="M 537.264586 437.373134 
Q 537.264586 458.865672 537.264586 458.865672 
" clip-path="url(#pd06705902a)" style="fill: none; stroke: #000000; stroke-linejoin: miter"/>
   </g>
   <g id="patch_20">
    <path d="M 537.264586 458.865672 
Q 537.264586 469.61194 570.480326 469.61194 
" clip-path="url(#pd06705902a)" style="fill: none; stroke: #000000; stroke-linejoin: miter"/>
   </g>
   <g id="patch_21">
    <path d="M 603.696065 458.865672 
Q 603.696065 469.61194 570.480326 469.61194 
" clip-path="url(#pd06705902a)" style="fill: none; stroke: #000000; stroke-linejoin: miter"/>
   </g>
   <g id="patch_22">
    <path d="M 337.970149 523.343284 
Q 337.970149 673.791045 337.970149 673.791045 
" clip-path="url(#pd06705902a)" style="fill: none; stroke: #000000; stroke-linejoin: miter"/>
   </g>
   <g id="patch_23">
    <path d="M 271.53867 566.328358 
Q 271.53867 630.80597 271.53867 630.80597 
" clip-path="url(#pd06705902a)" style="fill: none; stroke: #000000; stroke-linejoin: miter"/>
   </g>
   <g id="patch_24">
    <path d="M 72.244233 609.313433 
Q 72.244233 759.761194 72.244233 759.761194 
" clip-path="url(#pd06705902a)" style="fill: none; stroke: #000000; stroke-linejoin: miter"/>
   </g>
   <g id="patch_25">
    <path d="M 138.675712 609.313433 
Q 138.675712 673.791045 138.675712 673.791045 
" clip-path="url(#pd06705902a)" style="fill: none; stroke: #000000; stroke-linejoin: miter"/>
   </g>
   <g id="patch_26">
    <path d="M 205.107191 609.313433 
Q 205.107191 630.80597 205.107191 630.80597 
" clip-path="url(#pd06705902a)" style="fill: none; stroke: #000000; stroke-linejoin: miter"/>
   </g>
   <g id="patch_27">
    <path d="M 205.107191 630.80597 
Q 205.107191 641.552239 238.322931 641.552239 
" clip-path="url(#pd06705902a)" style="fill: none; stroke: #000000; stroke-linejoin: miter"/>
   </g>
   <g id="patch_28">
    <path d="M 271.53867 630.80597 
Q 271.53867 641.552239 238.322931 641.552239 
" clip-path="url(#pd06705902a)" style="fill: none; stroke: #000000; stroke-linejoin: miter"/>
   </g>
   <g id="patch_29">
    <path d="M 138.675712 673.791045 
Q 138.675712 684.537313 238.322931 684.537313 
" clip-path="url(#pd06705902a)" style="fill: none; stroke: #000000; stroke-linejoin: miter"/>
   </g>
   <g id="patch_30">
    <path d="M 337.970149 673.791045 
Q 337.970149 684.537313 238.322931 684.537313 
" clip-path="url(#pd06705902a)" style="fill: none; stroke: #000000; stroke-linejoin: miter"/>
   </g>
   <g id="patch_31">
    <path d="M 470.833107 716.776119 
Q 470.833107 727.522388 570.480326 727.522388 
" clip-path="url(#pd06705902a)" style="fill: none; stroke: #000000; stroke-linejoin: miter"/>
   </g>
   <g id="patch_32">
    <path d="M 670.127544 716.776119 
Q 670.127544 727.522388 570.480326 727.522388 
" clip-path="url(#pd06705902a)" style="fill: none; stroke: #000000; stroke-linejoin: miter"/>
   </g>
   <g id="patch_33">
    <path d="M 72.244233 759.761194 
Q 72.244233 770.507463 238.322931 770.507463 
" clip-path="url(#pd06705902a)" style="fill: none; stroke: #000000; stroke-linejoin: miter"/>
   </g>
   <g id="patch_34">
    <path d="M 404.401628 759.761194 
Q 404.401628 770.507463 238.322931 770.507463 
" clip-path="url(#pd06705902a)" style="fill: none; stroke: #000000; stroke-linejoin: miter"/>
   </g>
   <g id="patch_35">
    <path d="M 1118.540027 93.492537 
L 1168.363636 93.492537 
L 1151.755767 72 
L 1118.540027 72 
z
" clip-path="url(#pd06705902a)" style="fill: #ffffff; stroke: #000000; stroke-linejoin: miter"/>
   </g>
   <g id="patch_36">
    <path d="M 1052.108548 136.477612 
L 1101.932157 136.477612 
L 1085.324288 114.985075 
L 1052.108548 114.985075 
z
" clip-path="url(#pd06705902a)" style="fill: #ffffff; stroke: #000000; stroke-linejoin: miter"/>
   </g>
   <g id="patch_37">
    <path d="M 852.814111 179.462687 
L 1035.500678 179.462687 
L 1018.892809 157.970149 
L 852.814111 157.970149 
z
" clip-path="url(#pd06705902a)" style="fill: #ffffff; stroke: #000000; stroke-linejoin: miter"/>
   </g>
   <g id="patch_38">
    <path d="M 653.519674 308.41791 
L 836.206242 308.41791 
L 819.598372 286.925373 
L 653.519674 286.925373 
z
" clip-path="url(#pd06705902a)" style="fill: #ffffff; stroke: #000000; stroke-linejoin: miter"/>
   </g>
   <g id="patch_39">
    <path d="M 587.088195 394.38806 
L 636.911805 394.38806 
L 620.303935 372.895522 
L 587.088195 372.895522 
z
" clip-path="url(#pd06705902a)" style="fill: #ffffff; stroke: #000000; stroke-linejoin: miter"/>
   </g>
   <g id="patch_40">
    <path d="M 387.793758 437.373134 
L 570.480326 437.373134 
L 553.872456 415.880597 
L 387.793758 415.880597 
z
" clip-path="url(#pd06705902a)" style="fill: #ffffff; stroke: #000000; stroke-linejoin: miter"/>
   </g>
   <g id="patch_41">
    <path d="M 321.36228 523.343284 
L 371.185889 523.343284 
L 354.578019 501.850746 
L 321.36228 501.850746 
z
" clip-path="url(#pd06705902a)" style="fill: #ffffff; stroke: #000000; stroke-linejoin: miter"/>
   </g>
   <g id="patch_42">
    <path d="M 254.930801 566.328358 
L 304.75441 566.328358 
L 288.14654 544.835821 
L 254.930801 544.835821 
z
" clip-path="url(#pd06705902a)" style="fill: #ffffff; stroke: #000000; stroke-linejoin: miter"/>
   </g>
   <g id="patch_43">
    <path d="M 55.636364 609.313433 
L 238.322931 609.313433 
L 221.715061 587.820896 
L 55.636364 587.820896 
z
" clip-path="url(#pd06705902a)" style="fill: #ffffff; stroke: #000000; stroke-linejoin: miter"/>
   </g>
   <g id="text_1">
    <!-- e -->
    <g transform="translate(1141.791045 110.708389)scale(0.17 -0.17)">
     <defs>
      <path id="DejaVuSans-65" d="M 3597 1894 
L 3597 1613 
L 953 1613 
Q 991 1019 1311 708 
Q 1631 397 2203 397 
Q 2534 397 2845 478 
Q 3156 559 3463 722 
L 3463 178 
Q 3153 47 2828 -22 
Q 2503 -91 2169 -91 
Q 1331 -91 842 396 
Q 353 884 353 1716 
Q 353 2575 817 3079 
Q 1281 3584 2069 3584 
Q 2775 3584 3186 3129 
Q 3597 2675 3597 1894 
z
M 3022 2063 
Q 3016 2534 2758 2815 
Q 2500 3097 2075 3097 
Q 1594 3097 1305 2825 
Q 1016 2553 972 2059 
L 3022 2063 
z
" transform="scale(0.015625)"/>
     </defs>
     <use xlink:href="#DejaVuSans-65"/>
    </g>
   </g>
   <g id="text_2">
    <!-- n -->
    <g transform="translate(1075.359566 153.693463)scale(0.17 -0.17)">
     <defs>
      <path id="DejaVuSans-6e" d="M 3513 2113 
L 3513 0 
L 2938 0 
L 2938 2094 
Q 2938 2591 2744 2837 
Q 2550 3084 2163 3084 
Q 1697 3084 1428 2787 
Q 1159 2491 1159 1978 
L 1159 0 
L 581 0 
L 581 3500 
L 1159 3500 
L 1159 2956 
Q 1366 3272 1645 3428 
Q 1925 3584 2291 3584 
Q 2894 3584 3203 3211 
Q 3513 2838 3513 2113 
z
" transform="scale(0.015625)"/>
     </defs>
     <use xlink:href="#DejaVuSans-6e"/>
    </g>
   </g>
   <g id="text_3">
    <!-- e -->
    <g transform="translate(876.065129 196.678538)scale(0.17 -0.17)">
     <use xlink:href="#DejaVuSans-65"/>
    </g>
   </g>
   <g id="text_4">
    <!-- e.l -->
    <g transform="translate(942.496608 196.678538)scale(0.17 -0.17)">
     <defs>
      <path id="DejaVuSans-2e" d="M 684 794 
L 1344 794 
L 1344 0 
L 684 0 
L 684 794 
z
" transform="scale(0.015625)"/>
      <path id="DejaVuSans-6c" d="M 603 4863 
L 1178 4863 
L 1178 0 
L 603 0 
L 603 4863 
z
" transform="scale(0.015625)"/>
     </defs>
     <use xlink:href="#DejaVuSans-65"/>
     <use xlink:href="#DejaVuSans-2e" x="61.523438"/>
     <use xlink:href="#DejaVuSans-6c" x="93.310547"/>
    </g>
   </g>
   <g id="text_5">
    <!-- n.l -->
    <g transform="translate(1008.928087 196.678538)scale(0.17 -0.17)">
     <use xlink:href="#DejaVuSans-6e"/>
     <use xlink:href="#DejaVuSans-2e" x="63.378906"/>
     <use xlink:href="#DejaVuSans-6c" x="95.166016"/>
    </g>
   </g>
   <g id="text_6">
    <!-- s.r -->
    <g transform="translate(676.770692 325.633762)scale(0.17 -0.17)">
     <defs>
      <path id="DejaVuSans-73" d="M 2834 3397 
L 2834 2853 
Q 2591 2978 2328 3040 
Q 2066 3103 1784 3103 
Q 1356 3103 1142 2972 
Q 928 2841 928 2578 
Q 928 2378 1081 2264 
Q 1234 2150 1697 2047 
L 1894 2003 
Q 2506 1872 2764 1633 
Q 3022 1394 3022 966 
Q 3022 478 2636 193 
Q 2250 -91 1575 -91 
Q 1294 -91 989 -36 
Q 684 19 347 128 
L 347 722 
Q 666 556 975 473 
Q 1284 391 1588 391 
Q 1994 391 2212 530 
Q 2431 669 2431 922 
Q 2431 1156 2273 1281 
Q 2116 1406 1581 1522 
L 1381 1569 
Q 847 1681 609 1914 
Q 372 2147 372 2553 
Q 372 3047 722 3315 
Q 1072 3584 1716 3584 
Q 2034 3584 2315 3537 
Q 2597 3491 2834 3397 
z
" transform="scale(0.015625)"/>
      <path id="DejaVuSans-72" d="M 2631 2963 
Q 2534 3019 2420 3045 
Q 2306 3072 2169 3072 
Q 1681 3072 1420 2755 
Q 1159 2438 1159 1844 
L 1159 0 
L 581 0 
L 581 3500 
L 1159 3500 
L 1159 2956 
Q 1341 3275 1631 3429 
Q 1922 3584 2338 3584 
Q 2397 3584 2469 3576 
Q 2541 3569 2628 3553 
L 2631 2963 
z
" transform="scale(0.015625)"/>
     </defs>
     <use xlink:href="#DejaVuSans-73"/>
     <use xlink:href="#DejaVuSans-2e" x="52.099609"/>
     <use xlink:href="#DejaVuSans-72" x="83.886719"/>
    </g>
   </g>
   <g id="text_7">
    <!-- s -->
    <g transform="translate(743.202171 325.633762)scale(0.17 -0.17)">
     <use xlink:href="#DejaVuSans-73"/>
    </g>
   </g>
   <g id="text_8">
    <!-- e.l -->
    <g transform="translate(809.63365 325.633762)scale(0.17 -0.17)">
     <use xlink:href="#DejaVuSans-65"/>
     <use xlink:href="#DejaVuSans-2e" x="61.523438"/>
     <use xlink:href="#DejaVuSans-6c" x="93.310547"/>
    </g>
   </g>
   <g id="text_9">
    <!-- n -->
    <g transform="translate(610.339213 411.603911)scale(0.17 -0.17)">
     <use xlink:href="#DejaVuSans-6e"/>
    </g>
   </g>
   <g id="text_10">
    <!-- s.r -->
    <g transform="translate(411.044776 454.588986)scale(0.17 -0.17)">
     <use xlink:href="#DejaVuSans-73"/>
     <use xlink:href="#DejaVuSans-2e" x="52.099609"/>
     <use xlink:href="#DejaVuSans-72" x="83.886719"/>
    </g>
   </g>
   <g id="text_11">
    <!-- s -->
    <g transform="translate(477.476255 454.588986)scale(0.17 -0.17)">
     <use xlink:href="#DejaVuSans-73"/>
    </g>
   </g>
   <g id="text_12">
    <!-- n.l -->
    <g transform="translate(543.907734 454.588986)scale(0.17 -0.17)">
     <use xlink:href="#DejaVuSans-6e"/>
     <use xlink:href="#DejaVuSans-2e" x="63.378906"/>
     <use xlink:href="#DejaVuSans-6c" x="95.166016"/>
    </g>
   </g>
   <g id="text_13">
    <!-- n -->
    <g transform="translate(344.613297 540.559135)scale(0.17 -0.17)">
     <use xlink:href="#DejaVuSans-6e"/>
    </g>
   </g>
   <g id="text_14">
    <!-- n -->
    <g transform="translate(278.181818 583.544209)scale(0.17 -0.17)">
     <use xlink:href="#DejaVuSans-6e"/>
    </g>
   </g>
   <g id="text_15">
    <!-- s -->
    <g transform="translate(78.887381 626.529284)scale(0.17 -0.17)">
     <use xlink:href="#DejaVuSans-73"/>
    </g>
   </g>
   <g id="text_16">
    <!-- n.l -->
    <g transform="translate(145.31886 626.529284)scale(0.17 -0.17)">
     <use xlink:href="#DejaVuSans-6e"/>
     <use xlink:href="#DejaVuSans-2e" x="63.378906"/>
     <use xlink:href="#DejaVuSans-6c" x="95.166016"/>
    </g>
   </g>
   <g id="text_17">
    <!-- n.l -->
    <g transform="translate(211.750339 626.529284)scale(0.17 -0.17)">
     <use xlink:href="#DejaVuSans-6e"/>
     <use xlink:href="#DejaVuSans-2e" x="63.378906"/>
     <use xlink:href="#DejaVuSans-6c" x="95.166016"/>
    </g>
   </g>
   <g id="text_18">
    <!-- '2nd Street' -->
    <g transform="translate(1085.758913 87.437206)scale(0.17 -0.17)">
     <defs>
      <path id="DejaVuSans-27" d="M 1147 4666 
L 1147 2931 
L 616 2931 
L 616 4666 
L 1147 4666 
z
" transform="scale(0.015625)"/>
      <path id="DejaVuSans-32" d="M 1228 531 
L 3431 531 
L 3431 0 
L 469 0 
L 469 531 
Q 828 903 1448 1529 
Q 2069 2156 2228 2338 
Q 2531 2678 2651 2914 
Q 2772 3150 2772 3378 
Q 2772 3750 2511 3984 
Q 2250 4219 1831 4219 
Q 1534 4219 1204 4116 
Q 875 4013 500 3803 
L 500 4441 
Q 881 4594 1212 4672 
Q 1544 4750 1819 4750 
Q 2544 4750 2975 4387 
Q 3406 4025 3406 3419 
Q 3406 3131 3298 2873 
Q 3191 2616 2906 2266 
Q 2828 2175 2409 1742 
Q 1991 1309 1228 531 
z
" transform="scale(0.015625)"/>
      <path id="DejaVuSans-64" d="M 2906 2969 
L 2906 4863 
L 3481 4863 
L 3481 0 
L 2906 0 
L 2906 525 
Q 2725 213 2448 61 
Q 2172 -91 1784 -91 
Q 1150 -91 751 415 
Q 353 922 353 1747 
Q 353 2572 751 3078 
Q 1150 3584 1784 3584 
Q 2172 3584 2448 3432 
Q 2725 3281 2906 2969 
z
M 947 1747 
Q 947 1113 1208 752 
Q 1469 391 1925 391 
Q 2381 391 2643 752 
Q 2906 1113 2906 1747 
Q 2906 2381 2643 2742 
Q 2381 3103 1925 3103 
Q 1469 3103 1208 2742 
Q 947 2381 947 1747 
z
" transform="scale(0.015625)"/>
      <path id="DejaVuSans-20" transform="scale(0.015625)"/>
      <path id="DejaVuSans-53" d="M 3425 4513 
L 3425 3897 
Q 3066 4069 2747 4153 
Q 2428 4238 2131 4238 
Q 1616 4238 1336 4038 
Q 1056 3838 1056 3469 
Q 1056 3159 1242 3001 
Q 1428 2844 1947 2747 
L 2328 2669 
Q 3034 2534 3370 2195 
Q 3706 1856 3706 1288 
Q 3706 609 3251 259 
Q 2797 -91 1919 -91 
Q 1588 -91 1214 -16 
Q 841 59 441 206 
L 441 856 
Q 825 641 1194 531 
Q 1563 422 1919 422 
Q 2459 422 2753 634 
Q 3047 847 3047 1241 
Q 3047 1584 2836 1778 
Q 2625 1972 2144 2069 
L 1759 2144 
Q 1053 2284 737 2584 
Q 422 2884 422 3419 
Q 422 4038 858 4394 
Q 1294 4750 2059 4750 
Q 2388 4750 2728 4690 
Q 3069 4631 3425 4513 
z
" transform="scale(0.015625)"/>
      <path id="DejaVuSans-74" d="M 1172 4494 
L 1172 3500 
L 2356 3500 
L 2356 3053 
L 1172 3053 
L 1172 1153 
Q 1172 725 1289 603 
Q 1406 481 1766 481 
L 2356 481 
L 2356 0 
L 1766 0 
Q 1100 0 847 248 
Q 594 497 594 1153 
L 594 3053 
L 172 3053 
L 172 3500 
L 594 3500 
L 594 4494 
L 1172 4494 
z
" transform="scale(0.015625)"/>
     </defs>
     <use xlink:href="#DejaVuSans-27"/>
     <use xlink:href="#DejaVuSans-32" x="27.490234"/>
     <use xlink:href="#DejaVuSans-6e" x="91.113281"/>
     <use xlink:href="#DejaVuSans-64" x="154.492188"/>
     <use xlink:href="#DejaVuSans-20" x="217.96875"/>
     <use xlink:href="#DejaVuSans-53" x="249.755859"/>
     <use xlink:href="#DejaVuSans-74" x="313.232422"/>
     <use xlink:href="#DejaVuSans-72" x="352.441406"/>
     <use xlink:href="#DejaVuSans-65" x="391.304688"/>
     <use xlink:href="#DejaVuSans-65" x="452.828125"/>
     <use xlink:href="#DejaVuSans-74" x="514.351562"/>
     <use xlink:href="#DejaVuSans-27" x="553.560547"/>
    </g>
   </g>
   <g id="text_19">
    <!-- billingAddress -->
    <g transform="translate(1009.244309 130.422281)scale(0.17 -0.17)">
     <defs>
      <path id="DejaVuSans-62" d="M 3116 1747 
Q 3116 2381 2855 2742 
Q 2594 3103 2138 3103 
Q 1681 3103 1420 2742 
Q 1159 2381 1159 1747 
Q 1159 1113 1420 752 
Q 1681 391 2138 391 
Q 2594 391 2855 752 
Q 3116 1113 3116 1747 
z
M 1159 2969 
Q 1341 3281 1617 3432 
Q 1894 3584 2278 3584 
Q 2916 3584 3314 3078 
Q 3713 2572 3713 1747 
Q 3713 922 3314 415 
Q 2916 -91 2278 -91 
Q 1894 -91 1617 61 
Q 1341 213 1159 525 
L 1159 0 
L 581 0 
L 581 4863 
L 1159 4863 
L 1159 2969 
z
" transform="scale(0.015625)"/>
      <path id="DejaVuSans-69" d="M 603 3500 
L 1178 3500 
L 1178 0 
L 603 0 
L 603 3500 
z
M 603 4863 
L 1178 4863 
L 1178 4134 
L 603 4134 
L 603 4863 
z
" transform="scale(0.015625)"/>
      <path id="DejaVuSans-67" d="M 2906 1791 
Q 2906 2416 2648 2759 
Q 2391 3103 1925 3103 
Q 1463 3103 1205 2759 
Q 947 2416 947 1791 
Q 947 1169 1205 825 
Q 1463 481 1925 481 
Q 2391 481 2648 825 
Q 2906 1169 2906 1791 
z
M 3481 434 
Q 3481 -459 3084 -895 
Q 2688 -1331 1869 -1331 
Q 1566 -1331 1297 -1286 
Q 1028 -1241 775 -1147 
L 775 -588 
Q 1028 -725 1275 -790 
Q 1522 -856 1778 -856 
Q 2344 -856 2625 -561 
Q 2906 -266 2906 331 
L 2906 616 
Q 2728 306 2450 153 
Q 2172 0 1784 0 
Q 1141 0 747 490 
Q 353 981 353 1791 
Q 353 2603 747 3093 
Q 1141 3584 1784 3584 
Q 2172 3584 2450 3431 
Q 2728 3278 2906 2969 
L 2906 3500 
L 3481 3500 
L 3481 434 
z
" transform="scale(0.015625)"/>
      <path id="DejaVuSans-41" d="M 2188 4044 
L 1331 1722 
L 3047 1722 
L 2188 4044 
z
M 1831 4666 
L 2547 4666 
L 4325 0 
L 3669 0 
L 3244 1197 
L 1141 1197 
L 716 0 
L 50 0 
L 1831 4666 
z
" transform="scale(0.015625)"/>
     </defs>
     <use xlink:href="#DejaVuSans-62"/>
     <use xlink:href="#DejaVuSans-69" x="63.476562"/>
     <use xlink:href="#DejaVuSans-6c" x="91.259766"/>
     <use xlink:href="#DejaVuSans-6c" x="119.042969"/>
     <use xlink:href="#DejaVuSans-69" x="146.826172"/>
     <use xlink:href="#DejaVuSans-6e" x="174.609375"/>
     <use xlink:href="#DejaVuSans-67" x="237.988281"/>
     <use xlink:href="#DejaVuSans-41" x="301.464844"/>
     <use xlink:href="#DejaVuSans-64" x="368.123047"/>
     <use xlink:href="#DejaVuSans-64" x="431.599609"/>
     <use xlink:href="#DejaVuSans-72" x="495.076172"/>
     <use xlink:href="#DejaVuSans-65" x="533.939453"/>
     <use xlink:href="#DejaVuSans-73" x="595.462891"/>
     <use xlink:href="#DejaVuSans-73" x="647.5625"/>
    </g>
   </g>
   <g id="text_20">
    <!-- = -->
    <g transform="translate(928.730726 173.407355)scale(0.17 -0.17)">
     <defs>
      <path id="DejaVuSans-3d" d="M 678 2906 
L 4684 2906 
L 4684 2381 
L 678 2381 
L 678 2906 
z
M 678 1631 
L 4684 1631 
L 4684 1100 
L 678 1100 
L 678 1631 
z
" transform="scale(0.015625)"/>
     </defs>
     <use xlink:href="#DejaVuSans-3d"/>
    </g>
   </g>
   <g id="text_21">
    <!-- WHERE -->
    <g transform="translate(705.114336 302.362579)scale(0.17 -0.17)">
     <defs>
      <path id="DejaVuSans-57" d="M 213 4666 
L 850 4666 
L 1831 722 
L 2809 4666 
L 3519 4666 
L 4500 722 
L 5478 4666 
L 6119 4666 
L 4947 0 
L 4153 0 
L 3169 4050 
L 2175 0 
L 1381 0 
L 213 4666 
z
" transform="scale(0.015625)"/>
      <path id="DejaVuSans-48" d="M 628 4666 
L 1259 4666 
L 1259 2753 
L 3553 2753 
L 3553 4666 
L 4184 4666 
L 4184 0 
L 3553 0 
L 3553 2222 
L 1259 2222 
L 1259 0 
L 628 0 
L 628 4666 
z
" transform="scale(0.015625)"/>
      <path id="DejaVuSans-45" d="M 628 4666 
L 3578 4666 
L 3578 4134 
L 1259 4134 
L 1259 2753 
L 3481 2753 
L 3481 2222 
L 1259 2222 
L 1259 531 
L 3634 531 
L 3634 0 
L 628 0 
L 628 4666 
z
" transform="scale(0.015625)"/>
      <path id="DejaVuSans-52" d="M 2841 2188 
Q 3044 2119 3236 1894 
Q 3428 1669 3622 1275 
L 4263 0 
L 3584 0 
L 2988 1197 
Q 2756 1666 2539 1819 
Q 2322 1972 1947 1972 
L 1259 1972 
L 1259 0 
L 628 0 
L 628 4666 
L 2053 4666 
Q 2853 4666 3247 4331 
Q 3641 3997 3641 3322 
Q 3641 2881 3436 2590 
Q 3231 2300 2841 2188 
z
M 1259 4147 
L 1259 2491 
L 2053 2491 
Q 2509 2491 2742 2702 
Q 2975 2913 2975 3322 
Q 2975 3731 2742 3939 
Q 2509 4147 2053 4147 
L 1259 4147 
z
" transform="scale(0.015625)"/>
     </defs>
     <use xlink:href="#DejaVuSans-57"/>
     <use xlink:href="#DejaVuSans-48" x="98.876953"/>
     <use xlink:href="#DejaVuSans-45" x="174.072266"/>
     <use xlink:href="#DejaVuSans-52" x="237.255859"/>
     <use xlink:href="#DejaVuSans-45" x="306.738281"/>
    </g>
   </g>
   <g id="text_22">
    <!-- invoices -->
    <g transform="translate(569.022706 388.332729)scale(0.17 -0.17)">
     <defs>
      <path id="DejaVuSans-76" d="M 191 3500 
L 800 3500 
L 1894 563 
L 2988 3500 
L 3597 3500 
L 2284 0 
L 1503 0 
L 191 3500 
z
" transform="scale(0.015625)"/>
      <path id="DejaVuSans-6f" d="M 1959 3097 
Q 1497 3097 1228 2736 
Q 959 2375 959 1747 
Q 959 1119 1226 758 
Q 1494 397 1959 397 
Q 2419 397 2687 759 
Q 2956 1122 2956 1747 
Q 2956 2369 2687 2733 
Q 2419 3097 1959 3097 
z
M 1959 3584 
Q 2709 3584 3137 3096 
Q 3566 2609 3566 1747 
Q 3566 888 3137 398 
Q 2709 -91 1959 -91 
Q 1206 -91 779 398 
Q 353 888 353 1747 
Q 353 2609 779 3096 
Q 1206 3584 1959 3584 
z
" transform="scale(0.015625)"/>
      <path id="DejaVuSans-63" d="M 3122 3366 
L 3122 2828 
Q 2878 2963 2633 3030 
Q 2388 3097 2138 3097 
Q 1578 3097 1268 2742 
Q 959 2388 959 1747 
Q 959 1106 1268 751 
Q 1578 397 2138 397 
Q 2388 397 2633 464 
Q 2878 531 3122 666 
L 3122 134 
Q 2881 22 2623 -34 
Q 2366 -91 2075 -91 
Q 1284 -91 818 406 
Q 353 903 353 1747 
Q 353 2603 823 3093 
Q 1294 3584 2113 3584 
Q 2378 3584 2631 3529 
Q 2884 3475 3122 3366 
z
" transform="scale(0.015625)"/>
     </defs>
     <use xlink:href="#DejaVuSans-69"/>
     <use xlink:href="#DejaVuSans-6e" x="27.783203"/>
     <use xlink:href="#DejaVuSans-76" x="91.162109"/>
     <use xlink:href="#DejaVuSans-6f" x="150.341797"/>
     <use xlink:href="#DejaVuSans-69" x="211.523438"/>
     <use xlink:href="#DejaVuSans-63" x="239.306641"/>
     <use xlink:href="#DejaVuSans-65" x="294.287109"/>
     <use xlink:href="#DejaVuSans-73" x="355.810547"/>
    </g>
   </g>
   <g id="text_23">
    <!-- FROM -->
    <g transform="translate(446.013107 431.317803)scale(0.17 -0.17)">
     <defs>
      <path id="DejaVuSans-46" d="M 628 4666 
L 3309 4666 
L 3309 4134 
L 1259 4134 
L 1259 2759 
L 3109 2759 
L 3109 2228 
L 1259 2228 
L 1259 0 
L 628 0 
L 628 4666 
z
" transform="scale(0.015625)"/>
      <path id="DejaVuSans-4f" d="M 2522 4238 
Q 1834 4238 1429 3725 
Q 1025 3213 1025 2328 
Q 1025 1447 1429 934 
Q 1834 422 2522 422 
Q 3209 422 3611 934 
Q 4013 1447 4013 2328 
Q 4013 3213 3611 3725 
Q 3209 4238 2522 4238 
z
M 2522 4750 
Q 3503 4750 4090 4092 
Q 4678 3434 4678 2328 
Q 4678 1225 4090 567 
Q 3503 -91 2522 -91 
Q 1538 -91 948 565 
Q 359 1222 359 2328 
Q 359 3434 948 4092 
Q 1538 4750 2522 4750 
z
" transform="scale(0.015625)"/>
      <path id="DejaVuSans-4d" d="M 628 4666 
L 1569 4666 
L 2759 1491 
L 3956 4666 
L 4897 4666 
L 4897 0 
L 4281 0 
L 4281 4097 
L 3078 897 
L 2444 897 
L 1241 4097 
L 1241 0 
L 628 0 
L 628 4666 
z
" transform="scale(0.015625)"/>
     </defs>
     <use xlink:href="#DejaVuSans-46"/>
     <use xlink:href="#DejaVuSans-52" x="57.519531"/>
     <use xlink:href="#DejaVuSans-4f" x="127.001953"/>
     <use xlink:href="#DejaVuSans-4d" x="205.712891"/>
    </g>
   </g>
   <g id="text_24">
    <!-- billingAddress -->
    <g transform="translate(278.49804 517.287952)scale(0.17 -0.17)">
     <use xlink:href="#DejaVuSans-62"/>
     <use xlink:href="#DejaVuSans-69" x="63.476562"/>
     <use xlink:href="#DejaVuSans-6c" x="91.259766"/>
     <use xlink:href="#DejaVuSans-6c" x="119.042969"/>
     <use xlink:href="#DejaVuSans-69" x="146.826172"/>
     <use xlink:href="#DejaVuSans-6e" x="174.609375"/>
     <use xlink:href="#DejaVuSans-67" x="237.988281"/>
     <use xlink:href="#DejaVuSans-41" x="301.464844"/>
     <use xlink:href="#DejaVuSans-64" x="368.123047"/>
     <use xlink:href="#DejaVuSans-64" x="431.599609"/>
     <use xlink:href="#DejaVuSans-72" x="495.076172"/>
     <use xlink:href="#DejaVuSans-65" x="533.939453"/>
     <use xlink:href="#DejaVuSans-73" x="595.462891"/>
     <use xlink:href="#DejaVuSans-73" x="647.5625"/>
    </g>
   </g>
   <g id="text_25">
    <!-- invoiceId -->
    <g transform="translate(233.389608 560.273027)scale(0.17 -0.17)">
     <defs>
      <path id="DejaVuSans-49" d="M 628 4666 
L 1259 4666 
L 1259 0 
L 628 0 
L 628 4666 
z
" transform="scale(0.015625)"/>
     </defs>
     <use xlink:href="#DejaVuSans-69"/>
     <use xlink:href="#DejaVuSans-6e" x="27.783203"/>
     <use xlink:href="#DejaVuSans-76" x="91.162109"/>
     <use xlink:href="#DejaVuSans-6f" x="150.341797"/>
     <use xlink:href="#DejaVuSans-69" x="211.523438"/>
     <use xlink:href="#DejaVuSans-63" x="239.306641"/>
     <use xlink:href="#DejaVuSans-65" x="294.287109"/>
     <use xlink:href="#DejaVuSans-49" x="355.810547"/>
     <use xlink:href="#DejaVuSans-64" x="385.302734"/>
    </g>
   </g>
   <g id="text_26">
    <!-- SELECT -->
    <g transform="translate(106.67454 603.258102)scale(0.17 -0.17)">
     <defs>
      <path id="DejaVuSans-4c" d="M 628 4666 
L 1259 4666 
L 1259 531 
L 3531 531 
L 3531 0 
L 628 0 
L 628 4666 
z
" transform="scale(0.015625)"/>
      <path id="DejaVuSans-43" d="M 4122 4306 
L 4122 3641 
Q 3803 3938 3442 4084 
Q 3081 4231 2675 4231 
Q 1875 4231 1450 3742 
Q 1025 3253 1025 2328 
Q 1025 1406 1450 917 
Q 1875 428 2675 428 
Q 3081 428 3442 575 
Q 3803 722 4122 1019 
L 4122 359 
Q 3791 134 3420 21 
Q 3050 -91 2638 -91 
Q 1578 -91 968 557 
Q 359 1206 359 2328 
Q 359 3453 968 4101 
Q 1578 4750 2638 4750 
Q 3056 4750 3426 4639 
Q 3797 4528 4122 4306 
z
" transform="scale(0.015625)"/>
      <path id="DejaVuSans-54" d="M -19 4666 
L 3928 4666 
L 3928 4134 
L 2272 4134 
L 2272 0 
L 1638 0 
L 1638 4134 
L -19 4134 
L -19 4666 
z
" transform="scale(0.015625)"/>
     </defs>
     <use xlink:href="#DejaVuSans-53"/>
     <use xlink:href="#DejaVuSans-45" x="63.476562"/>
     <use xlink:href="#DejaVuSans-4c" x="126.660156"/>
     <use xlink:href="#DejaVuSans-45" x="182.373047"/>
     <use xlink:href="#DejaVuSans-43" x="245.556641"/>
     <use xlink:href="#DejaVuSans-54" x="315.380859"/>
    </g>
   </g>
  </g>
 </g>
 <defs>
  <clipPath id="pd06705902a">
   <rect x="0" y="0" width="1224" height="864"/>
  </clipPath>
 </defs>
</svg>
